<?xml version="1.0" encoding="UTF-8"?>
<svg id="Layer_2" data-name="Layer 2" xmlns="http://www.w3.org/2000/svg" viewBox="0 0 2546.11 1762.93">
  <defs>
    <style>
      .cls-1 {
        fill: #ff9d5c;
      }

      .cls-1, .cls-2, .cls-3, .cls-4, .cls-5, .cls-6, .cls-7, .cls-8 {
        stroke-width: 0px;
      }

      .cls-2 {
        fill: #ffce5c;
      }

      .cls-3 {
        fill: #ffb85c;
      }

      .cls-4 {
        stroke: #ff9d5c;
      }

      .cls-4, .cls-6 {
        fill: none;
        stroke-linecap: round;
        stroke-linejoin: round;
      }

      .cls-5 {
        fill: #ff7654;
      }

      .cls-6 {
        stroke: #ffce5c;
      }

      .cls-7 {
        fill: #ffdc5c;
      }

      .cls-8 {
        fill: #fffa5c;
      }
    </style>
  </defs>
  <g id="Layer_3" data-name="Layer 3">
    <g>
      <path class="cls-5" d="M1953.81,1015.76c.64-.62,1.19-1.34,1.67-2.09-.64.62-1.19,1.34-1.67,2.09Z"/>
      <path class="cls-7" d="M830.75,838.76c-12.88,5.78-26.03,10.81-39.55,14.88,0,0-.02,0-.03,0-7.61,3.44-16.67,4.86-24.36,6.27-7.7,1.42-15.46,2.37-23.25,2.94-1.66.7-3.5,1.21-5.53,1.48-1.11.15-2.21.29-3.32.44-1.24.17-2.49.08-3.71-.18-.5.18-1.01.34-1.51.53-2.24.88-4.75.88-7.18.4-37.98,7.28-77.29,6.52-115.46.83-41.46-5.89-81.69-17.75-122.38-27.29-51.01-12.32-103.73-18.27-156.12-13.28-42.63,3.71-84.22,17.13-120.92,39.14-61.98,38.35-109.45,96.54-144.79,159.61-24.48,44.76-43.34,92.82-51.45,143.34-2.86,17.72-4.66,35.67-4.04,53.63.68,11.72,1.87,23.62,6.26,34.61-10.58-47.77,21.44-132.37,35.97-167.14,30.68-71.55,78.37-137.48,137.19-182.46,46.11-34.15,94.87-51.84,149.71-55.23,28.88-2.13,57.98-1.4,86.69,2.38,39.36,5.12,77.77,15.31,116.18,25.02,71.44,18.17,147.89,27.87,219.1,3.63,37.07-11.56,69.29-31.29,97.9-56.31-7.75,5.44-17.48,9.17-25.41,12.73Z"/>
      <path class="cls-7" d="M1262.3,462.56c-7.05-36.95-18.26-73.39-36.82-106.26-17.54-31.94-40.87-60.14-66.61-85.78-31.97-33.36-73.32-57.08-117.92-68.93-67.4-18.03-142.17-13.16-207.67,10.32-49.59,18.55-93.91,49.09-132.9,84.57-32.05,29.7-62.38,62.57-82.27,101.81-4.89,10.66-9.46,22.08-9.05,34.01.25,11.91,6.53,23.9,19.7,16.54,6.86-3.82,12.7-9.18,19.29-13.42,10.15-6.86,20.86-12.91,32.11-17.77,29.31-12.49,62.85-18.01,97.96-11.04,20.33,3.73,43.28,18.61,60.99,32.76,1.53.65,3.05,1.29,4.58,1.94.59.25,1.15.56,1.67.89,17.01,7.8,33.56,16.54,49.5,26.37,5.28,3.26,11.54,6.92,15.8,11.86.07.05.14.09.21.14-14.05-18.03-31.02-33.58-47.89-48.92-18.92-16.68-38.51-33.36-61.68-43.81-50.05-20.74-109.38-8.65-153.67,20.42-6.96,4.19-17.58,13.27-23.48,16.01.12-.34.24-.71.38-1.1,2.55-6.14,5.56-12.08,8.91-17.82,6.07-10.85,10.06-15.69,19.48-28.58,12.26-15.89,25.98-30.62,40.29-44.68,45.37-45.72,112.24-89.74,174.24-104.5,53.24-14.06,122.76-13.85,169.2-1.08,34.21,9.12,66.69,24.92,94.47,46.92,10.68,9.08,20.74,18.86,30.36,29.06,13.82,14.56,27.17,29.66,38.6,46.2,6.79,9.97,11.8,17.76,19.58,32.32,4.58,8.43,8.5,17.19,12.21,26.04,12.52,33.71,17.24,55.55,22.46,88.35,5.24,30.16,4.14,60.19,2.61,85.13-5,48.28-12.15,80.98-27.11,128.15-12.45,38.87-25.28,70.21-45.75,109-4.92,9.09-10.11,18.03-15.61,26.78.74-.77,1.49-1.54,2.22-2.32,12.62-13.33,23.69-28.07,33.5-43.58,33.6-52.59,50.68-113.79,60.65-174.91,9-53.27,8.76-108.16-2.49-161.07Z"/>
      <path class="cls-7" d="M1976.91,256.76c-4.96-15.35-11.08-30.3-17.43-45.12-13.23-30.69-26.87-61.58-47.22-88.33-36.32-47.63-84.89-89-144.08-103.62-121.38-29.85-240.67,40.37-326.72,120.7-47.63,45.56-91.36,95.9-125.24,152.61-15.7,26.53-30.35,54.13-39.15,83.8,8.64-17.66,18.55-31.98,30.01-47.97,14.36-19.99,29.66-39.28,44.88-58.62,42.34-54.25,90.62-107.4,141.05-145.51,82.48-63.34,184.58-105.71,282.15-76.91,14.85,4.57,29.15,10.76,42.73,18.3,10.2,5.87,20.01,12.39,29.35,19.54,1.29,1.04,2.59,2.08,3.88,3.12,1.45.86,6.86,5.76,3.42,2.68,22.82,18.81,49.8,50.46,60.89,68.45,11.72,18.12,20.58,37.86,29.3,57.55,8.98,21.43,14.48,32.37,20.27,50.48,4.26,13.98,4.61,13.67,5.95,24.93,0,.32,0,.67,0,1.04-3.6,2.25-5.62,1.93-12.51,2.17-10.44-.24-20.84-1.32-31.27-1.84-20.76-1.17-41.59-.56-62.21,2.13-47.72,6.99-94.49,21.13-138.09,41.75-31.88,15.15-62.1,34.39-86.3,60.34-67.23,70.64-78.62,171.82-93.03,263.96-10.26,63.44-24.87,127.7-48.88,183.63-28.53,65.06-76.28,127.5-128.01,170.56-26.65,21.64-56.3,39.23-85.07,57.86-19.61,12.32-39.45,24.29-59.83,35.3-6.43,3.47-12.91,6.83-19.45,10.06-3.34,1.65-6.69,3.26-10.06,4.82-1,.47-2,.92-3,1.38.74-.12,1.48-.24,2.23-.35,67.64-11.99,132.81-45.22,185.15-89.36,30.2-25.58,56.37-55.69,79.28-87.89,18.65-26.83,35.56-55.02,48.48-85.08,23.95-55.75,37.86-115.22,48.53-174.78,7-40.62,14.46-95.72,21.39-125.39,9.64-43.76,25.16-84.08,46.36-114.53,26.2-37.15,54.98-59.75,95.7-80.42,41.12-20.81,81-33.78,122.76-42.13,20.43-4.09,41.23-6.27,62.06-6.39,18.52-.22,36.94,2.12,55.43,2.43,16.39.47,22.67-9.54,23.26-25.14.69-13.7-2.89-27.24-6.96-40.21Z"/>
      <path class="cls-7" d="M1887.08,665.89c-1.6-19.81-2.84-40.09-8.91-59.11-8.76-23.9-25.72-29.28-46.56-13.98-22.95,16.19-43.21,35.81-64.31,54.28-23.43,21-48,42.34-67.92,58.84-58.54,47.02-83.52,71.37-143.55,117.69-2.72,2.08-5.45,4.15-8.18,6.22,2.31-.96,4.62-1.93,6.93-2.92,32.25-13.6,62.48-31.56,91.15-51.54,42.86-30.24,82.13-65.23,121.49-99.82,15.33-13.6,30.49-27.41,46.08-40.72,4.36-3.83,13.14-10.91,22.42-17.33,4.03-2.67,8.22-5.22,12.83-6.72,11.37-2.58,15.54,3.21,19.1,11.14.26.74.55,1.62.74,2.36.21.74.4,1.48.58,2.23.91,4.6,1.63,9.24,2.31,13.88,4.38,24.71,4.26,72.92,2.74,90.84-3.43,45.77-7.82,77.29-19.68,117.8-31.19,107.2-125.92,207.39-218.07,277.83-64.82,49.3-135.82,90.95-211.83,120.46-34.21,13.57-69.54,23.93-104.92,33.9-19.13,5.47-40.33,11.28-63.09,16.55-31.28,1.28-62.62,1-93.52-4.5-30.72-5.18-54.89-13.46-85.93-24.95-48.51-17.97-94.09-42.67-138.83-68.42-65.83-37.97-130.93-77.35-198.87-111.49-62.66-31.65-128.57-58.1-198.02-70.06-134.59-23.5-281.82,11.68-382.92,105.74-47.31,43.71-84.49,98.68-103.98,160.28-4.29,12.99-7.86,26.22-10.67,39.61-2.21,11.03-4.09,22.45-2.64,33.69,0-9.06,2.59-17.89,5.27-26.47,3.34-9.51,5.39-15.04,8.83-23.27,7.13-16.96,15.14-33.57,24.03-49.68,10.03-17.29,14.25-24.64,23.69-39.01-.44.68-.88,1.36-1.32,2.04,89.93-138.28,256.9-201.54,420.37-179.79,130.75,17.01,251.8,90.49,368.32,157.75,44.2,25.69,88.22,51.9,134.5,73.72,37.82,17.31,76.95,32.32,117.4,42.21,36.93,8.75,75.14,10.5,112.96,8.75,7.19-.31,14.36-.82,21.51-1.5-38.14,7.04-76.94,10.58-115.7,11.31-41.84.22-83.66-2.85-125.27-7.04-113.57-11.86-225.09-36.98-337.6-55.67-135.66-20.76-298.92-33.21-423.32,34.17-35.64,19.22-67.38,45.96-92.07,78.08-10.71,14.47-21.22,29.41-28.19,46.09,10.92-16.26,25.47-29.78,39.92-42.87,26.08-22.9,63.28-45.86,97.98-63.59,129.32-62.13,301.63-44.22,443.81-19.36,106.54,19.36,212.81,41.4,320.78,51.34,38.01,3.13,76.16,5.66,114.32,4.78,68.29-2.39,136.45-13.62,200.86-36.8,48.41-17.42,94.95-39.8,139.24-65.94,33.6-19.43,66-41.07,95.25-66.66,19.78-17.07,38.35-35.58,55.21-55.54,83.19-67.29,154.68-149.29,190.74-235.78,17.88-43.64,27.52-90.27,32.08-137.1,3.11-31.88,4.61-64,2.46-95.99ZM1391.59,1289.06c-4.45.35-8.91.71-13.36,1.04,18.41-5.89,36.58-12.56,54.6-19.51,3.64-1.44,7.29-2.93,10.96-4.45-17.21,8.3-34.67,15.99-52.2,22.92Z"/>
      <path class="cls-7" d="M2057.45,515.05c.89-.29,1.71-.76,2.45-1.33-.89.29-1.72.75-2.45,1.33Z"/>
      <path class="cls-7" d="M2150.07,220.56c-.11.06-.23.13-.35.19-.12-1.57-.28-3.14-.41-4.71,1.41-4.59,2.71-9.21,3.94-13.85-2.73,2.55-5.78,4.8-9.16,6.7-3.02,6.67-5.88,13.2-8.6,19.66-2.86,1.56-5.72,3.12-8.58,4.7-4,2.11-7.96,4.3-11.89,6.53,4.19-4.61,8.26-9.34,12.14-14.23,3.58-4.46,7.09-8.99,10.52-13.57-6,2.41-13.02,4.05-19.38,3.5-14.97,14.93-29.15,30.6-41.74,47.66-.53.72-1.05,1.44-1.58,2.16-16.7,11.81-32.74,24.58-48.19,38.01,10.67-3.9,21.22-8.19,31.52-13-1.3,2.36-2.54,4.76-3.47,7.29-.29.93-.68,1.99-.25,2.93-.17-1.45.91-2.6,1.73-3.68,1.41-1.73,2.94-3.36,4.51-4.95,1.93-1.94,3.91-3.82,5.92-5.68,7.98-4.02,15.77-8.38,23.32-13.18,14.43-9.53,27.9-20.49,40.46-32.4-3.64,9.11-7.06,18.24-10.35,27.67-2.49,3.76-5.05,7.55-7.8,11.51-17.72,26.09-35.62,44.89-59.28,60.83-19.51,12.74-38.22,20.86-57.48,23.71-20.44,3.21-41.17.53-61.72,2.03-36.05,2.69-72.2,9.68-105.38,24.35-66.55,28.9-121.7,82.21-154.57,146.74-12.65,25.17-24.26,51.77-27.94,79.9,3.61-13.9,10.6-26.93,17.64-39.83,12.02-21.1,22.57-36.17,38.43-56.57,36.08-45.07,71.94-78.58,124.55-102.7,38.12-17.45,74.52-24.37,118.36-26.28,19.99-.2,40.24,1.38,59.88-3.3,40.81-8.82,74.32-38,96.07-72.78,3.07-4.94,5.97-9.99,8.76-15.09-.15.52-.31,1.02-.46,1.54,10.76-18.1,21.12-36.49,29.19-55.98,2.34-5.61,4.5-11.3,6.51-17.03-.8,9.11-1.72,18.21-2.68,27.3,1.17-2.51,2.46-5,3.76-7.44,1.48-3.05,3.08-6.06,4.74-9.02-.19-6.43-.54-12.86-1.04-19.27.11-.13.22-.25.33-.37Z"/>
      <path class="cls-1" d="M1010.79,505.3c-16.97-39.92-47.33-72.25-81.21-98.59-29.04-22.79-60.77-43.17-96.25-54.19-17.73-5.55-35.97-9.27-54.46-11.11-20.55-2.48-41.69-1.98-61.39,4.91-38.03,13.52-78.32,48.39-99.77,82.44-2.66,4.21-5.12,8.55-7.39,12.98,9.85-10.75,21.62-19.62,34.25-26.86,33.47-17.99,66.29-30.79,103.96-24.27,17.7,3.57,16.35,3.38,32.65,8.38,15.14,4.66,30.05,10.1,44.45,16.71,20.33,9.15,39.45,20.72,58.09,32.9,34.56,23.34,45.94,31.51,72.84,60.31,5.97,6.9,11.63,14.08,16.65,21.7,3.85,6.29,7.37,12.78,10.48,19.47,6.53,16,3.57,6.47,10.4,30.55.27,1.15.54,2.3.81,3.45.24,1.19.47,2.38.67,3.58,1.17,6.76,2.01,13.56,2.64,20.39.35,7.18.47,14.37.15,21.56-.02.53-.04,1.06-.07,1.58-.51,5.71-1.17,11.4-2.03,17.06-.5,3.28-1.1,6.54-1.74,9.79-1.23,5.1-2.53,10.18-4.02,15.21-8.44,25.56-4.21,15.04-16.31,40.39-13.27,23.87-9.61,17.91-24.44,37.66-26.55,32.15-37.43,41.01-71.59,63.98-19.05,11.97-39.34,21.82-60.31,29.94-12.26,4.6-21.83,7.8-31.58,10.34-6.41,2.12-13.35,3.25-19.44,4.37-4.09.75-8.19,1.36-12.31,1.87-4.13.63-8.57,1.26-13.4,1.92-.97.27-1.99.49-3.07.64-1.11.15-2.21.29-3.32.44-.96.13-1.91.08-2.86-.05-.59.06-1.18.13-1.77.19-.19.07-.39.14-.58.22-2.16.84-4.57.88-6.92.46-37.11,3.01-74.59,1.62-111.45-3.52-57.22-7.83-112.81-25.4-170.53-29.85-71.57-5.23-147.45.92-211.81,34.91-32.52,18.12-59.13,45.05-83.47,72.84-43.46,49.75-76.43,108.1-99.58,169.84-8.17,21.71-15.15,43.88-20.28,66.51-2.68,12.44-5.72,25-5.82,37.78,2.82-13.09,8.18-23.35,13.71-35.74,9.41-19.83,20.28-38.94,31.9-57.54,9.82-15.9,34.48-51.25,54.46-74.65,18.16-21.65,37.9-41.9,57.82-61.92,28.67-28.61,45.52-45.12,89.14-62.36,68.19-26.72,168.84-26.48,253.59-6.8,40,8.52,80.08,17.5,120.93,20.77,92.92,7.74,187.55-8.7,263.95-64.72,46.45-33.01,83.67-78.97,105.03-131.89,30.19-73.88,32.41-160.23.63-233.95Z"/>
      <g>
        <path class="cls-1" d="M2161.88,191.94c-.17.16-.33.35-.51.5-4.51,7.02-10.51,12.91-18.19,16.99-7.37,3.92-17.94,7.25-26.82,5.8-11.6,3.16-25.04,4.7-39.44,4.75-16.46-.27-24.16-1.82-33.39-5.53-8.44-3.17-16.27-7.75-23.36-13.3-1.02-.91-2.02-1.84-2.97-2.82-4.69-4.81-8.71-10.23-12.42-15.82-.18-.27-.35-.54-.53-.81.99,1.57,1.68,2.74.2.36-.19-.3-.37-.59-.56-.89-.44-.67-.89-1.34-1.33-2.02.24.32.58.83.93,1.38-8.6-13.7-16.4-27.88-25.38-41.35-25.24-40.07-61.23-72.59-101.18-97.61-32.62-19.68-69.38-32.08-106.76-38.84-70.69-10.61-152.59,10.86-215.69,42.79-46.61,23.99-87.9,57.1-126.4,92.41-24.66,22.83-48.31,46.87-69.43,73.04-21.23,26.96-40.45,55.67-56.41,86.07-21.02,40.75-31.71,85.73-38.46,130.83-5.4-16.16-11.33-32.13-17.97-47.82-11.88-27.16-28.03-52.47-47.25-75.02-46.24-54.77-110.13-81.15-178.32-97.31-29.77-7.14-60.55-10.85-91.14-8.25-51.23,4.53-100.38,23.15-144.94,48.27-60.8,35.67-110.62,88.25-149.12,146.88,35.21-29.65,74.31-54.87,115.75-74.91,33.7-16.5,77.59-29.5,100.79-35.52-1.47.4-2.95.79-4.42,1.19,35.34-8.97,71.51-17.02,108.16-16.26,54,1.86,113.13,19.32,161.5,45.11,33.45,18.33,52.97,33.11,73.09,53.17,13.58,13.47,25.91,28.23,36.55,44.13,3.18,4.99,6.26,10.04,9.22,15.16,7.93,13.81,15.43,27.87,22.67,42.06-4.24,36.71-7.06,73.58-10.39,110.38-10.23,102.63-24.35,215.4-89,287.24,47.9-27.19,74.26-79.12,92.21-129.22,13.94-39.74,22.41-81.28,28.55-122.89,3.31-27.44,5.64-55.02,8.17-82.57,1.79,4.3,3.55,8.61,5.24,12.95-1.25-7.84-2.69-15.64-4.26-23.42,3.37-35.66,7.32-71.24,14.45-106.38,3.14-13.93,6.89-27.74,11.81-41.15.81-2.17,1.08-2.93,1.04-2.85,5.61-13.94,12.37-27.39,19.9-40.39,12.26-20.53,12.17-20.44,29.97-45.28,19.69-26.48,42.38-50.57,66.06-73.51,30.49-28.6,40.38-37.77,73.14-61.84,64.67-46.74,128.9-71.37,199.78-78.13,56.28-4.8,91.6,3.85,138.1,24.68,17.11,7.95,33.23,17.93,48.28,29.28,18.14,13.97,24.51,19.59,45.72,41.85,12.18,13.17,23.26,27.31,33.79,41.83,6.87,9.27,13.83,19.11,21.87,27.69-19.7-7.2-39.02-15.49-58.7-22.76-34.89-12.6-71.1-23.5-108.37-25.19-99.85-2.93-226.23,43.29-289.01,123.13,82.29-55.58,260.46-63.65,361.76-44.31.63.11,1.24.22,1.87.33-28.93,4.63-57.47,11.75-85.21,21.15-31,10.89-60.31,26.38-87.1,45.36-21.9,15.18-41.49,33.4-59.35,53.13-14.64,15.61-28.07,32.31-39.84,50.19-30.85,45.86-52.03,97.63-66.16,150.92-8.44,31.96-14.1,64.55-20.74,96.92-13.55,60.38-23.14,87.98-48.94,136.74-27.03,51.36-86.48,116.88-142.97,169.01-26.08,24.3-54.12,49.2-72.68,64.26-19.26,15.73-38.59,31.68-60.32,43.91,22.35-3.3,43.58-11.62,64.27-20.44,33.69-14.48,65.71-32.68,96.12-53.12,31.98-22.2,62.18-47.3,87.69-76.81,36.05-42.39,63.79-91.67,83.1-143.8,21.98-55.86,33.04-133.78,41.18-166.35,12.82-50.31,18.99-67.85,37.7-105.95,6.19-12.34,13.11-24.29,20.52-35.93,8.14-12.1,16.8-23.85,26.4-34.84,14.88-16.92,30.18-33.63,47.43-48.19,40.45-31.76,90.83-57.66,147.45-69.76,36.51-8.22,73.89-11.4,110.98-15.88,20.77-2.19,41.76-5.39,61.98-10.77-10.48,5.73-21.24,10.99-30.99,15.02-28.49,12.25-37.76,14.11-62.46,19.78-22.36,4.99-45.07,8.65-66.93,15.67-43.34,14.35-84.15,37.18-118.46,67.35-20.45,18.03-38.47,38.69-54.68,60.58-16,21.88-30.11,45.35-39.07,71.03-3.55,10.6-7.59,21.64-7.15,32.95.39-3.79,1.56-6.58,2.94-9.84,4.67-9.97,8.01-15.06,13.95-23.5,22.01-29.21,42.03-44.42,67.68-63.95,23.62-17.5,49.57-31.53,76.7-42.76,24.36-10.27,49.34-19.1,74.81-26.15,26.32-6.68,53.38-10.32,79.17-19.05,43.64-15.2,86.62-46.1,116.84-80.89,15.82-19.3,28.51-41.31,37.72-64.49.5-1.24.98-2.5,1.46-3.75,3.79-4.1,7.35-8.44,10.64-12.98.65-1.29,1.32-2.57,1.99-3.83,1.75-3.6,3.62-7.14,5.63-10.63,1.19-2.06,2.58-3.68,4.09-4.95,6.19-12.56,10.29-26.06,11.65-39.92-1.85-.46-3.69-1.06-5.53-1.8Z"/>
        <path class="cls-1" d="M2004.25,181.71c-.24-.38-.5-.79-.75-1.17.13.21.26.42.4.64.12.18.23.36.35.53Z"/>
      </g>
      <g>
        <path class="cls-1" d="M2004.49,502.64c-2.7-1.79-6.12-1.55-9.23-1.59,2.76-6,5.55-11.98,8.39-17.94-1.07,1.07-2.16,2.14-3.22,3.22-4.96,5.07-9.77,10.29-14.46,15.61-2.23.33-4.46.72-6.68,1.14-16.42,3.07-32.57,7.58-48.18,13.54-21.26,8.07-41.61,18.45-60.94,30.42-33.61,21.27-65.29,45.53-95.79,71.04-43.96,37.23-85.87,76.78-128.56,115.45-25.72,23.23-48.55,45.18-75.64,64.61,41.46-9.41,79.66-29.56,116.7-49.88,35.48-20.34,69.3-43.56,101.05-69.34,28.63-23.49,55.34-49.19,82.04-74.82,9.83-9.31,18.63-17.55,27.12-25.24-1.31,21.81-4.07,43.23-7.93,66.57-2.69,16-5.81,31.93-9.15,47.81-.16.73-.31,1.47-.47,2.2,0,0,0,.02,0,.02l.09-.4c-.03.15-.06.29-.1.44-7.57,22.25-14.52,44.73-21.63,67.12-10,31.2-20.08,62.39-30.69,93.39-7.51,15.44-15.67,30.56-24.4,45.35-20.19,34.57-55.49,80.59-93.68,123.21-46.87,51.92-87.75,88.62-135.27,118.67,9.78-13.54,18.97-27.5,27.32-42,.96-1.73,1.91-3.46,2.83-5.21-2.75,2.88-5.58,5.69-8.48,8.43-19.14,18.05-40.05,33.81-61.43,49.87-15.24,11.33-30.62,22.47-46.02,33.58-20.55,8.9-42.75,17.56-67.19,26.34-66.77,25.61-151.84,53.5-205.67,67.17-29.67,7.95-59.99,13.09-89.91,19.92,29.84,4.67,59.66,9.93,89.91,10.98,12.33.51,24.68.61,37.02.35-9.59,1.57-20.15,2.96-32.68,4.42-39.87,4.23-80.25,3.8-119.79-3.18-66.78-11.17-130.81-39.3-204.48-64.57-65.66-22.91-133.2-41.01-202.23-50.09-80.16-9.03-162.1-4.63-240.61,14.07-44.65,10.38-88.23,25.49-128.78,47.01-42.49,22.94-82.05,51.01-118.5,82.65-28.18,24.72-55,51.7-75.53,83.23,24.38-20.56,52.8-35.66,81-50.26,37.09-18.5,74.98-35.43,113.64-50.39,47.5-18.25,101.78-36.28,137.87-44.08,41.13-9.43,83.22-14.05,125.34-15.87,47.98-1.67,96.18,1.03,143.4,9.95,67.15,12.21,112.71,26.53,180.13,50.5,55.24,19.74,109.98,41.69,167.48,54.11,46.23,10.45,94,12.5,141.06,7.33,48.98-4.98,97.72-16.99,141.26-40.44,32.03-16.46,60.56-38.75,86.5-63.59,4.45-4.17,8.84-8.39,13.23-12.63,9.32-3.59,18.58-7.36,27.78-11.27,35.82-14.99,70.87-32.02,103.2-53.65,53.69-36,100.75-81.18,143.38-129.59,38.12-43.49,73.44-89.82,101.55-140.47,18.02-31.95,32.74-65.74,43.34-100.87,9.05-30.93,15.18-62.71,19-94.7,21.96-51.09,38.35-101.25,58.18-149.3,11.02-27.71,22.49-55.25,34.82-82.41.18-.41.37-.81.56-1.22,1.67-.88,3.35-1.73,5.09-2.47,2.41-1.01,4.99-2.16,7.64-1.46.26.04.51.13.76.18-.43-.35-.89-.67-1.36-.97ZM1905.24,629.35c-.1-5.88-.29-11.75-.58-17.62-.63-12.29-1.64-24.57-3.23-36.77,17.27-15.44,33.76-28.91,55.68-44.81,4.14-2.95,8.34-5.82,12.57-8.64-25.88,33-47.15,69.64-64.43,107.85Z"/>
        <path class="cls-1" d="M1772.6,619.56c.59-.5,1.2-.99,1.79-1.49.74-.63,1.47-1.27,2.21-1.89-1.34,1.13-2.67,2.25-4.01,3.38Z"/>
      </g>
      <path class="cls-1" d="M2543.55,1270.38c-.13-.33-.24-.65-.3-1.04-.03-.15-.07-.3-.12-.43-.02,2.11.88,5.23,2.99,6.07-1.28-1.14-1.81-3.26-2.56-4.6Z"/>
      <path class="cls-4" d="M1319.94,1091.49c-.13-.03-.26-.03-.38,0"/>
      <path class="cls-2" d="M1269.59,606.97c-1.02-21.39-3.93-42.64-8.69-63.52-4.81-23.51-11.52-46.62-20.37-68.93-19.61-53.51-53.23-101.79-95.95-139.44-39.89-35.61-88.54-60.5-139.91-74.83-39.45-11.37-80.79-17.68-121.9-15.22-42.79,2.98-83.69,18.68-121.01,39.19-21.82,12.12-40.54,28.89-59.08,45.42-29.49,26.84-57.9,55.91-78.79,90.08,18.37-16.89,40.04-29.9,61.45-42.54,11.2-6.23,22.41-12.49,33.74-18.51-14.89,10.42-29.04,21.96-42.51,34.05-6.91,6.2-13.67,12.55-20.36,18.98,5.35-2.47,10.71-4.92,16.09-7.33,23.44-11.29,58.51-23.38,75.85-27.52,10.68-2.56,21.4-5.63,32.43-6.04,11.71.04,23.28,2.3,34.78,4.29,27.97,6.43,21.71,4.67,44.14,11.73,11.82,4.13,23.55,8.63,34.82,14.1,26.73,12.61,60.77,37.71,70.01,46.25,58.18,50.68,87.5,111.6,92.39,145.75,10.97,61.57-28.32,202.24-108.33,265.81-54.96,44.04-119.09,63.41-188.43,58.17-46.01-5.43-67.71-13.66-108.06-24.48-40.39-11.28-81.32-20.82-122.82-26.97-42.78-5.99-86.48-8.83-129.42-2.91-57.45,9.1-112.34,31.87-161.69,62.34-51.46,30.95-95.4,73.62-129.26,123.11-15.32,22.67-29.43,46.35-40.06,71.58-17.59,28.73-31.67,59.66-42.97,91.36-5.07,14.48-9.81,29.16-13.82,44.02-3.81,9.42-7.12,19.04-9.81,28.86-.72,2.65-1.4,5.31-2.04,7.97,1.77-3.58,3.68-7.1,5.66-10.57-2.1,10.5-3.73,21.09-4.76,31.76,6.87-22.99,17.77-44.74,29.47-66.53,18.16-21.14,42.5-44.18,52.23-51.98,29.07-23.68,61.61-42.5,93.6-61.86,15.93-9.72,32.56-18.18,49.19-26.62,16.91-8.7,34.1-16.89,51.95-23.5,37.69-12.58,55.28-17.37,96.7-24.43,48.72-7.15,98.34-8.3,147.35-3.67,28.73,2.99,57.2,8.03,85.46,13.91,18.11,3.79,36.05,8.37,53.94,13.09-1.56-.42-3.12-.84-4.68-1.26,49.13,12.9,97.9,27.97,148.23,35.57,24.57,3.47,49.56,4.6,74.24,1.6,29.02-3.95,57.35-12.5,84.36-23.73,66.7-28.58,147.95-81.23,194.5-137.07,23.56-28.2,42.85-59.69,59.24-92.52,15.21-29.94,28.52-60.99,37.67-93.34,14.67-53.09,18.5-108.8,15.24-163.65ZM775.2,1040.12c-65.67-13.65-112-31.19-182.56-45.16-36.02-7.06-72.43-12.35-109.15-13.5-25.52-.69-51.13-.04-76.58,2.28,21.64-4.61,44.44-8.02,70.53-10.68,40.87-3.81,82.47-4.91,122.88,3.34,57.37,10.85,128.38,45.85,197.35,66.56,3.12.89,6.26,1.77,9.39,2.64-10.7-1.43-21.34-3.3-31.87-5.48ZM1184.42,698.58c-.09,1.28-.18,2.56-.29,3.84-1.27,15.02-3.3,29.96-5.91,44.8-2.42,12.12-1.3,9.97-8.08,35.92-8.38,28.35-6.03,20.73-14.41,41.15-6.13,14-13.22,27.6-21.15,40.67-4.09,6.81-14.64,22.34-30.32,40.25-23.07,25.26-27.64,29.63-53.02,47.33-37.9,25.04-75.56,36.31-116.4,39.89-34.17,2.41-68.67-2.72-98.68-9.76,25.41-5.1,50.17-13.54,73.41-24.83,26.36-12.97,49.91-31.11,71.18-51.26,81.86-81.04,135.37-251.84,103.28-363.74-19.74-65.21-60.71-123.48-113.49-166.28-28.51-24.1-62.47-41.78-99.24-48.95-16.6-3.65-33.63-4.98-50.6-5.29,1.77-.4,3.61-.8,5.58-1.24,9.89-1.8,19.7-3.2,29.41-4.22,39.48,5.12,76.36,16.1,101.13,23.02,23.86,7.33,46.87,17.31,68.51,29.76,21.73,11.66,47.82,32.6,54.01,38.18,12.02,10.62,22.83,22.53,32.59,35.25,16.05,22.12,14.03,19.09,28.67,45.44,18.51,36.74,19.52,40.64,30.03,73.03,6.69,22.57,8.13,32.26,8.82,35.73,2.08,11.78,3.7,23.65,4.73,35.57.1,1.28.2,2.56.31,3.84.13,2.25.25,4.5.33,6.75.77,18.38.52,36.79-.41,55.15ZM1234.5,672.87c-1.24,15.12-3.3,30.16-6.21,45.04-3.44,15.14-7.86,30.06-13.17,44.65-.44,1.7-2.03,5.73-4.42,11.29,1.84-9.97,3.46-19.98,4.94-29.99,10.01-80.71,5.77-164.42-22.3-241.28-8.87-24.66-19.47-48.92-32.17-71.95,27.81,32.45,44.33,64.72,54.68,94.78,4.75,13.3,8.54,26.91,11.81,40.64.47,2.05.93,4.09,1.39,6.14,1.91,9.5,3.55,19.06,4.64,28.69,1.75,19,2.77,36.38.83,72Z"/>
      <path class="cls-2" d="M1965.77,519.74c-37.17,38.12-64.78,83.97-89.09,131.01-29.57,57.5-61.27,113.9-96.4,168.2-8.38,13.75-46.26,68.2-68.44,99.44-21.84,30.67-42.88,61.94-65.95,91.7-24.04,30.53-50.3,59.32-78.04,86.52-32.14,30.95-45.7,41.82-82.72,68.31-30.02,21.38-61.49,40.9-95.47,55.37-31.37,13.12-47.11,17.82-72.66,22.97-59.83,10.32-121.03,6.14-181.11.13-74.36-7.5-147.79-22.22-220.34-39.93-57.41-14.39-114.24-31.55-172.84-40.62-97.07-15.5-197.14-12.66-293.02,9.21-42.88,9.83-85.5,21.92-125.55,40.36-47.47,21.87-90.68,51.99-131.12,84.89-31.92,26.12-63.01,53.46-90.62,84.17,27.43-15.54,56.01-28.88,84.47-42.4,29.69-14.03,59.49-27.85,89.85-40.36,30.34-12.78,61.44-23.63,92.81-33.59,41.76-13.66,64.71-20.09,111.21-29.07,21.57-3.97,43.3-6.98,65.11-9.06,7.83,3.91,15.98,7.17,24.35,9.65,16.95,4.58,34.85,4.55,52.15,2.2.5-.07,1-.14,1.5-.21-.45-.22-.9-.45-1.35-.68-9.11-4.57-18.44-8.69-27.93-12.39-1.25-.53-2.51-1.03-3.77-1.53,66.13-2.42,132.57,3.62,197.24,17.76,43.98,9.15,86.99,22.28,130.62,32.86,64.42,15.51,129.46,29.01,195.32,36.69,69.48,7.74,140.63,14.35,209.82,1.02,59.29-12.6,114.58-39.63,163.75-74.71,43.86-29.86,84.23-64.62,120.71-103.14,28.05-29.48,54.45-60.58,77.91-93.86,56.23-80.42,115.61-159.13,163.01-245.25,35.15-66.32,56.73-140.93,81.79-199.24,9.85-22.99,20.72-45.54,32.38-67.66,2.49-4.73,5.02-9.43,7.58-14.12-1.73,1.77-3.46,3.55-5.17,5.34Z"/>
      <path class="cls-2" d="M2125.45,231.32c1.68-3.72,3.3-7.46,4.82-11.25-1.5,1.82-3.02,3.63-4.58,5.4-2.95,3.28-5.96,6.5-9.01,9.69-1.3.54-2.6,1.08-3.91,1.59-10.86,4.01-18.22,7.26-29.62,7.82-19.3.97-38.34-6.62-44.97-13.4-15.44-16.12-28.35-34.48-42.98-51.32-14.97-17.5-30.48-34.7-48.17-49.51-19.78-17.09-41.96-31.3-65.41-42.82-39.7-18.39-82.35-33.55-126.24-36.83-80.55-4.38-159.64,23.7-228.59,63.59-77.79,45.37-149.49,109.72-181.95,195.65-15.03,37.11-22.56,76.63-31.5,115.51-14.38,64.54-22.73,130.17-31.4,195.66-5.51,43.98-12.68,87.72-19.06,131.57,12.23-33.24,24.42-66.52,34.03-100.63,16.14-55.59,28.54-112.15,41.71-168.49,9.89-41.61,17.35-84,31.45-124.46.25-.66.49-1.32.74-1.98,4.27-10.74,9.01-21.3,14.47-31.5,12.58-22.07,8.05-15.3,23.1-35.83,17.02-23.26,52.76-56.13,61.46-62.4,23.69-18.93,49.11-35.66,75.58-50.46,58.29-31.36,102.09-48.15,162.01-54.74,56.43-5.38,92.19,3.35,139.18,22,33.26,13.78,65.83,29.91,95.47,50.46,26.68,19.56,38.7,30.44,59.61,48.27,7.6,6.42,15.17,12.89,23.16,18.82,6.75,5.36,14.99,8.57,23.52,9.66,11.84,1.16,24.09-.55,35.29-4.72-2.82,2.48-5.65,4.95-8.51,7.39-9.09,7.88-33.38,27.1-51.55,38.05-22.33,14.53-46.52,25.73-71.26,35.47-27.28,11.32-54.98,21.67-81.86,33.91-52.4,25.1-109.22,62.73-144.52,109.36,24.29-15.05,51.48-24.53,78.52-33.36,33.65-10.72,53.07-15.98,72.62-21.05,34.39-8.55,69.18-17.21,100.57-34.18,54.01-28.46,94.42-76.99,125.45-128.61,6.2-10.44,12.11-21.08,17.48-31.98,4.65-4.22,9.15-8.6,13.5-13.07,1.04-1.11,2.05-2.23,3.06-3.37-3.8,2.2-7.71,4.21-11.68,6.08Z"/>
      <path class="cls-3" d="M2081.25,274.68c-15.88-.22-32.14-3.48-44.24-14.48-31.02-25.44-69.15-60.99-106.31-88.54-35.28-26.36-73.63-48.76-114.34-65.62-89.79-35.97-153.02-27.43-240.54,8.15-68.46,27.05-127.78,75.2-169.65,135.62-35.1,48.2-58.75,104.22-69.25,162.89-9.18,48.1-11.52,97.19-20.31,145.36-6.98,45.28-23.74,106.35-39.89,144.27-12.58,30.99-27.82,60.86-45.25,89.41-15.54,24.65-18.27,29.88-45.37,67.51-.1.14-.21.28-.31.42,16.64-56.42,22.59-116.38,23.34-174.86.02-48.89-1.74-98.52-15.61-145.72-9.51-30.8-23.13-60.27-40.34-87.52-10.87-17.28-22.79-33.97-36.94-48.73-32.47-34.66-74.11-59.7-118.32-76.44-24.31-8.77-50.62-16.85-77.47-22.35-12.55-4.53-25.47-8.02-38.67-9.97,2.86,1.63,5.65,3.29,8.4,4.99-23.78-2.91-47.55-3.28-70.3.19-2.42.38-4.84.82-7.24,1.28,4.88.93,9.74,1.99,14.56,3.2,8.92,2.29,17.69,5.03,26.34,8.11-2.5.12-4.99.27-7.48.45-29.47,2.17-59.34,7.03-86.05,20.21,29.62-2.5,59.09,3.44,87.82,10.1,37.7,8.37,101.54,31.22,147.21,59.66,5.08,3.29,9.57,6.23,13.63,8.94,22.29,30.52,39.19,62.98,55.71,103.32,9.07,23.81,16.83,48.13,22.29,73.02,3.02,15.66,5.24,31.47,6.38,47.38.08,1.76.15,3.52.23,5.27.5,11.2.54,22.43.05,33.64-.07,1.65-.14,3.3-.21,4.96-.2,2.64-.42,5.29-.72,7.92-.74,7.47-1.73,14.92-3.07,22.3-.2,1.11-.39,2.22-.59,3.32-1.09,4.78-2.23,9.54-3.53,14.27-6.15,23.24-19.54,50.05-34.22,69.32-10.83,14.76-23.76,27.78-37.03,40.34-21.38,21.39-58.61,46.94-96.52,69.68-25.76,15.73-51.93,30.75-77.99,45.95-21.56,12.64-43.18,25.21-65.06,37.3-3.63.23-7.26.46-10.89.63-8.63.41-17.25.37-25.86,0-12.76-3.54-26.09-7.04-40.37-10.32-42.97-9.71-86.79-16.59-130.9-17.45-42.57-.92-84.98,4.39-126.72,12.48-23.23,4.48-46.11,10.54-68.86,16.98-29.67,8.38-58.81,18.69-86.52,32.27-54.19,26.02-103.93,60.72-148.44,101.03-24.62,22.36-48.58,45.64-69.73,71.35,23.12-14.79,47.61-27.28,71.86-40.08,54.57-28.58,111.58-52.17,169.59-72.81,59.25-20.84,95.31-32.38,155.55-42.52,35.3-5.99,71.11-9.17,106.93-8.2,26.7.69,53.3,3.68,79.64,7.99,24.59,4.07,48.98,9.31,73.07,15.71,52.98,14.54,105.62,32.35,160.56,37.49-.78.1-1.54.2-2.33.3,43.74,11.67,89.09,17.1,134.36,15.58,41.34-1.29,82.66-6.08,122.91-15.69,18.89-4.36,37.5-9.83,55.75-16.29-28.59,17.38-58.23,32.97-87.5,49.16,34.08-4.68,68.11-10.31,101.06-20.4,45.93-13.76,89.85-33.93,130.67-59.04,42.45-26.62,80.92-59.04,117.84-92.78,26.08-23.95,50.85-49.32,73.65-76.42,21.14-24.4,40.18-50.53,61.19-75.02,25.23-28.01,41.03-37.08,76.1-62.43,20.28-14.22,40.9-27.96,61.87-41.15,15.64-9.91,31.84-18.96,46.99-29.62,24.9-17.96,48.35-37.82,70.92-58.62-11.68,16.32-22.12,33.52-32.59,50.61-2.94,4.8-5.81,9.63-8.64,14.49-41.63,46.63-86.96,90-131.78,133.55-82.64,79.87-146.75,140.78-237.79,203.49-31.07,21.43-63.16,41.47-96.92,58.4-29.68,14.91-60.69,27.08-92.68,36.02-35.43,9.55-71.68,15.47-108.04,20.19-46.76,6.17-93.79,10.19-140.91,12.27-4.11.22-8.22.39-12.33.56-26.32-7.22-52.64-14.4-79.13-20.98-75.36-17.81-151.59-33.23-228.74-40.65-57.88-5.52-116.38-3.36-173.77,5.88-114.53,17.91-216.01,62.02-305.86,135.62-23.31,18.83-45.56,39.02-66.23,60.72-12.88,14.12-26.28,28.59-33.94,46.31,8.38-10.87,20.47-18.17,31.93-25.41,15.65-9.6,31.92-18.15,48.15-26.72,41.93-21.69,85-41.08,128.66-58.99,45.25-17.5,89.93-36.93,137.05-48.98-1.56.42-3.12.84-4.68,1.26,4.1-.98,8.21-1.97,12.31-2.95,18.29-4.51,36.85-7.84,55.43-10.91,22.21-3.39,44.55-5.8,66.96-7.25,39.07-2.38,78.31-1.04,117.22,3.12,41.51,4.38,82.67,11.52,123.64,19.4,41.1,8,82.02,17.01,122.48,27.83,52.52,13.29,131.66,39.33,200.86,47.26,65.42,6.9,131.55.33,195.75-13.07,42.72-9.65,84.9-22.7,124.18-42.29,25.08-12.8,48.51-28.57,70.74-45.81,64-49.99,119.38-110.72,163.38-178.97,38.97-59.73,75.95-120.85,108.72-184.22,16.9-32.34,32.29-65.46,48.44-98.18,10.15-17.56,19.62-35.53,28.52-53.77,13.23-21.85,24.52-36.62,46.46-60.72,15.04-16.28,31.1-31.67,48.41-45.53,4.38-3.52,8.85-6.94,13.37-10.28-1.68.5-3.36,1-5.04,1.53-23.23,7.43-45.47,18.12-65.84,31.6,1.64-3.96,3.28-7.92,4.89-11.89,1.12-2.79,2.24-5.58,3.35-8.38-7.32,10.07-14.7,20.09-22.11,30.1-9.98,7.58-19.41,15.87-28.17,24.82-3.49,1.68-6.98,3.36-10.46,5.06-30.05,14.69-60.17,29.27-91.05,42.16-19.47,7.81-39.62,13.82-58.87,22.19-37.99,16.39-75.01,36.15-107.27,62.23-27.63,21.64-48.01,50.4-69.88,77.47-22.38,27.96-45.9,55.05-71.39,80.22,14.97-24.11,27.33-49.77,37.25-76.39,15.97-40.94,27.1-83.63,35.43-126.73,9.62-51.18,10.03-64.94,21.21-105.44,9.49-31.78,10.54-33.62,19.46-54.36,7.57-16.76,16.44-32.92,26.37-48.39.7-1.04,1.4-2.07,2.1-3.11,9.92-14.81,21.1-28.75,33.05-41.97,17.46-19.28,36.11-37.46,55.32-54.99,28.16-25.03,38.97-36.16,71.4-57.24,13.27-8.35,26.77-16.56,41.36-22.41,26.45-9.81,57.78-15.81,91.1-14.44,4.25.2,8.49.51,12.72.93-4.92-2.49-9.92-4.81-15.01-6.94-28.36-11.75-59.61-17.07-90.25-14.99-20.19,2.36-39.8,8.7-58.5,16.65-1.74-.14-3.49-.26-5.23-.35-63.98-2.68-131.31,24.18-182.98,60.7-28.82,21.48-55.57,47.04-78.77,75.52,1.23-2.21,2.43-4.43,3.69-6.63,12.97-22.3,22.47-36.45,46.76-65.13,33.19-37.21,56.02-55.5,104.66-80.86,25.6-12.67,51.44-25.31,78.61-34.25.57-.17,1.14-.34,1.71-.52,2.99-.78,5.99-1.53,9.01-2.16,10.73-2.29,21.61-3.76,32.48-5.13,34.62-4.37,69.89-6.32,104.5-.92,2.54.39,5.06.87,7.58,1.35-1.96-1.2-3.91-2.41-5.9-3.55-3.33-1.92-6.7-3.74-10.11-5.49,1.53.64,3.06,1.28,4.56,1.91,51.14,21.09,99.38,48.28,148.92,72.73,12.56,5.81,24.94,12.46,38.36,16.05,13.83,2.59,27.95-1.36,40.8-6.35,1.79-.72,3.57-1.49,5.32-2.29-3.1.17-6.21.23-9.31.17ZM1677.94,898.04c-18.69,28.53-38.28,56.54-60.39,82.54-16.52,19.37-34.19,37.76-52.5,55.45-27.95,26.51-47.92,43.51-86.99,69.07-19.33,12.1-39.73,22.41-60.86,30.97-22.74,9.07-46.09,16.52-69.78,22.67,1.56-.42,3.12-.84,4.68-1.26-29.04,6.94-58.59,12.43-88.35,15.95,16.56-4.94,32.89-10.63,48.84-17.28,64.64-26.89,123.13-66.31,178.91-108.19,74.72-56.1,142.1-121.06,209.11-185.97-7.47,12.07-15.03,24.09-22.67,36.05ZM1129.4,640.53c-.1,9.57-.26,17.12-.64,24.12.4-25.78-1.3-51.6-5.04-77.12,4.68,25.63,5.66,43.26,5.68,53.01ZM876.8,974.73c-12.86,2.66-25.79,5.05-38.77,7.14,21.39-5.2,42.6-11.21,63.6-17.74,56.08-17.97,103.15-39.7,145.24-81.98,2.86-2.91,5.62-5.89,8.32-8.91-.49.73-.98,1.48-1.49,2.25-8.76,12.84-18.38,25.2-29.65,35.95-31.53,31.3-96.35,53.43-147.26,63.29ZM1004.66,1004.75c-19.81,8.93-36.91,14.41-56.18,17.27,14.47-3.4,28.64-8.01,42.26-14.08,36.15-16.71,65-46.03,85.96-79.49,38.21-57.49,65.41-122.37,78.14-190.28,11.39-55.53,13.12-113.2,2.9-169.05-1.11-6.48-2.38-12.94-3.78-19.37,18.95,43.86,19.73,76.68,19.94,139.18-1.11,36.19-.21,30.8-5.37,72.71-5.82,35.85-4.76,34.68-16.9,74.89-7.37,24.32-26.28,60.67-39.18,78.45-10.61,15.05-23.06,28.68-36.21,41.53-12.98,13.19-40.93,34.95-71.58,48.24ZM1500.69,429.03c39.76-30.9,81.63-58.92,123.1-87.44,7.67-5.01,15.46-10.04,23.35-15.02-6.38,5.68-12.61,11.52-18.64,17.57-51.19,52.92-85.85,120.3-104.1,191.35-10.62,40.12-15.78,81.36-24.03,121.97-3.2,14.67-6.87,29.24-11.05,43.66-4.64,16.18-9.72,32.25-15.59,48.04-14.92,37.8-29.19,63.98-46.38,86.9-14.5,19.53-31.25,37.24-48.59,54.25-29.02,28.71-50.81,46.59-92.82,72.07-49.63,29.73-104.3,49.21-158.66,68.3-28.52,9.93-57.29,19.1-86.2,27.86,1.36-.82,2.74-1.6,4.09-2.45,15-9.67,29.22-20.62,42.43-32.68,25.54-11.51,49.98-25.52,73.26-41.07,35.22-23.88,67.58-52.18,95.15-84.62,41.37-48.52,74.59-103.73,101.44-161.45,18.25-39.96,33.49-81.3,45.34-123.61,12.66-47.21,24.76-92.83,38.14-131.01,3-3.06,6.02-6.08,9.06-9.09,23.92-22.64,26.4-24.36,50.7-43.56ZM1766.05,164.69c-19.08-3.17-38.47-6.03-57.85-4.5-31.56,3.68-62.43,12.79-92.02,24.17-28.68,11.12-54.01,29.02-76.21,50.12-45.06,42.26-79.54,94.91-105.18,150.88-14.6,32.73-27.01,66.43-37.3,100.76-9.98,32.77-17.84,66.13-27.42,99.02-15.67,51.42-21.4,67.02-45.22,117.55-5.49,11-10.61,20.9-15.55,30.06.98-2.57,1.97-5.14,2.92-7.72,18.43-48.46,29.96-99.17,38.68-150.18,12.39-71.58,12.55-132.74,30.82-183.01,13.28-40.9,48.48-101.14,101.28-148.21,1.15-1.02,2.29-2.03,3.44-3.05,8.42-6.94,17.09-13.57,26.06-19.79,12.69-8.59,25.82-16.52,39.44-23.55,21.2-10.8,43.34-19.65,65.83-27.36,40.56-14.89,86.61-22.12,139.65-11.5,13.34,2.13,33.32,9.11,54.47,17.41-15-4.79-30.38-8.42-45.87-11.11Z"/>
      <path class="cls-1" d="M974.08,456.1c-16.31-17.07-34.25-32.8-54-45.78-30.52-19.34-65.44-31.98-101.41-35.79-51.25-5.72-104.97,2.89-149.26,30.16-13.84,8.49-28.57,17.12-38.45,30.3,12.36-8.49,25.87-10.7,39.55-13.96,27.46-6.27,55.84-7.01,83.73-3.37,64,7.81,124.42,32.31,179.65,77.77,9.11,7.92,17.81,16.31,25.89,25.28,14.49,15.71,29.42,38.38,30.19,40.54,4.65,8,8.83,16.28,12.49,24.78,2.52,6.53,1.73,2.83,7.79,22.71.93,3.23,1.74,6.49,2.51,9.75.89,4.87,1.61,9.76,2.18,14.68.11,1.16.21,2.31.32,3.47.02.32.03.64.05.96.21,6.13.11,12.27-.19,18.39-.43,4.99-.91,9.98-1.54,14.96-1.3,10.36-3.06,20.66-5.13,30.89-2.29,10.16-5.11,20.2-8.66,29.99-3.89,9.53-8.42,18.8-13.79,27.58-30.82,44.92-69.66,67.99-125.84,90.51-45.83,16.89-74.49,23.92-126.87,30.21-18.06,1.96-36.23,2.5-54.38,3.03-15.14.33-30.3,1-45.44.4-37.08-1.89-62.08-7.71-90.95-17.45-22.9-7.09-44.8-18.27-68.72-21.52-17.4-2.13-35.03-2.25-52.49-.67-11.1,1-22.12,2.71-33.01,5.07,2.75.46,5.5.96,8.24,1.48,27.16,5.32,52.56,13.06,78.59,24.89,14.15,6.79,26.68,16.38,39.81,24.89,19.06,12.55,38.78,24.35,59.91,33.11,18.02,7.24,36.75,12.96,55.94,16.09,24.95,3.92,50.39,4.29,75.59,3.18,77.26-4.02,168.65-27.7,233.62-70.44,32.41-21.81,60.42-50.65,78.03-85.76,11.2-22.71,18.89-47.01,23.59-71.87,4.42-20.65,7.29-41.63,8.4-62.72,5.51-75.43-24.55-150.9-75.91-205.72Z"/>
      <path class="cls-1" d="M2168.85,186.19s-.06.02-.09.04c-.46.17-.82.53-1.13.98-.03.02-.06.05-.09.08-15.01,10.44-31.63,18.14-47.66,26.84-4.21.89-8.26,2.88-11.35,5.4,3.93.14,7.69-.98,11.05-2.89,8.16.64,16.56-.35,23.98-3.5-6.32,6.67-12.9,13.08-19.89,19.04-29.87,25.6-57.25,39.39-86.15,40.49-13.19-6.65-25.68-14.94-38.51-22.07-38.14-21.99-76.32-44.51-117.41-60.62-31.71-11.66-64.77-21.97-98.78-22.89-45.18-1.47-90.32,11.47-128.84,34.9-24.15,14.77-45.12,34.22-63.71,55.47-.06.07-.12.14-.18.21-3.5,2.94-7.02,5.96-10.62,9.11-34.3,30.03-65.72,63.72-90.94,101.79-6.54,10-12.75,20.24-18.02,30.97-3.22,6.72-6.62,13.53-8.1,20.87,19.13-34.09,79.69-74.53,115.3-96.73,57.3-35.29,102.86-58.92,164.49-59.79,64.21-.67,111.37,9.88,164.03,29.29,27.32,9.9,54.27,21.76,82.59,28.49-42.2,6.18-85.29,8.08-125.59,23.02-48.21,18.01-91.63,48.74-124.65,88.21-17.33,20.56-31.93,43.28-45.19,66.63-13.65,24.23-25.98,49.36-34.88,75.74,22.89-35.43,66.26-80.08,89.16-98.4,47.9-40.49,120.17-65.79,165.82-76.12,40.8-10.19,82.97-18.17,120.39-38.19,17.76-9.46,33.37-22.44,47.84-36.31,7.26-7.15,13.99-14.79,20.17-22.85-6.88,12.62-12.63,23.54-21.08,34.26,21.32-9.36,41.06-34.03,53.24-53.52,6.38-10.58,10.99-22.08,15.37-33.6,6.14-15.7,11.6-31.73,14.78-48.31.03-.04.06-.07.09-.11,2.59-3.67,3.71-8.21,3.53-12.67,0-.25.07-.86.14-1.22.15-.74.44-1.45.89-2.06ZM2135.78,241.09c.86-2.36,1.69-4.74,2.49-7.12,5.27-8.61,10.13-17.47,14.62-26.51,1.69-1.41,3.27-2.97,4.71-4.74,1.75-2.13,3.48-4.31,5.1-6.57-8.4,15.33-18.49,29.64-26.92,44.94Z"/>
      <path class="cls-1" d="M2043.41,443.12c-8.76,6.69-17.68,13.18-26.76,19.43-39.3,26.86-79.01,53.13-119.32,78.45-35.86,22.76-72.5,44.29-107.84,67.87-44.2,30.37-86.76,63.11-128.06,97.3-42.34,35.33-83.8,72-121.17,112.61,77.96-41.32,158.12-78.77,232.94-125.79,48.88-29.88,94.75-64.42,137.25-102.72-14.47,38.65-29.22,76.54-45.31,115.04-18.73,44.27-42.17,86.36-67.51,127.16-27.49,45.32-43.22,68.96-77.91,116.75-42.8,59.25-90.82,114.98-146.89,162.1-47.32,39.71-96.66,71.74-176.51,94.41-31.22,8.31-63.1,14.05-95.23,17.41-33.38,3.42-67.05,4.28-100.5,1.36-40.79-3.24-80.98-11.5-120.68-21.17-45.34-10.95-85.73-23.02-139.17-39-63.52-19.18-128.75-32.6-194.81-39.04-90.8-8.96-182.89-8.63-272.94,7.14-50.13,8.54-99.91,20.56-146.52,41.28-43.34,18.87-82.61,45.84-119.69,74.9-25.7,20.8-52.1,41.19-74.72,65.39,14-7.94,29.12-13.71,43.83-20.19,19.33-8.21,38.64-16.45,58.05-24.47,67.6-27.74,100.57-36.33,162.22-50.59,51.93-12.13,104.47-22,157.7-26.03,56.62-4.71,113.57-3.32,170.17,1.03,57.5,4.63,114.7,13.72,170.55,28.2,37.72,9.67,113.8,34.29,168.04,47.49,53.99,13.83,108.97,25.45,164.86,27.03,89.13,1.8,180.01-15.57,260.65-54.02,39.54-19.23,74.6-46.26,107.75-74.89,44.68-38.42,84.67-82.04,120.21-128.99,27.76-36.3,54.25-73.59,78.84-112.11,7.92-12.28,15.69-24.66,23.17-37.23-14.85,29.38-30.24,58.5-45.73,87.55-9.4,17.55-18.83,35.09-27.98,52.78-6.38,12.69-13.07,25.34-17.65,38.81,12.83-18.91,29.36-35.01,43.93-52.56,18.36-21.22,35.91-43.14,52.31-65.91,22.91-31.92,44.19-65.19,61.4-100.56,24.8-52.54,43.42-107.98,57.32-164.36,12.74-50.89,14.19-76.89,27.42-119.26,7.07-22.53,8.4-27.62,18.46-47.02,3.32-6.29,6.83-12.36,10.59-18.25,9.06-10.55,17.91-21.28,26.53-32.19,1.75-2.23,3.44-4.51,5.15-6.76,2.3-2.24,4.66-4.48,7.12-6.7-1.02.41-2.01.87-3.02,1.31,3.19-4.29,6.33-8.62,9.41-12.99ZM1924.57,617.48c-10.57,34.27-21.78,68.34-33.35,102.29-5.89,17.12-10.63,30.37-15.55,43.12,1.25-3.81,2.47-7.63,3.64-11.47,9.13-29.99,15.85-60.65,22.39-91.28,5.22-24.46,9.42-49.13,13.18-73.85,10.24-9.35,20.29-18.91,30.12-28.68-8.08,19.47-14.56,39.63-20.44,59.88Z"/>
      <path class="cls-2" d="M841.84,491.4c.19.29.43.57.73.76-.2-.29-.44-.57-.73-.76Z"/>
      <path class="cls-2" d="M815.84,388.6c-24.77-11.57-52.35-19.28-79.85-15.8-10.89,1.5-22.27,3.3-31.88,8.94,15.6,1.66,30.54,7.24,46,9.87,14.94,3.23,30.33,3.16,45.52,2.18,7.62-.5,15.22-1.32,22.79-2.29.86-.11,1.73-.22,2.59-.33-1.71-.88-3.43-1.74-5.17-2.57Z"/>
      <path class="cls-2" d="M899.6,422.6c-17.17-19.07-35.96-37.62-58.71-49.91-17.89-8.87-38.09-14.93-58.21-13.27,19.96,11.29,38,25.64,57.24,38.08,15.73,10.13,32.75,18.17,50.08,25.17,4.71,1.88,9.46,3.64,14.24,5.32-1.53-1.81-3.07-3.61-4.64-5.39Z"/>
      <path class="cls-2" d="M1061.7,631.85c-1.2-23.86-4.39-47.8-11.97-70.52-8.79-26.57-21.12-52.47-39.93-73.46-9.23-10.47-20.43-18.87-31.07-27.79,8.08,14.86,17.33,29.09,24.49,44.46,9.24,19.69,13.46,31.86,20.13,56.85,1.1,4.39,2.13,8.8,3.09,13.22.45,2.15.9,4.31,1.32,6.47,1.7,8.52,3,17.13,3.8,25.78.34,4.87,2.42,21.93,1.29,59.14-.07,1.56-.16,3.12-.25,4.68-.68,8.74-1.66,17.45-2.93,26.12-.97,6.69-2.17,13.35-3.51,19.98-8.37,37.17-19.93,73.62-33.33,109.27-.74,1.88-2.08,5.36-3.11,7.89,3.66-4.14,7.19-8.4,10.54-12.79,11.12-14.65,21.01-30.24,29.63-46.48,23.33-43.55,34.54-93.48,31.81-142.82Z"/>
      <path class="cls-2" d="M1065.94,561.86c-1.15-18.93-2.45-37.89-5.74-56.59-6.11-33.94-15.65-68.53-36.76-96.4-17.72-22.82-41.81-40.87-68.85-51.09-15.18-5.53-31.24-9.19-47.45-10.55-19.5-6.27-40.18-9.65-62.01-10.84-13.8-.9-27.64-1.07-41.46-.63-2.69-.1-.17.61,1.05,1.45,2.42,1.34,4.84,2.68,7.27,4,25.93,14.3,52.68,27,79.4,39.73,19.19,9.46,38.23,19.2,57.74,28.01,17.15,7.77,35.39,17.4,47.79,28.21,2.97,3.44,5.88,6.92,8.67,10.51,1.96,2.51,3.76,4.86,5.42,7.09.85,1.58,1.64,3.19,2.33,4.85.95,2.75,2.4,5.65,1.6,8.49,1.24-1.55,1.02-3.74,1.14-5.62,0-.22-.02-.44-.02-.65,8.28,12.14,13.33,22.82,22.3,43.99,6.53,14.6,19.25,57.83,28.3,86.5.21.66.41,1.33.62,1.99-.2-10.82-.69-21.64-1.33-32.44Z"/>
      <path class="cls-2" d="M557.07,890.39c-13.27-8-27.11-15.07-41.37-21.12-13.32-5.65-27.18-10.58-41.66-12-31.52-2.36-71.37,4.58-97.85,22.41,17.9-.7,35.67,2.87,53.34,5.31,21.37,3.44,42.82,6.31,64.26,9.17,22.37,3.64,44.93,5.91,67.56,7.12,4.52.27,9.05.52,13.57.79-5.8-4.12-11.77-7.99-17.86-11.67Z"/>
      <path class="cls-2" d="M620.13,1677.19c.56.07,1.13-.03,1.64-.25-.56-.06-1.13.03-1.64.25Z"/>
      <path class="cls-2" d="M506.84,1175.9c-3.51-.09-7.03-.13-10.55-.13-23.27.01-46.54,1.88-69.48,5.82-24.59,4.32-48.97,10.62-71.79,20.87-36.38,16.18-70.44,38.17-99.37,65.59,42.88-11.04,84.22-18.74,120.42-30.22,45.74-15.17,88.74-37.57,130.76-60.92.58-.32,1.15-.65,1.73-.98-.57-.01-1.15-.03-1.72-.04Z"/>
      <path class="cls-2" d="M972.09,1216.91c-11.16-3.82-22.37-7.48-33.64-10.95-25.06-7.7-50.41-14.52-75.99-20.26-39.64-8.84-80.1-15.63-120.84-13.94-32.22.99-64.24,6.22-95.28,14.87-18.32,5.35-36.98,10.62-54,19.39,21.95.73,43.72,4.62,65.54,6.93,43.8,5.08,87.33,12.72,131.29,16.24,61.08,3.7,122.48-1.08,182.74-11.3.67-.12,1.35-.23,2.02-.35-.62-.21-1.23-.42-1.85-.63Z"/>
      <path class="cls-2" d="M1108.88,1706.85c.76.07,1.53-.09,2.22-.4-.77-.06-1.53.08-2.22.4Z"/>
      <path class="cls-2" d="M1292.13,1244.89c-44.62-5.94-89.73-9.49-134.73-6.69-51.1,3.9-101.52,13.81-152.24,20.84,42.29,17.61,88.31,27.26,134.2,26.05,24.08-.81,47.77-6.08,71.07-11.91,16.9-4.35,33.63-9.41,50.06-15.3,8.85-3.16,17.62-6.55,26.29-10.18,2.1-.88,4.19-1.78,6.28-2.69-.31-.04-.62-.08-.92-.12Z"/>
      <path class="cls-6" d="M862.72,1762.93c-.07-.14-.11-.3-.14-.45"/>
      <path class="cls-2" d="M1719.06,1082.73c-21.36,15.21-43.7,28.99-66.23,42.39-30.42,18.02-61.19,35.52-93.08,50.82-36.84,16.87-74.72,31.45-113.2,44.11-55.31,18.63-95.74,23.94-155.97,47.13,51.58,3.76,103.37,12.61,155.13,7.21,39.38-4.26,78.88-13.83,113.82-32.91,27.23-15.15,51.82-34.68,74.84-55.58,24.79-22.63,47.81-47.22,68.46-73.69,9.23-11.83,17.96-24.05,26.07-36.68-3.24,2.44-6.53,4.85-9.84,7.21Z"/>
      <path class="cls-2" d="M1705.92,313.26c-9.37,1.55-18.42,4.23-27.12,7.77,1.02-.87,2.06-1.73,3.06-2.62-4.52.5-8.91,1.56-13.14,3.07,2.1-1.74,4.1-3.6,5.91-5.65-8.2,2.13-16.72,3.41-24.29,7.47-1.88.98-3.7,2.08-5.48,3.22-32.2,4.44-63.79,13.33-93.48,26.54-29.14,12.68-56.53,29.66-78.6,52.72-20.81,20.7-35.72,46.53-44.81,74.34-4.98,14.68-8.54,29.79-12.1,44.86-8.27,34.98-16.39,70.02-26.02,104.66-13.02,45.23-16.57,57.91-42.35,99.82-.12.18-.24.37-.37.55-23.16,34.44-50.65,65.89-80.79,94.39-40.97,37.74-55.08,48.14-107.15,89.98-58.49,45.94-117.01,91.87-176.69,136.25-5.95,3.17-11.81,6.51-17.53,10.11,1.72-.34,3.45-.65,5.17-.96-1.9,1.41-3.8,2.83-5.71,4.23,7.36-2.14,14.69-4.38,21.99-6.72,24.22-3.19,48.71-4.32,73.03-6.66,54.21-4.48,108.73-10.87,160.55-28.17,56.13-18.19,106.15-51.71,149.45-91.32,18.25-16.58,35.73-34.07,51.02-53.46,15.77-20.15,29.34-41.98,41.54-64.46,17.8-33.45,31.28-69.18,41.45-105.64,11.9-42.64,26.1-130.48,29.68-144.42,9.72-41,15.92-54.76,29.18-85.6,5.62-12.73,11.47-24.74,17.38-35.99,12.85-13.09,26.49-25.45,39.75-38.07,13.88-13.38,26.55-27.95,39.63-42.1,10.73-11.79,21.9-23.18,33.78-33.81,5.57-4.97,8.07-7,13.53-11.57,1.45-1.21,2.89-2.42,4.34-3.63-1.61.28-3.22.55-4.82.86ZM1521.63,431.29c-1.89,2.78-3.74,5.59-5.57,8.42,3-5.87,6.24-11.79,9.64-17.42,1.44-2.36,3.08-4.93,4.86-7.63-3.15,5.45-6.12,11-8.93,16.63Z"/>
      <path class="cls-8" d="M924.63,939.22c-23.92,9.93-47.48,20.74-70.63,32.36-5.69,2.92-11.32,5.97-16.89,9.1,3.89.13,7.79.25,11.68.34,39.64.87,82.86-.98,119.24-18.14,39.18-21.48,71.07-54.93,94.97-92.38-43.99,26.87-90.81,48.95-138.37,68.72Z"/>
      <path class="cls-8" d="M1098,658.01c-.86-10.6-2.2-21.18-4.27-31.62-1.71-8.24-3.63-16.64-7.93-23.96,2.68,13.58.41,35.2.1,42.33-.02.31-.04.62-.06.9,0,.07,0,.14-.01.22,0,.04-.01.15-.03.37-.03.55-.07,1.1-.11,1.65-.03.43-.06.86-.09,1.29.02-.29.04-.54.05-.79-1.17,18.13-3.05,36.23-6.92,54.01-.11.57-.23,1.15-.35,1.72-2.48,11.54-5.6,22.95-9.42,34.12-6.31,18.45-13.54,36.56-20,54.96-.57,1.6-1.13,3.2-1.7,4.8,5.76-6.34,11.27-12.9,16.49-19.69,27.93-34.7,38.46-76.27,34.25-120.29Z"/>
      <path class="cls-8" d="M1123.22,583.15c-1.66,16.46-1.96,33.11-.25,49.57,1.47,12.75,4.22,25.31,6.54,37.93,4.1-29.22.43-58.95-6.3-87.5Z"/>
      <path class="cls-8" d="M1089.98,1050.41c-20.92-3.26-41.94-8.27-63.21-7.5-22.96,1.45-45.68,9.58-64.4,22.93,13.97-.61,28.02.31,41.99.76,15.82.85,31.69,2,47.49.25,16.81-1.47,33.1-6.4,48.8-12.41,1.01-.39,2.03-.79,3.04-1.19-4.55-1.03-9.13-1.98-13.72-2.84Z"/>
      <path class="cls-8" d="M1151.41,547.17c14.4,67.49,7.68,106.42-4.73,176.77-2.61,12.04-15.22,84.27-32.84,128.24.61-1.57,1.22-3.15,1.82-4.72-5.96,15.22-12.59,30.2-20.36,44.59-13.63,24.6-24.9,42.15-41.56,64.45-1.37,1.8-2.75,3.58-4.15,5.36,5.37-2.97,10.6-6.21,15.66-9.69,12.66-8.79,24.47-18.84,35.36-29.75,28.07-28.69,46.3-65.51,57.79-103.65,10.19-33.22,16.64-67.61,18.98-102.28,4.94-57.29,2.5-117.92-25.98-169.3Z"/>
      <path class="cls-8" d="M1181.38,1092.94c-3.56.26-7.11.57-10.67.89,7.4-4.93,14.7-10.02,21.93-15.19-13.65,1.51-27.25,3.52-40.85,5.45-32.21,4.97-64.72,7.15-97.31,6.66-22.19-.02-44.29,2.27-66.44,3.16-23.08.76-46.41,1.35-68.77,7.71-9.05,2.61-18.38,5.47-26.55,10.27-4.36.25-8.72.55-13.06.88,27.4,14.9,57.04,26.72,87.99,31.39,16.26,1.98,32.93,2.54,49.3.77,14.7,3.37,29.62,5.71,44.72,6.28,21.52.79,43.17.55,64.55-2.23,17.04-2.36,33.78-6.58,50.29-11.34,39.49-12.16,78.45-30.11,107.63-60.06-32.13,10.88-68.2,11.85-102.77,15.37Z"/>
      <path class="cls-8" d="M1126.5,1298.01c-29.94-4.45-60.55-3.99-90.47.35,27.44,12.74,55.93,24.16,85.83,29.53,29.89,4.45,60.5,3.29,90.3-1.38-27.46-12.38-55.94-23.11-85.66-28.5Z"/>
      <path class="cls-8" d="M1719.3,840.02c-28.92,28.92-59.85,55.72-89.3,84.09-40.1,39.72-67.89,64.49-94.32,85.58-27.75,22.88-56.25,44.89-86.61,64.23-37.9,24.51-77.01,47.15-117.31,67.46-22.38,11.35-44.72,23.03-68.16,32.06,82.8.94,184.39-26.35,252.36-74.23,31.63-22.47,59.92-49.54,85.01-79.09,28.49-34.56,53.43-71.88,78.7-108.81,16.85-25.42,32.73-51.52,46.86-78.56-2.38,2.45-4.79,4.87-7.22,7.27Z"/>
      <path class="cls-8" d="M1211.95,501.07c-13.14-32.8-34.87-71.08-63.85-92.05,9.96,15.18,16.88,32.11,23.61,48.9.11.28.22.55.32.83-.24-.72-.82-2.04-.77-1.99,4.62,11.31,13.84,38.66,18.68,58.28,8.05,31.58,9.86,41.69,15.22,80.33,5.99,49.53,7.09,65.26,8.03,117.66-.15,35.08-1.25,44.04-4.98,80.77-.16,1.29-.31,2.59-.48,3.88.28-.66.57-1.33.85-2,8.43-20.63,15.32-41.96,19.69-63.83,14.56-76.39,13.11-157.99-16.34-230.77Z"/>
      <path class="cls-8" d="M1292.7,284.02c.25.28.45.62.72.89-.16-.35-.36-.72-.72-.89Z"/>
      <path class="cls-8" d="M1259.39,552.45c-.29-22.88-1.19-45.84-4.81-68.46-7.71-45.22-21.92-92.11-54.75-125.6-12.9-12.39-27.67-22.89-43.68-30.87-14.26-6.98-29.47-11.74-44.54-16.63,12.72,12.94,26.24,25.07,38.92,38.06,13.69,14.27,26.69,29.27,38.42,45.19,7.92,10.59,19.31,31.47,29.48,53.06,10.32,22.33,13.66,32.08,15.97,37.98,9.87,26.05,16.69,53.09,24.38,79.83.19.68.38,1.36.57,2.04.09-4.86.09-9.73.04-14.6Z"/>
      <path class="cls-8" d="M1347.49,289.93c-14.18,23.77-25.22,49.26-35.68,74.84-21.91,53.28-35.83,110.02-40.75,167.44-3.82,47.43-1.66,95.07-4.05,142.57-.35,9.36-1.4,28.75-1.68,32.43-.75,9.35-1.03,18.85-3.36,27.98,4.6-7.94,6.92-16.97,9.66-25.66,3.48-11.69,6.53-23.52,9.23-35.41,10.9-45.38,14.43-91.98,21.36-138.03,6.53-39.95,12.82-79.96,20.95-119.62.22-1.03.44-2.05.67-3.08,8.24-36.35,15.89-72.85,25.18-108.96,2.78-10.38,5.89-20.68,8.94-30.98-3.59,5.43-7.08,10.93-10.49,16.48Z"/>
      <path class="cls-8" d="M1769.45,158.11c-17.2-6.23-35.22-9.49-53.34-11.69-29.55-4.05-59.84-6.05-89.2.44-59.09,12.07-107.8,38.61-147.7,84.13-34.43,40.07-59.6,87.7-76.61,137.58-11.54,33.74-20.89,87.57-23.24,96.9.58-2.74,1.16-5.48,1.73-8.21-4.23,19.87-8.62,39.7-12.9,59.55-4.21,19.58-8.29,39.23-14.78,58.21-10.97,32.14-20.69,64.69-30.52,97.19-6.74,22.86-12.74,46.03-21.29,68.3,11.57-16.41,20.64-34.45,29.88-52.24,8.19-15.54,16.26-31.14,23.99-46.92,8.33-17.14,17.61-33.85,24.89-51.48,8.43-20.82,14.66-42.44,21.07-63.94,5.64-19.27,10.78-38.68,15.17-58.27,5.59-25.41,11.29-50.89,20.57-75.25,6.49-16.23,14.1-32.01,22.57-47.3,13.71-23.4,11.66-20.9,30.22-45.03,10.07-12.42,21.39-23.78,33.23-34.52,10.23-9.47,24.8-21.07,47.16-35.09,23.17-14.32,47.57-26.7,73.01-36.47,23.52-8.8,37.78-11.24,65.73-16.34,12.46-2.11,24.88-4.5,37.45-5.89,14.92-1.43,29.96-1.51,44.92-.88,3.57.19,7.13.46,10.67.89-10.46-5.52-21.52-9.81-32.69-13.65Z"/>
      <g>
        <path class="cls-8" d="M1544.55,593.17c.35-1.66.57-2.7.62-2.93-.21.98-.41,1.95-.62,2.93Z"/>
        <path class="cls-8" d="M1566.65,508.64c-10.95,28.67-16.55,58.97-23.01,88.87.3-1.44.61-2.89.91-4.33-1.65,7.79-6.25,29.53-9.79,47.93-3.45,18.14-6.4,36.36-10.1,54.45.5-2.36.99-4.71,1.49-7.07-8.24,41.62-34.07,123.22-66.83,179.59,35.96-30.86,63.74-75.29,81.39-119.02,13.32-31.87,20.26-65.86,26.58-99.68,11.23-61.22,11.44-114.15,28.75-163.57,8.58-23.54,13.17-36.32,25.71-63.01-23.71,24.62-43.58,53.52-55.1,85.85Z"/>
      </g>
      <path class="cls-8" d="M1871.34,278.92c-29.65-16.98-50.48-15.42-81.57-3.62-47.5,17.65-85.5,54.6-114.07,95.58,31.84-17.48,64.99-32.41,97.12-49.32,24.17-12.79,49.95-33.1,73.26-37.15,7.33-1.45,14.78-2.08,22.24-2.35,2.69-.11,5.38-.21,8.06-.32-1.67-.95-3.35-1.9-5.04-2.82Z"/>
      <path class="cls-8" d="M1832.44,701.16c-21.23,34.76-41.26,70.3-59.62,106.66-14.27,29.19-26.74,59.27-37.82,89.81-.43,1.22-.85,2.44-1.28,3.65,3.13-3.95,6.33-7.85,9.51-11.77,17.19-20.92,33.84-42.28,50.69-63.47,21.19-26.91,41.07-55.05,56.74-85.56,27.1-52.73,45.2-109.41,63.56-165.6-31.91,42.76-52.56,79.08-81.78,126.28Z"/>
      <path class="cls-8" d="M1806.84,662.42c-53.7,26.14-105.63,56.63-151.6,94.96-32.16,25.98-59.54,57.02-87.27,87.51-19.69,21.46-39.49,42.81-58.76,64.64-34.7,39.71-74.23,80.29-108.2,106.38-19.9,15.6-40.62,30.15-61.9,43.82-14.45,9.92-30.28,18.14-43.53,29.65,9.75-4.18,20.46-5.59,30.66-8.44,15.34-3.84,30.66-7.89,45.62-13.07,58.1-19.13,106.77-53.78,150.4-95.97,49.23-47.32,92.75-100.14,139.76-149.59,48.24-50.48,100.04-97.36,151.31-144.71,13.06-12.19,26.14-24.37,38.87-36.92-15.12,7.22-30.33,14.28-45.34,21.72Z"/>
      <path class="cls-8" d="M1445.56,481.33c-24.62,45.49-42.26,94.19-62.49,141.68-31.9,70.18-56.59,108.86-99.41,165.82-32.18,41.03-66.95,80.19-105.66,115.19-22.19,20.07-42.67,36.85-73.16,58.63-27.95,19.71-57.25,37.39-86.22,55.52,76.3-14.35,141.29-37.47,202.68-86.43,38.4-29.96,70.42-67.05,98.43-106.72,15.27-21.5,30.04-43.45,42.38-66.78,23.16-44.47,40.19-92.05,51.74-140.81,8.73-35.8,16.65-71.79,25.74-107.5,2.91-11.46,5.92-22.9,9.04-34.3-1.03,1.9-2.06,3.8-3.07,5.71Z"/>
      <path class="cls-8" d="M1507.6,465.58c-.24,1.86-.39,3.98.74,5.59-.4-1.84-.3-3.75-.74-5.59Z"/>
      <path class="cls-2" d="M1543.84,400.59c-5.2,4.69-9.92,9.88-14.79,14.91-9.84,10.31-19.45,20.93-26.72,33.25-22.52,37.1-24.81,85.13-27.3,127.55-.06,1.54-.11,3.07-.16,4.61,1.97-5.37,3.9-10.76,5.78-16.16,9.86-27.95,17.47-56.65,28.23-84.28,6.37-16.39,14.7-31.89,22.41-47.66,3.9-8.05,7.54-16.23,11.06-24.45,1.72-3.43,2.8-7.4,5.31-10.33-1.51.29-2.62,1.65-3.8,2.56Z"/>
      <path class="cls-6" d="M1694.65,519.1s-.04.09-.05.13"/>
      <path class="cls-6" d="M1733.48,602.79c-.03-.05-.08-.09-.12-.13"/>
      <path class="cls-2" d="M2074.4,710.7c.29.47.64.91,1.05,1.28-.25-.5-.6-.95-1.05-1.28Z"/>
      <path class="cls-2" d="M1912.48,579.4c-2.56,2.35-5.03,4.55-7.26,6.44-17.53,15.25-41.72,26.77-63.68,37.04-17.7,7.53-36.27,12.75-54.34,19.27-30.36,10.81-60.29,23.3-88.28,39.36-28.26,16.52-53.08,38.14-76.81,60.53-41.89,38.8-78.19,82.96-116.2,125.43-23.1,25.14-46.23,50.31-70.43,74.41-32.52,31.1-37.43,34.97-66.16,57.81-29.91,23.34-62.18,43.89-97.44,58.15-15.96,6.37-31.74,13.82-48.55,17.62,12.29,2.19,24.92,1.39,37.34,1.07,15.9-.7,31.82-2.05,47.42-5.33,76.48-16.74,142.41-64.73,195.31-120.94,30.18-31.85,58.09-65.74,87.74-98.06,21.77-23.74,44.76-46.37,68.84-67.76,6.69-6.03,27.3-22.58,47.01-36.39,14.92-10.4,30.45-19.9,45.86-29.54,28.45-17.91,58.23-33.7,86.14-52.44,10.45-7.13,19.91-15.58,29.42-23.9,9.83-8.43,19.07-17.55,27.43-27.42-1.24,2.95-2.47,5.91-3.68,8.88-13.69,34.01-7.99,20.93-19.19,48.41-15.65,36.01-31.01,72.24-49.11,107.1-21.31,38.81-25.41,42.97-49.86,79.23-13.24,19.29-26.15,38.81-38.61,58.62,9.64-7.05,19.2-14.22,28.64-21.54,23.74-18.43,47.22-37.68,66.25-61.1,33.42-41.52,54.15-91.81,68.15-142.86,13-50.21,20.65-101.97,39.39-150.55-9.84,11.9-18.1,24.89-25.36,38.46Z"/>
      <path class="cls-2" d="M1427.06,277.37c-21.74,30.49-41.16,62.99-53.81,98.36-10.69,30.08-17.19,61.53-22.36,92.98-3.94,25.72-5.94,51.69-9.28,77.49-7.84,63.49-13.32,99.76-25.12,141.94-6.58,22.49-12.98,36.33-23.96,60.15-4.05,8.57-8.21,17.1-12.59,25.5,1.03-1.03,2.05-2.08,3.06-3.13,14.49-15.34,28.11-31.68,39.18-49.68,9.22-15.06,16.12-31.37,22.23-47.89,16.74-44.58,26.35-91.52,33.6-138.48,5.46-41.15,9.22-82.56,17.61-123.27.06-.29.11-.53.15-.76.11-.51.27-1.21.48-2.15,5.73-25.12,14.1-49.55,23.03-73.69,3.65-9.43,27.66-70.03,42.3-102.63-12.59,14.19-23.33,29.95-34.52,45.25Z"/>
      <path class="cls-2" d="M554.96,869.1c10.92,5.58,22.6,10.15,34.79,11.85,9.45,1.09,18.98.71,28.46.49-18.74-12.92-41.1-16.2-63.26-12.34Z"/>
      <path class="cls-2" d="M1188.1,1324.92c-14.36-7.47-28.94-14.54-43.8-20.98-18.47-7.99-37.37-15.26-57.17-19.14-25.59-5.11-52.07-7.57-78.06-4.39,66.59,33.79,107.88,55.1,185.62,49.42.78-.06,1.56-.13,2.34-.19-2.97-1.58-5.95-3.16-8.93-4.71Z"/>
      <path class="cls-2" d="M1173.26,1076.66c-.71.4-1.43.8-2.14,1.2,5.74-.45,11.48-1.08,17.18-1.91,11.89-1.77,23.74-4.2,35.08-8.24,13.12-4.51,25.53-10.78,38.4-15.92-31.29-1.56-61.61,9.75-88.51,24.87Z"/>
      <path class="cls-2" d="M1002.45,911.79c-20.89,9.34-42.59,16.71-63.7,25.52-22.46,8.95-44.76,18.33-67.54,26.45-11.94,4.23-23.87,8.48-35.71,12.98-6.78,2.68-7.79,1.99.54,3.45,19.21,3.2,38.67,5.68,58.18,4.96,27.69-1.34,55.7-6.75,80.74-18.94,40.08-19.64,72.46-53.99,91.81-94.02-19.08,16.57-41.53,28.9-64.32,39.59Z"/>
      <path class="cls-2" d="M1421.32,210.43c-57.92,38.98-98.94,92.73-120.94,159.02-10.41,30.61-16.67,62.51-21.15,94.49-3,24.98-6.21,50.23-5.27,75.42,5.51-23.26,14.19-45.71,21.6-68.43,16.9-47.89,15.85-45.88,33.63-87.05,11.36-26.06,23.17-51.94,36.74-76.94,13.05-24.8,33.6-57.57,45.42-75.6,2.1-3.24,4.97-7.68,7.67-11.84,1.38-2.13,3.42-5.29,5.34-8.25,1.13-1.74,2.23-3.45,3.36-5.19-2.14,1.44-4.27,2.89-6.38,4.37Z"/>
      <path class="cls-1" d="M1269.59,612.58c-.3-4.06-1.17-31.19-2.61-44.09-5.61-59.26-21.84-117.68-51.53-169.5-19.88-35.56-44.75-68.77-76.65-94.43-28.83-23.57-61.95-41.51-96.68-54.73-17.22-6.09-34.87-13.75-53.22-15.04,10.95,5.44,20.33,13.52,29.93,20.98,13.02,10.41,26.33,21.47,34.55,28.45,21.88,18.46,61.68,55.6,85.01,84.85,10.31,12.61,19.91,25.77,29.03,39.25,6.42,9.57,9.55,14.45,27.73,44.3,29.01,49.28,34.58,64.14,46.84,101.05,6.96,20.84,11.98,42.24,16.85,63.65,4.29,15.92,7.53,26.42,8.26,42.55.08,2.89,0,5.79-.14,8.68,5.26-18.15,4.12-37.36,2.63-55.98Z"/>
      <path class="cls-1" d="M1050.79,648.95c-8.5,23.44-29.36,55.36-43.76,81.12-10.69,19.43-21.09,39.02-31.41,58.65-6.58,12.01-12.12,24.67-19.68,36.1,6.28-3.34,11.46-8.42,16.8-13.04,9.13-8.3,17.74-17.18,25.66-26.64,32.44-38.63,54.34-87.18,58.1-137.73.41-5.43.7-10.86.81-16.3-2.07,5.98-4.29,11.92-6.52,17.84Z"/>
      <path class="cls-1" d="M1767.43,925.78c15.12-20.37,30.25-40.91,42.21-63.34,14.12-27.87,25.1-57.26,34.62-86.98-37.37,43-62.17,95.53-76.82,150.32Z"/>
      <path class="cls-1" d="M1938.77,574.25c-14.78,18.93-28.49,38.83-39.6,60.16-18.45,36.5-29.81,76.11-38.33,115.98-4.94,22.58-9.13,45.31-13.35,68.03-3.85,21.06-8.17,42.08-10.73,63.35,7.85-17.49,16.56-34.6,23.77-52.38,12.54-30.77,23.09-62.34,32.48-94.21,6.91-24.37,12.9-49,20.31-73.22,7.65-24.99,16.74-49.52,25.44-74.15,2.86-8.03,5.69-16.06,8.51-24.1-2.87,3.48-5.71,7-8.49,10.55Z"/>
      <path class="cls-4" d="M2146.63,243.31s-.01.07,0,.07"/>
    </g>
  </g>
</svg>