<?xml version="1.0" encoding="UTF-8"?>
<svg xmlns="http://www.w3.org/2000/svg" viewBox="0 0 2173.39 1374.11">
  <defs>
    <style>
      .cls-1 {
        fill: #dcf898;
      }

      .cls-1, .cls-2, .cls-3, .cls-4, .cls-5, .cls-6, .cls-7, .cls-8, .cls-9, .cls-10, .cls-11, .cls-12, .cls-13 {
        stroke-width: 0px;
      }

      .cls-2 {
        fill: #c2f742;
      }

      .cls-3, .cls-6 {
        fill: #aaf62b;
      }

      .cls-3, .cls-7 {
        opacity: .32;
      }

      .cls-4, .cls-13 {
        fill: #79c56d;
      }

      .cls-5 {
        fill: #e7ffae;
      }

      .cls-7, .cls-10, .cls-11, .cls-12 {
        fill: #7c8e50;
      }

      .cls-8 {
        fill: #eaffb9;
      }

      .cls-9 {
        fill: none;
        stroke: #7c8e50;
        stroke-linecap: round;
        stroke-linejoin: round;
      }

      .cls-11 {
        opacity: .6;
      }

      .cls-14 {
        isolation: isolate;
      }

      .cls-12 {
        opacity: .23;
      }

      .cls-13 {
        mix-blend-mode: soft-light;
        opacity: .63;
      }
    </style>
  </defs>
  <g class="cls-14">
    <g id="Layer_2" data-name="Layer 2">
      <g id="Vector_layer" data-name="Vector layer">
        <g>
          <path class="cls-1" d="M425.88,565.62c97.45-86.1,343.2-160.29,473.81-158.49,99.65-1.23,184.4,76.75,264.68,127.56,61.28,39.94,128.03,78.02,201.84,86.59,20.93,1.51,41.81-1.15,62.49-4.15,37.32-5.34,75.1-9.97,111.61-19.13-35.26,10.83-71.77,16.94-107.98,23.64-21.95,4.02-44.09,7.93-66.49,6.99-120-9.96-213.74-93.86-311.77-155.03-36.13-21.78-73.24-44.91-115.39-52.34-71.62-10.38-144.2,4.85-213.74,21.53-53.37,13.51-105.91,30.19-157.54,49.28-49.16,19.35-100.78,39.57-141.52,73.55Z"/>
          <path class="cls-1" d="M1039.88,379.73c-3.61-2.58-7.18-5.24-10.77-7.9-1.69-1.25-3.38-2.51-5.08-3.76,1.59.07,3.18.08,4.77.05,6.37,4.26,12.67,8.6,19.04,12.69,41.88,27.61,85.16,53.55,131.27,73.5,57.25,25.01,117.53,39.99,178.59,51.77,1.34,3.39,2.93,6.68,4.75,9.85-84.17-13.93-166.76-35.5-240.18-80.79-23.72-14.2-46.81-29.46-69.2-45.68-4.43-3.21-8.83-6.45-13.2-9.73Z"/>
          <path class="cls-1" d="M1501.3,531.12c21.52,3.71,43.03,7.46,64.57,11.04-22.6-2.36-45.36-5.15-68.02-7.96,1.18-.99,2.33-2.01,3.45-3.08Z"/>
          <path class="cls-1" d="M1073.09,230.43c-4.62-3.08-9.32-6.03-14.14-8.78,4.16,2.66,8.21,5.46,12.18,8.38.65.13,1.3.27,1.96.39Z"/>
          <path class="cls-1" d="M1548.46,478.97c31,9.77,62.12,19.19,92.93,29.45,28.64,9.19,57.47,18.3,86.03,27.43-61.21-16.96-123-32.29-183.98-50.12,1.8-2.16,3.47-4.41,5.02-6.75Z"/>
          <path class="cls-1" d="M1328.19,284.77c-32.1-23.4-62.82-49.12-90.99-77.05,29.67,26.04,61.28,49.92,94.11,71.83,57.2,37.96,121.74,62.58,187.28,81.97,87.29,26.46,174.32,53.76,261.3,81.26,5.49,1.73,10.98,3.46,16.46,5.19-88.76-22.45-177.27-46.65-265.29-72.02-.9-.25-1.8-.5-2.7-.75-3.56-2.45-7.33-4.59-11.26-6.39-8.97-4.11-19.61-7.04-29.54-6.86-.85.02-1.71.04-2.57.06-55.29-18.32-108.69-42.41-156.04-76.7-.26-.18-.5-.36-.76-.55Z"/>
          <path class="cls-1" d="M1042,587.88c120.95,66.15,275.14,140.51,424.37,121.33,61.05-6.8,118.19-30.46,174.34-54.09,94.34-37.08,190.96-68.28,287.26-99.87-91.07,34.7-182.7,68.7-273.38,104.63-58.36,25.31-116.84,50.73-180.31,59.06-155.48,22.55-303.88-51.11-432.29-131.07Z"/>
          <path class="cls-1" d="M1740.85,660.08c-64.1,34.83-134.1,62.5-187.77,113.21-.79.73-1.55,1.46-2.32,2.2,4.49.23,8.98.45,13.47.68,54.07-49.68,123.73-78.84,186.27-116.4,25.98-14.54,52.25-28.87,78.39-42.95-29.58,13.94-58.92,28.39-88.04,43.27Z"/>
          <path class="cls-1" d="M1480.31,771.84c18.09-14.57,36.15-29.17,54.18-43.81,20.61-16.8,41.36-33.66,61.79-50.56-16.61,12.29-33.21,24.61-49.79,36.96-25.39,18.87-50.68,37.86-75.94,56.91,3.25.17,6.5.34,9.75.5Z"/>
          <path class="cls-1" d="M1455.86,1090.9c40.08-53.59,68.57-115.31,115.4-163.95,37.5-41.14,81.41-75.48,124.97-109.88,78.52-62.12,158.01-123.03,238.75-182.24-94.79,77.03-189.15,154.93-284.55,231.31.18-.15.31-.26.48-.4-42.29,33.89-81.81,71.33-115.15,114.18-28.18,35.84-49.83,76.68-79.89,110.98Z"/>
          <path class="cls-1" d="M1484.84,602.78c22.78-18.25,51.86-27.28,78.76-37.93,50.41-18.43,103.44-30.44,157.23-31.62,85.24-1.63,167.48,25.65,250.08,43.31,32.04,7.67,63.99,15.72,95.84,24.14-25.47-5.07-51.18-10.26-76.75-15.23-90.42-15.13-179.85-42.51-272.1-42.22-48.93.72-97.44,9.4-144.24,23.48-30.09,10.01-62.57,17.93-88.81,36.05Z"/>
          <path class="cls-1" d="M1560.21,426.23c19.39,4.92,38.65,10.39,57.89,15.61,115.58,30.08,229.72,65.38,343.29,102.24,6.32,2.09,12.79,4.12,19.01,6.25-126.26-32.88-252.32-66.71-376.92-105.44-14.2-4.03-28.4-8.89-42.68-13.58-.14-1.7-.34-3.4-.59-5.08Z"/>
          <path class="cls-1" d="M1710.32,710.93c-34,22.3-70.6,41.91-102.37,67.41.9.04,1.79.09,2.69.13,43.16-29.67,91.31-52.6,135.15-81.42,43.21-26.73,86.2-54.14,128.67-81.88-55.28,30.95-110.2,62.51-164.14,95.76Z"/>
          <path class="cls-1" d="M1700.65,910.87c28.49-38.66,68.05-67.94,103.27-100.25,91.09-79.73,184.98-156.18,279.99-231.18-77.39,68.57-155.62,137.29-235.23,203.26.1-.08.2-.16.29-.24.03-.03.07-.06.1-.08-.12.1-.26.22-.39.32.06-.05.13-.11.19-.16.01-.01.03-.02.04-.03-48.99,43.18-105.05,79.38-148.26,128.36Z"/>
          <path class="cls-1" d="M1655.84,347.44c85.8,40.47,164.27,96.32,242.94,148.96-82.97-46.32-161.21-101.08-242.94-148.96Z"/>
          <path class="cls-1" d="M382.13,522.54h0c.51-.47,1.01-.94,1.53-1.41-1.15,1.19-2.29,2.39-3.43,3.59.59-.63,1.27-1.49,1.91-2.18Z"/>
          <path class="cls-1" d="M690.54,354.58c69.11-17.63,140.8-12.38,211.38-11.48,11.62.28,23.24.6,34.86.98,2.92,1.21,5.9,2.22,8.91,3.04-7.84.09-15.68.2-23.51.33-70.23,2.57-141.42-1.73-210.57,12.88-119.3,26.78-237.22,77.49-327.96,160.81,81.74-84.75,193.36-138.79,306.88-166.56Z"/>
          <path class="cls-1" d="M500.25,637.78c18.31-19.94,44.19-31.91,68.03-44.16,32.66-15.65,66.39-29.08,100.99-39.79,90.07-28.3,186.81-48.58,280.55-27.09,98.31,21.48,187.26,72.02,283.51,100.05,41.49,11.69,84.65,14.01,127.44,16.89,53.15,3.73,106.31,7.56,159.51,10.61-55.72-.28-111.69-2.02-167.46-4.09-40.78-1.3-81.86-3.07-121.5-13.53-88.58-24.32-170.32-69.25-259-93.43-86.79-25.62-178.18-13.61-264.38,8.41-46.6,11.73-92.6,25.94-136.78,44.94-24.64,11.31-51.44,22.06-70.91,41.18Z"/>
          <path class="cls-1" d="M1339.17,794.02c-2.03-.38-3.93-1-5.67-1.83-73.93-16.65-148.16-32.33-219.96-56.47-69.22-24.7-133.55-61.79-204.19-82.69-53.47-15.55-110.01-25.18-165.61-17.42-73.52,11.33-147.35,41.88-200.82,94.56,55.15-49.11,128.75-76.22,201.43-85.57,52.97-5.96,106.18,3.34,157.23,17.42,72.56,20.57,138.13,59.33,209.26,83.74,72.75,23.31,148.19,36.89,223.41,50.5,2.01-.77,4.06-1.43,6.21-2.01-.43-.08-.86-.15-1.29-.23Z"/>
          <path class="cls-1" d="M332.29,653.27c35.71-31.35,84.06-46.05,127.28-64.74,90.23-34.46,181.89-65.05,273.85-94.53,13.32-4.22,26.77-8.54,40.05-12.6-91.57,34.96-183.21,69.76-275.88,101.72-35.38,12.2-70.81,24.32-105.49,38.42-20.23,9.3-42.74,16.63-59.64,31.41,0,0,0,0,0,0-.08.1-.11.33-.17.33Z"/>
          <path class="cls-1" d="M311.31,821.37c18.09-30.89,50.04-49.89,77.7-71.32,66.44-49.31,134.68-96.16,204.53-140.51,12.42-7.81,24.97-15.74,37.45-23.24-78.81,55.42-156.35,112.66-236.13,166.7-29.06,20.92-62.97,38.25-83.55,68.38Z"/>
          <path class="cls-1" d="M90.37,860.06c23.91-41.68,71.82-65.28,109.08-93.89,77.32-53.96,156.66-105.03,237.53-153.5.02,0,.03.02.01.02-79.92,54.75-159.05,110.7-240.2,163.64-36.14,26.11-81.39,45.63-106.4,83.73,0,.02-.02.02-.02,0Z"/>
          <path class="cls-1" d="M4.73,751.65c35.08-33.2,78.24-56.62,118.41-83.06,102.79-65.19,207.83-126.78,314.33-185.71,8.45-4.63,17.01-9.42,25.42-13.9-98.97,61.55-197.44,123.9-297.82,183.09-53.24,33.28-111.38,60.16-160.34,99.58Z"/>
          <path class="cls-1" d="M50.52,812.61c107.21-82.7,224.51-152.46,341.05-221.26-111.51,76.83-227.97,147.11-341.05,221.26Z"/>
          <path class="cls-1" d="M64.91,660.64c37.36-38.34,77.03-74.38,118.2-108.58,164.63-136.83,413.98-264.41,632.69-250.15,29.43,2.24,58.22,6.83,86.52,13.24,3.26,5.07,7.12,9.74,11.48,13.91-34.16-8.46-69-14.39-104.73-16.79-102.26-6.44-203.66,20.11-298.26,57.04-117.61,44.86-225.36,111.96-323.17,190.73-38.71,31-76.38,63.31-112.63,97.16-26.4,25.86-54.87,51.14-75.03,82.21,16.91-29.55,41.82-53.97,64.91-78.76Z"/>
          <path class="cls-1" d="M990.39,345.81c-.19.05-.39.1-.58.15.2-.06.39-.11.58-.15Z"/>
          <path class="cls-1" d="M1041.36,366.8c3.38-.65,6.71-1.53,9.96-2.64,75.41,31.14,148.81,68.67,223.11,100.52,26.47,10.85,53.13,21.43,80.06,31.24,1.09,4.52,2.6,8.93,4.5,13.17-37.63-13.39-74.7-28.43-111.33-44.2-71.33-31.89-142.35-67.81-215.48-96.92,3.09-.2,6.16-.59,9.19-1.17Z"/>
          <path class="cls-1" d="M1494.32,536.97c64.06,13.58,129.55,18.54,194.98,20.05,133.82,4.65,267.11,19.08,399.82,36.37-160.19-13.66-320.93-22.43-481.6-29.45-42.69-2.92-85.04-9.68-126.79-18.99,4.78-2.18,9.33-4.84,13.58-7.98Z"/>
          <path class="cls-1" d="M101.27,850.74c66.63-96.08,131.02-199.28,229.21-266.32,126.78-84.91,281.69-121.25,433.04-122.12,95.06.27,188.88,20.13,279.58,47.43,117.65,33.98,228.81,86.26,344.61,125.41,63.44,19.52,129.58,27.66,195.2,36.19,95.15,12.31,193.06,13.67,286.85-8.7,44.43-10.76,86.42-28.99,128.61-46.23,16.2-5.15,37.3-17.27,45.68-9.94-12.14-7.93-55.09,18.67-69.87,23.76-37.18,17.73-75.5,33.5-115.56,43.4-95.33,23.86-194.98,19.78-291.62,6.65-62.57-8.31-125.6-16.79-185.97-35.86-119.35-41.21-234.42-94.71-356.27-128.88-86.01-24.82-174.75-42.5-264.55-42.49-147.81,1.38-298.68,36.86-423.03,118.83-98.48,65.6-165.31,166.24-235.92,258.87Z"/>
          <path class="cls-1" d="M1859.23,702.5c-36.39,16.02-72.09,34.55-110.47,45.41-100.28,26.78-206.48,26.11-308.27,8.26-106.93-18.22-207.06-62.64-313.06-85.12-156.64-40.08-322.15-30.15-475.82,18.07-115.18,34.05-226.91,87.89-313.67,172.33-18.94,18.81-36.99,38.59-52.9,60.06-6.72,10.03-15.94,19.91-17.72,32.2,2.94-15.45,37.58-53.68,57.99-73.21,80.47-78.37,182.16-131.68,287.7-168.06,168.32-58.7,345.52-74.71,519.11-29.17,91.99,20.03,179.49,56.29,271.3,76.69,3.59.57,7.19,1.13,10.77,1.75,1.83.32,3.48.86,4.98,1.55,15.2,2.97,30.51,5.55,45.89,7.78,11.71.6,23.41,1.2,35.12,1.81,37.03,1.93,74.05,3.86,111.09,5.63.92.04,1.78.16,2.61.3,3.09-.16,6.19-.33,9.28-.53,3.69-.84,7.4-1.46,11.12-2.19,3.31-.65,6.31-.37,8.93.57,32.5-3.15,64.73-8.83,96.37-17.55,25.78-6.53,49.96-17.75,73.8-29.34,43.86-21.68,88.76-42.33,128.96-70.44-26.15,16.92-54.9,29.89-83.11,43.18Z"/>
          <path class="cls-1" d="M1278.33,262.07c77.94,26.89,151.36,63.89,224.43,101.73-5.05-1.23-10.22-1.93-15.21-1.84-3.53.06-7.13.21-10.72.55-62.39-32.07-125.31-62.94-191.47-86.47-81.14-27.7-165.44-50.28-250.89-63.43-1.56-.59-3.14-1.14-4.74-1.65-2.45-.78-4.9-1.54-7.36-2.3-3.52-1.09-6.97-2.33-10.44-3.55-9.71-3.41-21.19-6.72-31.58-6.89-9.05-.15-16.18-.33-25.12,1.41-3.83.75-7.65,1.67-11.4,2.77-59.42-4.13-119.06-3.04-178.26,4.7,171.62-33.09,349.14-.24,512.74,54.97Z"/>
          <path class="cls-1" d="M1540.93,386.07c-1.71-1.85-3.51-3.6-5.39-5.26,50.14,26,100.39,51.73,152.12,74.22,80.71,33.37,161.78,65.97,243.13,97.75-100.24-34.34-201.55-67.82-298.29-111.49-27.13-12.78-53.95-26.27-80.67-40-2.98-5.48-6.63-10.61-10.89-15.22Z"/>
          <path class="cls-1" d="M808.24,116.95c141.95-41.4,406.36,6.07,544.9,59.51,86.96,33.47,165.52,84.3,243.77,134.13,108.18,65.79,220.5,124.54,330.02,188.09-111.52-57.38-225.08-112.11-332.52-177.13-80.06-50.82-160.34-103.24-249.54-136.68-127.55-48.92-405.94-99.76-536.59-67.91,0,.02-.03.01-.02,0Z"/>
          <path class="cls-1" d="M1334.12,1074.17c3.93-1.43,7.87-2.84,11.82-4.22,3.09-1.08,6.17-2.16,9.26-3.25,3.85-1.35,7.69-2.76,11.5-4.23,5.5-2.12,10.75-5.06,15.91-7.84,1.63-.88,3.21-1.84,4.8-2.79,5.03-3.01,9.95-6.21,14.89-9.38,14.11-9.08,28.65-17.93,40.2-30.32,3.06-3.29,6.02-6.66,8.86-10.12,12.43-8.48,24.72-17.15,36.86-26.03,87.01-69.2,163.45-150.72,246.42-224.61,23.02-21.25,46.09-42.44,69.21-63.59-24.59,24.77-49.52,49.52-74.33,74.19-77.81,74.78-150.9,155.32-235.77,222.27-99.35,73.25-211.38,129.17-326.96,171.65,56.98-24.45,113.03-51.55,167.32-81.73Z"/>
          <path class="cls-1" d="M1246.63,1243.96c91.64-37.48,179.19-86.86,257.35-147.77,110.37-86.79,202.56-193.32,300.19-293.59,8.52-8.96,17.01-17.96,25.47-26.96-21.56,25.22-43.65,50.23-65.74,75.07-155.9,177.81-286.55,314.39-517.28,393.24Z"/>
          <path class="cls-1" d="M1632.54,776.41c5.09-3.51,10.17-7.05,15.27-10.54-5.76,3.61-11.54,7.27-17.31,10.93.68-.13,1.36-.26,2.04-.39Z"/>
          <path class="cls-1" d="M742.85,172.1c70.15-11.02,141.4-6.67,211.96-2.37,72.34,4.51,144.57,10.82,216.67,18.26,15.08,1.59,30.34,3.17,45.3,4.96-96.6-4.66-193.23-8.89-289.68-16.09-61.21-5.04-123.04-9.94-184.25-4.75Z"/>
          <path class="cls-1" d="M1380.99,577.37c16.27,7.24,34.64,8.71,52.04,11.98,46.32,7.3,92.88,13.2,139.59,17.27,106.5,10.1,213.81,11.73,319.94-3.29,21.53-2.61,43.17-5.74,64.49-9.15-114.42,25.83-232.3,37.5-349.26,25.02-47.36-4.27-94.55-10.82-141.25-19.77-28.52-6.58-59.06-9.49-85.55-22.07Z"/>
          <path class="cls-2" d="M1355.15,498.45c1.16,4.15,2.66,8.2,4.5,12.09-116.82-23.89-230.52-63.21-333.2-123.81,103.17,53.35,214.86,88.46,328.69,111.72Z"/>
          <path class="cls-2" d="M1505.41,526.89c1.4-1.56,2.72-3.17,3.98-4.83,114.35,10.73,229.67,8.18,344.42,12,24.6.61,49.34,1.11,73.85,1.77-23.85.67-47.73,1.22-71.41,1.68-116.02,1.29-232.44,6.37-348.15-4.57-2.62-.27-5.24-.54-7.86-.82,1.8-1.64,3.53-3.39,5.18-5.22Z"/>
          <path class="cls-2" d="M1024.44,466.06c57.44,8.17,112.39,27.71,168.25,42.7,70.74,19.98,142.38,37.13,215.13,47.93,194.06,25.98,390.56,7.76,585.7,12.6,18.42.06,36.83.16,55.25.27-42.21,1.98-84.67,3.61-126.98,5.14-175.07,4.01-351.5,17.3-525.37-8.88-63.55-9.47-126.01-25.02-187.36-43.96-61.68-18.03-121.6-42.91-184.62-55.8Z"/>
          <path class="cls-2" d="M1248.66,638.06c104.83,21.91,213.5,18.01,319.75,9.42,111-9.63,222.01-19.2,333.14-27.26,21-1.57,42.01-3.1,63.02-4.6-27.34,3.44-54.97,6.68-82.43,9.91-100.84,11.61-201.74,22.99-302.87,31.79-110.06,8.47-223.4,9.47-330.6-19.26Z"/>
          <path class="cls-2" d="M1577.48,911.78c160.5-111.64,322.73-221.1,488.7-324.39-158.93,113.77-321.92,222.42-488.7,324.39Z"/>
          <path class="cls-2" d="M1861.59,818.92c54.55-49.7,108.55-102.12,169.4-143.72-21.33,14.16-38.83,34.44-58.8,50.73-36.01,31.95-73.5,62.46-110.6,92.99Z"/>
          <path class="cls-2" d="M2067.42,559.98c-50.07-38.4-100.27-76.74-149.58-116.15,45.09,29.44,131.05,94.35,149.58,116.15Z"/>
          <path class="cls-2" d="M1277.17,207.21c128.66,67.12,254.15,139.9,379.49,212.89,64.47,34.62,130.98,65.31,197.92,94.83,46.09,19.91,92.12,40.79,140.85,53.44,11.04,3.41,22.9,4.7,33.62,8.74-8.4-2.87-17.91-3.25-26.66-5.4-44.4-8.45-86.88-24.15-128.84-40.6-67.06-26.34-133.25-55.14-197.19-88.39-48.8-25.14-95.6-53.85-142.28-82.68-85.7-50.78-171.52-101.67-256.92-152.82Z"/>
          <path class="cls-2" d="M1193.73,1192.44c33.99-5.49,65.44-21.61,96.5-35.81,46.44-22.42,90.97-48.58,134.87-75.59,139.51-85.15,226.51-165.52,317.72-301.16,21.89-30.43,43.76-60.88,65.43-91.47-18.74,29.19-38.02,58.3-57.3,87.23-36.86,55.41-73.23,111.7-120.51,159-58.19,61.01-127.47,110.27-199.51,153.57-46.34,27.41-93.66,53.44-143.18,74.66-30.27,12.3-61.34,26.23-94.02,29.56Z"/>
          <path class="cls-2" d="M813.67,164.04c78.02-9.84,157.29,1.78,235.12,9.22,107.63,11.98,214.66,34.46,316.24,72.44,150.1,58.17,281.8,152.94,423.3,228.13,77.93,42.94,155.52,86.48,233.12,130-98.07-48.7-195.84-98.69-292.36-150.6-131.21-73.45-256.77-160.56-400.27-209.04-93.15-31.48-190.24-49.68-287.54-62.63-75.33-8.87-151.68-23.11-227.6-17.53Z"/>
          <path class="cls-2" d="M182.75,816.4c199.13-172,516.33-278.63,778.88-270.35,165.3,3.93,321.72,63.64,481.72,98.69,145.88,32.12,296.11,36.5,444.14,54.05-158.45-10.34-319.53-11.01-474.39-50.04-155.1-36.24-308.01-91.76-469-92.7-254.71-4.16-560.54,104.59-761.34,260.36Z"/>
          <path class="cls-2" d="M344.44,831.95c143.78-151.16,359.03-228.33,566.1-216.71,59.86,3.32,119.39,13.03,176.66,30.92,70.86,22.95,139.59,52.68,212.49,69.06,73.43,18.16,149.03,22.94,224.37,18.86,106.24-4.41,212.5-8.04,318.74-12.29-121.77,10.45-243.98,19.95-366.21,24.14-61.57.71-123.11-6.43-182.91-21.06-74.33-16.86-144.14-47.97-216.72-70.47-54.43-16.55-110.89-25.4-167.64-28.61-204.84-11.27-415.77,65.15-564.89,206.17,0,0,0,0,0-.02Z"/>
          <path class="cls-2" d="M179.52,691.51c58.08-69.68,137.2-119.33,215.43-163.69,144.61-80.68,311.05-123.03,476.83-112.65,56.77,3.53,113.5,13.73,166.89,33.61,80.21,31.15,154.37,76.11,236.16,103.54,84.34,30.16,173.28,46.45,262.6,51.56,104.35,7.07,208.84,14.9,313.07,22.36-194.25-9.08-395.45,3.31-580.98-64.34-78.62-26.38-150.11-69.09-226.85-99.88-55.06-21.96-114.13-32.62-173.1-36.35-164.88-10.61-329.33,32.93-473.56,111.86-77.43,42.43-156.38,88.45-216.49,153.99Z"/>
          <path class="cls-2" d="M169.32,802.96c18.07-82.01,86.73-141.25,153.7-186.02,163.55-104.48,372.94-150.64,565.57-152.52,88.82.11,177.62,12.16,263.41,35.1,69.46,18.49,135.21,48.18,203.48,70.38,123.65,44.01,256.53,47.4,385.7,62.2-122.97-8.2-249.44-6.95-367.78-45.08-70.53-21.43-137.96-51.97-208.69-72.73-93.48-26.68-190.87-40.4-288.12-39.19-178.31,3.01-358.82,43.75-515.91,129.44-79.51,45.75-165.58,105.66-191.36,198.41Z"/>
          <path class="cls-2" d="M249.66,873.33c12.84-26.43,36.24-46.9,56.89-67.44,31.47-29.55,65.8-55.94,101.32-80.42,155.38-102.24,342.36-171.11,530.28-159.95,124.9,8.31,244.87,46.51,364.85,79.53,108.95,30.3,222.31,47.15,335.42,36.61,110.9-14.94,219.88-42.67,329.67-64.23-107.08,26.74-214.27,56.9-323.48,73.82-121.87,13.37-244.17-7.09-361.33-40.37-114.09-32.13-228.76-66.95-347.65-74.89-175.09-11.06-346.96,51.35-496.08,139.05-42.74,26.07-84.03,54.6-122.42,86.78-24.21,21.66-51.45,43.02-67.46,71.51Z"/>
          <path class="cls-2" d="M1640.25,558.27c116.03,4.64,231.98,10.98,347.73,20.21,30.21,2.21,60.46,4.12,90.75,4.65,23.01-.11,47.08,1.11,69.34-5.08,0,0,0-.01-.01-.02-22.36,7.99-48.53,7.91-72.54,9.21-30.37.88-60.78.13-91.13-1.23-114.94-5.64-229.74-16.4-344.14-27.76Z"/>
          <path class="cls-2" d="M1901.79,589.67c55.89-3.39,111.91-4.23,167.9-3.24-55.76,3.66-112.06,4.93-167.9,3.24Z"/>
          <path class="cls-2" d="M1645.49,702.37c87.65-28.31,175.79-55.02,264.6-79.39,65.07-17.29,130.21-36.76,197.63-42.06,3.49-.13,7.16-.53,10.53-.28-5.95.25-11.91,1.13-17.81,1.99-50.38,7.92-99.31,22.42-148.14,36.8-101.7,29.6-204.44,56.13-306.82,82.94Z"/>
          <path class="cls-2" d="M1676.92,775.69c107.83-57.59,215.87-115.56,328.12-164.14-5.01,1.02-10.02,2.01-15.05,2.88,7.64-1.94,15.54-3.94,23.21-6.09,3.64-.79,25.99-11.29,25.78-6.54-1.85,3.58-8.99,3.34-12.44,5.36-14.73,5.89-29.03,12.74-43.34,19.58-101.05,51.69-203.54,100.93-306.28,148.94Z"/>
          <path class="cls-2" d="M1837.42,783.95c67.05-51.25,135.5-100.69,205.86-147.3,19.57-13.03,39.36-25.9,60.62-36.03,2.8-1.32,5.74-2.82,8.63-3.71-6.94,3.09-13.44,7.23-19.95,11.08-19.93,12.35-38.7,26.41-57.72,40.09-64.66,46.89-131.18,91.43-197.43,135.88Z"/>
          <path class="cls-2" d="M2173.39,585.29c-113.2-69.31-228.24-135.54-345.77-197.26,112.62,69.51,226.3,138.45,344.22,198.92.51-.57,1.03-1.12,1.56-1.66Z"/>
          <path class="cls-2" d="M1747.22,396.76c98.14,48.82,195.17,99.97,289.81,155.3,30.93,17.85,61.55,36.64,88.92,59.69,2.1,1.81,4.38,3.59,6.3,5.48-2.19-1.75-4.48-3.38-6.75-5.04-38.58-28.03-81.64-48.78-123.49-71.35-86.07-45.92-170.56-95.07-254.8-144.09Z"/>
          <path class="cls-2" d="M1892.79,802.59c70.44-56.09,142.6-110.35,218.29-159.16,3.34-2.05,6.82-3.9,10.27-5.75-5.06,3.28-10.25,6.71-15.23,10.24-69.89,53.18-141.18,104.74-213.33,154.67Z"/>
          <path class="cls-2" d="M2166.54,593.63c-13.08-5.68-26.33-10.96-39.72-15.51,12.73,5.98,25.7,11.57,38.77,16.85.31-.45.63-.9.95-1.35Z"/>
          <path class="cls-2" d="M2113.68,662.02c-4.02,2.55-8.02,5.15-11.95,7.84,3.86-2.24,7.76-4.43,11.67-6.6.08-.41.16-.83.28-1.24Z"/>
          <path class="cls-2" d="M1796.62,928.15c98.16-76.5,196.37-153.79,301.84-220.06,2.89-1.73,5.75-3.54,8.72-5.13-4.57,3.03-9.21,6.28-13.78,9.42-98.5,72.44-195.79,146.86-296.78,215.76Z"/>
          <path class="cls-2" d="M1937.07,733.73c15.04-13.22,31.11-25.23,47.38-36.89-15.23,12.9-31.28,25.15-47.38,36.89Z"/>
          <path class="cls-2" d="M1727.89,940.75c67.47-68.96,136.36-136.56,207.74-201.48,25.04-22.27,48.92-46.19,76.58-65.24,3.19-2.05,6.4-4.33,10.07-5.39-5.12,2.11-9.56,6-14.06,9.32-36.02,30.91-68.36,65.86-102.97,98.32-58.15,55.82-117.84,110.24-177.36,164.48Z"/>
          <path class="cls-2" d="M1300.11,1196.95c95.05-42.11,187.75-89.38,281.72-133.85,41.57-21.05,88.81-35.99,119.62-72.84,4.18-4.38,7.72-9.54,11.85-13.81-4.2,5.27-7.96,10.88-12.26,16.08-36.27,45.35-94.36,63.41-143.64,90.76-84.08,41.53-169.51,80.62-257.29,113.7,0,0,0-.02,0-.03Z"/>
          <path class="cls-2" d="M813.24,339.28c-1.59-6.61,28.24-3.49,32.85-3.45,35.48,2.82,70.3,10.72,104.98,18.39,100.01,22.96,198.22,53.1,295.68,85.06,64.38,20.7,127.76,44.56,192.96,62.68,93.5,24.77,188.82,41.97,283.05,63.72,6.13,1.35,12.27,2.7,18.4,4.05-40.14-6.63-80.44-13.7-120.56-20.85-67.38-12.49-135.34-22.88-201.32-41.77-130.81-40.71-259.84-87.11-391.71-124.55-40.26-11.86-80.69-23.2-121.49-33.06-19.78-4.93-39.74-9.13-59.96-11.8-10.8-.71-22.49-3.89-32.83.05-.11.19-.22.38-.32.57-.02.34.26.71.28.97Z"/>
          <path class="cls-2" d="M841.54,417.27c12.03-4.26,25.72-1.33,38.28-1.08,20.78,1.7,41.49,4.04,62.17,6.61,67.61,8.68,134.74,20.76,201.65,33.72,164.49,35.94,330.24,65.4,495.62,96.89,15.54,3.01,31.23,5.96,46.68,9.02-168.55-23.9-337.03-49.15-503.13-86.84-75.62-15.99-151.31-31.77-227.37-45.55-25.05-4.34-50.16-8.33-75.35-11.77-12.62-.95-26.3-4.5-38.54-1Z"/>
          <path class="cls-2" d="M1652.61,462.42c-100.57-49.64-198.08-105.63-300.8-150.77-62.27-26.8-126.45-49.15-191.53-68.05-97.22-25.83-198.25-52.14-299.55-43.79-.01,0-.02.02,0,.03,0,0,0,0,0,0,56.27-3.07,112.52,8.38,167.37,19.94,13.84,3.15,27.63,6.48,41.39,9.92,3.43.68,6.87,1.35,10.3,2.08,2.04.43,3.98,1.13,5.79,2.01,46.79,12.11,93.15,25.86,138.98,41.2,160.69,51.25,304.56,141.32,458.14,209.37,39.41,18.44,79.01,36.84,118.57,54.77-49.5-25.67-99.02-51.3-148.64-76.71Z"/>
          <path class="cls-2" d="M1222.51,1133.4c33.49-16.18,67.62-31.3,100.24-49.26,60.17-33.63,115.74-74.87,172.5-113.79-.06.05-.13.09-.19.13-.04.03-.08.06-.12.09,111.92-77.45,215.74-165.58,323.75-248.24-115.82,97.59-229.36,199.12-356.58,282.06-74.59,52.38-154.29,96.97-239.6,129Z"/>
          <path class="cls-2" d="M1466.83,1202.57c130.95-120.27,269.91-232.22,396.37-357.18,52.48-54.87,92.48-119.23,145.02-173.77,7.04-6.11,13.85-13.84,22.36-17.46-7,3.39-12.57,9.78-18.19,15.14-52.9,58.13-92.01,127.53-145.82,185.05-32.08,35.19-67.69,66.86-103.58,98.07-97.14,85.18-195.88,168.86-296.15,250.16Z"/>
          <path class="cls-2" d="M872.53,78.8c50.25-9.79,102.27-5.11,152.71,1.17,63.22,8.56,125.67,22.42,187.11,39.53,170.3,47.6,334.95,116.6,484.44,211.5,103.95,67.23,206.81,136.43,308.17,207.4-118.51-73.4-235.52-149.25-353.93-222.77-143.87-85.51-300.4-147.73-461.78-191.29-57.47-15.63-115.53-29.53-174.34-39.06-46.89-7.16-95.22-13.1-142.37-6.47Z"/>
          <path class="cls-2" d="M746.56,348.1c49.52-25.81,143.82-19.85,199.4-14.4,125.07,11.26,237.29,70.45,346.66,127.73,35.63,18.32,71.09,36.95,106.39,55.9-26.71-12.49-53.6-25.15-80.39-37.65-124.39-58.01-248.39-124.85-387.12-139.27-51.86-5.6-137.77-13.89-184.93,7.69Z"/>
          <path class="cls-2" d="M739.54,350c-.6-1.19,1.28-1.9,2.09-2.35,9.9-4.07,20.65-5.58,31.15-7.41,28.7-4.6,57.85-5.8,86.88-5.39,100.8,2.05,200.86,22.55,295.62,56.56,118.8,39.98,222.62,113.49,340.35,155.57,106.36,40.91,212.35,82.78,318.82,123.41-113.75-36.86-226.64-77.13-338.56-119.4-109.52-41.14-206.98-109.08-317.93-147.09-95.1-34.4-195.03-56.49-296-63.23-28.76-1.57-57.66-1.84-86.35,1.08-11.51,2.36-27.33.91-36.07,8.26Z"/>
          <path class="cls-2" d="M1925.27,421.79c-27.77,19.8-54.94,40.55-81.65,61.7,28.35-18.98,56.34-38.82,83.71-59.4-.74-.71-1.43-1.48-2.06-2.3Z"/>
          <path class="cls-2" d="M1405.06,1172.09c104.82-96.67,212.23-190.52,317.09-287.07,63.48-59.88,117.51-130.59,177.08-193.18-.03,0-.05,0-.08,0-.15.09-.3.19-.46.29h0c-52.28,61.68-100.15,127.42-156.67,185.5-106.33,104.6-223.25,198.21-336.96,294.46Z"/>
          <path class="cls-2" d="M1313.03,1278.51c141.61-118.61,288.03-231.34,429.58-349.98,71.13-60.71,147.29-132.99,210.33-194.03-188.4,208.78-417.17,374.52-639.9,544.01Z"/>
          <path class="cls-2" d="M1532.79,1206.63c63.19-52.82,129.33-101.9,194.53-152.14,0,0,0,0,0,0-60.21,55.05-127.83,104.5-194.52,152.14Z"/>
          <path class="cls-2" d="M889.27,46.74c88.28-10.05,179.37-4.52,268.33-.35-89.13,2.93-179.16-1.1-268,.58,0,.05-.01.1-.02.15.02.07.04.14.07.22,1.12.86,2.91,1.26,3.83,2.28-1.09-1.15-4.38-.98-4.21-2.87Z"/>
          <path class="cls-2" d="M1232.3,346.02c49.03,5.91,97.73,22.36,143.68,40.29-32.53-10.77-65.93-18.68-98.73-28.56-14.95-3.68-29.57-10.63-44.96-11.7,0,0,0-.02,0-.03Z"/>
          <path class="cls-2" d="M957.45,176.27c61-10.45,123.99-3.59,185.01,4.1,126.74,17.76,249.83,58.44,363.69,116.62,121.98,58.26,226.84,151.12,357.61,190.35,83.21,24.92,167,48.45,250.27,72.89-93.72-16.35-187.7-32.25-280.35-53.97-142.83-39.29-261.38-134.65-394.92-195.8-92.81-46.09-190.21-83.18-290.82-108.21-62.27-14.22-126.33-28.99-190.49-25.95,0,0,0-.02,0-.03Z"/>
          <path class="cls-2" d="M215.05,604.59c-.06-.55.61-.91.99-1.26-.2.33-.77.63-.85,1.11.06.03.13.06.19.09,194.62-139.32,435.55-234.68,678.07-205.94,191.02,30.01,357.66,137.26,541.7,190.51,118.26,34,243.75,42.58,365.5,24.72,65.97-10.83,129.75-33.29,192.56-55.39-61.23,28.32-123.56,56.39-189.12,72.99-112.25,26.32-230.12,29.26-343.45,8-152.58-28.36-291.94-100.04-437.54-150.81-54.12-18.6-109.17-36.14-166.14-43.26-55.75-6.93-112.2-5.23-168.08-.77-168.29,13.86-328.31,77.73-473.84,160Z"/>
          <path class="cls-2" d="M387.48,791.92c103.93-77.47,257.09-111.39,383.72-131.9,110.05-15.78,221.64-18.6,332.55-11.97,153,10.95,304.02,42.36,456.27,59.15,178.74,18.9,326.24-43.75,483.56-118.73,19.88-9.32,39.77-19,59.19-29.03-104.92,64.02-212.02,128.78-330.13,165.26-175.83,54.73-359.53,10.14-537.58-8.46-216.92-31.49-440.12-39.09-655.55,6.85-65.99,15.32-134.39,32.23-192.03,68.83Z"/>
          <path class="cls-2" d="M1315.67,1219.09s0-.01.01-.02c0,0,.02,0,.02,0,139.12-55.23,261.67-145.13,378.64-237.08,115.72-99.51,224.9-206.54,341.44-305.23,18.92-16.4,37.96-32.92,56.95-49.1-117.26,123.22-233.48,248.02-358.79,363.09-123.91,99.54-263.42,187.81-418.27,228.32Z"/>
          <path class="cls-2" d="M766.62,6.5c50.49-11.49,103.26-5.36,154.22.16,129.48,14.71,257.59,39.76,384.16,70.5,10.8,2.67,21.74,5.33,32.41,8.15-131.91-15.59-264.03-30.93-394.42-56.71-58.09-10.67-116.98-26.56-176.38-22.09Z"/>
          <path class="cls-2" d="M1363.25,1333.2c109.4-76.46,217.52-154.95,330.9-225.5,51.77-31.55,104.82-62.68,144.82-108.94-34.86,51.98-85.31,89.04-136.03,124.23-108.35,77.49-222.4,147.38-339.68,210.21Z"/>
          <path class="cls-2" d="M991.54,722.26c104.93-3.96,210.58,8.6,313.62,28.23-105.14-3.97-209.59-14.69-313.62-28.23Z"/>
          <path class="cls-2" d="M1125.11,329.18c71.82,17.73,141.48,43.48,208.61,74.37-71.26-19.07-140.6-45.91-208.61-74.37Z"/>
          <path class="cls-2" d="M396.03,338c72.05-31.1,146.34-60.85,223.89-74.42-74.17,25.66-147.91,53.98-223.89,74.42Z"/>
          <path class="cls-2" d="M368.85,983.87c61.37-69.12,135.27-127.59,210.56-180.87-67.57,63.21-139.7,121.65-210.56,180.89,0,0,0,0,0-.02Z"/>
          <path class="cls-8" d="M1188.46,564.58c134.31,18.21,269.33,31.37,402.51,57.28-135.45-5.92-272.36-17.27-402.51-57.28Z"/>
          <path class="cls-5" d="M970.13,511.64c88.56-19.69,179.31-4.32,266.29,16.03,116.27,20.8,228.11,60.41,344.07,82.42,111.33,16.37,224.37-4.16,332.7-29.98,11.48-2.89,23.22-5.87,34.05-10.46-6.68,4.24-13.92,7.54-21.13,10.77-303.06,127.33-414.48,68.03-708.08-20.35-79.79-27.52-162.66-52.24-247.89-48.43Z"/>
          <path class="cls-5" d="M777.1,608.79c-13.99-30.51,4.03-67.92,34.33-80.22,39.81-17.21,82.22-27.63,124.89-34.87,157.78-27.23,316.29,7.42,471.96,32.4,117.72,19.82,237.41,19.91,356.21,11.11,20.62-2.01,42.65-3.95,61.4,6.68,23.41,12.7,30.96,43.12,24.29,67.59,23.28-13.15,45.32-26.78,68.26-40.2,1.2-.68,8.28-5.38,8.67-3.01.09.49.26.93.53,1.34-.45-.33-.59-1.14-.86-1.68-9.82,3.98-17.89,12.35-26.67,18.37-18.43,13.72-36.86,27.42-55.78,40.48-8.53,16.18-21.88,28.35-37.24,37.93-72.11,42.78-157.65,54.94-240.17,58.51-84.61,16.4-170.78,10.98-255.6-.7-77.3-8.8-154.92-15.93-231.57-29.55-76.47-16.29-153.66-28.99-229.83-46.7-26.15-7.16-59.99-9.73-72.81-37.48Z"/>
          <path class="cls-5" d="M486.61,692.47c192.98-115.18,573.36-128,801.23-141.65,10.12-.42,20.23-.81,30.35-1.18-30.57,6.2-61.42,12.1-92.13,17.99-159.3,30.75-319.66,55.65-481.07,72.18-53.93,6.52-107.77,14.06-161.08,24.63-33.75,8.37-70.87,13.51-100.69,31.75-.82,0,3.18-3.73,3.38-3.72Z"/>
          <path class="cls-5" d="M568.71,709.91c78.05-32.74,163.5-44.82,246.8-57.22,194.77-28.1,391.75-37.17,588.37-38.73-100.15,24-352.54,54.93-505.7,66.78-109.61,9.35-221.81,5.43-329.47,29.17Z"/>
          <path class="cls-5" d="M475.14,632.82c79.03-47.21,173.22-58.94,261.94-77.73,203.78-40.35,410.88-61.66,618.23-72.16,21.2-1,42.57-1.93,63.69-2.56-208.42,40.31-416.99,81.98-628.23,104.7-104.73,15.01-215.77,10.08-315.62,47.75Z"/>
          <path class="cls-5" d="M2091.13,749.38c1.63.25,1.56.6,0,.03h0s0,0,0,0c-.01,0,0-.03,0-.03Z"/>
          <path class="cls-5" d="M1422.56,758.31c125.85-47.86,251.81-96.21,381.41-133.07,64.9-21.2,142.02-29.28,195.28-74.61-62.35,86.99-458.99,183.42-576.69,207.69Z"/>
          <path class="cls-5" d="M1811.69,659.3c-141.53,24.46-280.48,60.66-418.94,99.01,7.16,1.07,14.31,2.17,21.44,3.41,1.54.27,2.95.69,4.25,1.22,131.27-17.29,262.03-40.13,390.3-73.13,75.71-20.52,155.41-36.94,222.67-78.84-69.43,28.42-146.31,34.39-219.71,48.33Z"/>
          <path class="cls-5" d="M1371.15,512.96c133.36-5.37,267.09-9.13,400.42-1.22,80.14,3.03,160.14,16.91,240.2,16.4,0,0-.01,0-.01,0-50.07,10.81-102.08,10.23-153.1,12.08-162.91,5.08-325.99-7.22-487.5-27.26Z"/>
          <path class="cls-5" d="M663.32,143.01c146.08-68.24,667,80.82,836.89,130.62,14.85,4.52,29.82,9.06,44.53,13.76-212.42-29.83-424.88-62.44-632.9-115.6-67.25-15.09-183.41-47.98-248.52-28.77Z"/>
          <path class="cls-2" d="M358.8,636.78c40.07-26.78,89.74-36.37,135.63-49.43,386.4-93.57,787.38-28.45,1176.67,12.81,27.7,3.47,55.4,7.06,83.07,10.74-56.31,1.31-112.86,2.15-169.26,2.7-270.32,5.18-540.27-9.33-810.34-17.07-81.67-1.29-163.39,1.83-244.77,8.75-57.06,7.07-117.85,8.37-170.99,31.51Z"/>
          <path class="cls-2" d="M654.48,642.75c121.26-17.37,243.97-13.49,366.1-14.93,253.94-8.48,508.02-3.09,761.65,11.45-248.4,24.07-498.68,44.34-748.46,34.81-126.75-6.17-252.41-28.22-379.29-31.32Z"/>
          <path class="cls-2" d="M1600.33,633.64c133.05-33.33,268.96-55.47,405.74-64.43-132.44,35.83-268.95,55.74-405.74,64.43Z"/>
          <path class="cls-2" d="M1608.79,512.21c17.76,1.11,35.5,2.36,53.24,3.78-.17-.01-.34-.03-.51-.04,121.06,10.57,245.1,24.7,360.2,63.14-51.22-8.7-103.69-10.64-155.26-17.65-86.83-10.71-172.67-29.08-257.66-49.23Z"/>
          <path class="cls-2" d="M1671.09,722.83c123.17-49.6,250.21-97.82,381.89-116.87-.01,0-.02-.02-.04-.03-50.25,14.41-98.03,36.56-147.85,52.5-76.59,25.96-155.48,45.95-234.01,64.4Z"/>
          <path class="cls-2" d="M782.81,456.01s.04.02.02.02c91.17,7.74,184.59,1.83,276.37,9.81,169.67,9.42,338.1,34.48,505.19,64.7-261.26-4.99-526.5-18.38-781.59-74.53Z"/>
          <path class="cls-2" d="M1280.84,696.93c167.05-9.26,337.65-9.37,502.36,17.37.01-.01.02-.03.03-.04-123.14,3.35-247.08,7.85-370.12-4.41.37.03.72.06,1.1.09-.22-.02-.43-.03-.65-.05-.01,0-.03,0-.04,0,0,0,0,0,0,0-44.27-3.56-88.65-7.9-132.68-12.95Z"/>
          <path class="cls-2" d="M1544.29,579.38c119.53.97,239.47,10.84,356.39,35.8-119.66-.58-239.08-12.55-356.39-35.8Z"/>
          <path class="cls-2" d="M686,534.28c169.47-32.61,342.18-42.91,514.42-40.46-169.91,28.7-342.15,41.98-514.42,40.46Z"/>
          <path class="cls-2" d="M1201.47,373.08c192.5,28.57,384.66,62.55,571.93,116.21,54.74,15.21,109.03,31.96,163.5,48.1,14.56,3.04,29.93,10.02,44.74,6.93-11.15,5.03-24.46,2.28-36.34,1.71-24.73-2.29-49.27-6.11-73.82-9.83-227.85-33.56-451.29-91.89-670.01-163.11Z"/>
          <path class="cls-2" d="M925.36,134.61c297.85,108.9,599.09,225.69,862.47,404.8-118.66-57.57-244.57-100.2-365.13-154-170.06-74.65-334.73-161.42-497.33-250.8Z"/>
          <path class="cls-2" d="M1392.84,1194.26c108.96-105.99,214.74-215.44,329.1-315.71,57.2-51.15,124.03-98.43,157.04-169.09,0,0,0,0,0,0-20.17,67.79-69.74,119.51-118.73,168.21-112.99,115.83-236.49,221.72-367.42,316.59Z"/>
          <path class="cls-2" d="M1291.12,1287.38c117.74-135.91,234.63-272.83,360.05-401.78,86.46-87.84,177.98-171.7,246.97-274.67-35.16,70.75-78.31,137.62-129.93,197.63-146.04,172.03-307.22,330.68-477.09,478.82Z"/>
          <path class="cls-2" d="M1218.96,1309.04c152.97-131.01,308.27-259.26,466.4-383.99,27.85-22.76,54.29-47.15,80.11-72.18,91.38-87.31,157.8-197.79,252.83-281.31,6.62-5.11,13.24-11.34,20.72-14.66-3.88,2.39-7,5.99-10.34,9.13-85.39,94.69-139,213.62-225.47,307.73-39.11,44.85-82.82,85.57-130.11,121.68-146.8,110.92-298.51,215.64-454.15,313.6Z"/>
          <path class="cls-2" d="M1337.06,1351.23c162.43-163.63,326.37-325.92,499.74-478.03,61.83-57.7,115.35-123.66,161.97-194.14,14.44-21.74,29.68-43.05,43.26-65.32-3.34,9.21-8.24,18.06-12.3,27.05-45.13,96.36-100.24,190.98-174.92,267.26-160.22,161.26-337.07,305.74-517.75,443.17Z"/>
          <path class="cls-2" d="M689.11,21.02c44.96-13.31,92.96-11.83,139.39-10.17,48.35,2.23,96.47,8.36,143.95,17.7,294.65,57.36,550.73,224.21,817.15,354,113.84,59.57,226.79,120.86,339.02,183.4-280.81-105.99-562.12-214.48-827.97-354.86-136.81-70.49-278.86-133.51-428.91-169.69-59.78-12.27-121.34-27.47-182.63-20.35,0,0,0-.02,0-.03Z"/>
          <path class="cls-13" d="M2116.91,656c3.28-3.92,6.62-7.78,9.97-11.65,4.22-6.19,8.43-12.38,12.66-18.56,5.03-9.72,20.34-21.63,17.38-32.97,5.31-6.82,17.78-17.26,10.37-26.2-18.81-9.06-39.37-14.72-58.93-22.17-3.16-1.11-6.31-2.21-9.48-3.29-118.4-68.98-239.37-133.19-361.2-195.92-55.1-30.58-111.4-59.27-170.18-82.12,9.99,4.51,19.89,9.22,29.7,14.07-34.99-12.3-101.89-8.29-46.6,38.04,49.94,39.63,110.83,61.91,166.32,92.31-38.35,8.1-79.38,4.77-116.25,19.25-21.2,8.8-23.78,31.5-4.11,43.91,33.37,20.89,73.22,28.4,110.1,41.15-67.84,9.8-136.89,4.33-205.12,10.08-49.71,3.93-99.67,8.3-148.72,17.4-9.95,2.45-20.97,4.86-28.22,12.62-8.94,10.44,1.96,21.21,12.12,24.68,142.71,49.03,315.16,19.86,463.48,12.62-45.41,25.42-110.71,48.01-141.67,90.59-12.84,18.4-6.68,40.06,16.48,44.2,57.61,8.72,126.03-23.61,181.73-38.09-43.45,47.26-92.83,88.93-128.72,142.89-16.67,26.29-60.18,85.42-36.39,114.77,52.34,40.27,215.49-145.08,254.99-182.56-16.76,31.26-34.12,63.52-40.07,98.84-5.57,46.03,25.65,45.97,52.37,18.25,40.37-39.54,69.35-88.69,101.16-134.98,17.72-26.24,35.39-52.5,53.16-78.71.32-2.9,1.46-5.79,3.69-8.45ZM2126.68,567.29c-13.1-7.74-26.33-15.19-39.6-22.64,9.07,2.7,18.11,5.48,27.13,8.33,4.29,2.19,8.59,4.37,12.89,6.54,6.84,3.41,14.04,6.88,20.68,10.25-5.18-3.2-10.56-6.09-15.83-9.17-2.41-1.43-4.84-2.86-7.26-4.28,9.72,3.11,19.42,6.27,29.12,9.45,3.77,1.37,7.98,2.11,11.33,4.38,3.83,6.32-5.88,14.72-9.4,19.95-6.56-10.62-18.92-16.12-29.07-22.8Z"/>
          <path class="cls-2" d="M1858.45,808.14c73.43-64.04,150.88-123.44,234.1-174.23-1.84.63-3.81,1.51-5.46,2.21,3.37-2.05,6.72-4.39,10.31-5.96,3.71.58-2.17,5.15-3.27,6.2-72.91,64.97-152.41,121.48-235.68,171.78Z"/>
          <path class="cls-2" d="M1927.75,740.96c49.8-52.88,103.32-102.67,161.87-145.42-49.41,53.23-103.64,102.09-161.87,145.42Z"/>
          <path class="cls-2" d="M1700.1,886.49c113.25-124.23,235.41-240.63,369.35-342.19-112.77,124.62-236.79,238.97-369.35,342.19Z"/>
          <path class="cls-2" d="M2154.03,612.31c1.32-1.95,2.67-3.87,4.01-5.8.12-.19.23-.38.35-.57-131.23,113.9-247.25,244.08-355.11,380.07,111.07-99.94,214.58-209.23,310.34-323.81.57-2.13,1.64-4.23,3.29-6.2,3.76-4.48,7.58-8.91,11.41-13.33.52-.6,1.07-1.16,1.64-1.69,1.26-1.97,3-3.46,4.99-4.54,5.59-6.82,11.14-13.66,16.68-20.51.8-1.21,1.58-2.43,2.39-3.63Z"/>
          <path class="cls-2" d="M1843.47,1014.81c90.09-104,188.99-200.69,294.07-289.03-86.97,106.72-187.68,201.95-294.07,289.03Z"/>
          <path class="cls-2" d="M1100.55,1155.61c70.34-33.64,143.72-61.68,219.49-80.01-70.57,33.37-144.09,59.86-219.49,80.04,0,0,0-.02,0-.02Z"/>
          <path class="cls-2" d="M1367.96,1374.11c35.85-31.11,74.49-59.05,114.64-84.15-35.05,31.97-73.31,60.92-114.64,84.15Z"/>
          <path class="cls-2" d="M1589.83,1240.56c20.23-24.38,42.04-48.04,66.62-67.9-20.46,24.24-42.42,47.44-66.62,67.9Z"/>
          <path class="cls-2" d="M357.07,838.78c61.13-59.55,132.85-112,208.81-152.23-68.55,51.5-135.86,105.29-208.17,151.63.89-.27,1.81-.91,2.62-1.16-1,.45-2.22,2.07-3.25,1.76Z"/>
          <path class="cls-2" d="M286.38,728.23c95.15-85.79,208.01-151.21,321.26-210.26-64.25,45.64-128.34,92.07-195.44,133.62-41.17,26.73-86.1,47.91-125.82,76.64Z"/>
          <path class="cls-2" d="M330.79,588.95c94.9-61.35,200.58-106.6,307.67-142.37-57.7,29.06-114.93,59.6-173.96,86.08-43.65,20.74-90.36,35.45-133.71,56.29Z"/>
          <path class="cls-8" d="M1293.26,1265.84c221.98-194.11,432.97-401.63,664.22-585.1-197.74,220.41-406.82,434.56-664.22,585.1Z"/>
          <path class="cls-8" d="M809.9,23.57c42.03-24.68,150.58,3.4,199.63,11.67,130.64,29.19,262.02,59.7,386.75,109.09,124.89,52.18,245.04,115.54,363.88,180.18.04.01.01.08-.03.07-189.22-64.71-375.52-137.54-567.42-194.21-98.5-31.2-195.08-68.2-294.1-97.74-28.26-4.77-61.09-20.48-88.69-9-.01,0-.02-.03-.01-.05Z"/>
          <path class="cls-8" d="M393.13,877.77c69.04-59.34,153.67-100.29,236.94-136.22-75.81,50.4-157.83,92.06-236.94,136.22Z"/>
          <path class="cls-8" d="M683.83,768.2c114.39-37.14,238.12-43.47,357.85-44.4-63.36,10.68-127.29,22.1-191.36,29.25-55.24,7.46-111.67,5.35-166.5,15.23-.02-.01-.02-.06,0-.07Z"/>
          <path class="cls-8" d="M2173.11,585.58c-156.91-72.68-332.03-130-502.95-171.15,160.8,72.63,328.04,132.59,499.55,175.02,1.08-1.34,2.21-2.64,3.4-3.88Z"/>
          <path class="cls-8" d="M2152.14,615.17c-168.49-25.49-343.11-21.22-512.85-6.52,115.73,8.02,232.16,17.05,348.44,16.13,53.61.41,107.17-3.62,160.75-4.07,1.21-1.86,2.43-3.7,3.66-5.54Z"/>
          <path class="cls-8" d="M1864.19,862.89c84.61-70.16,177.89-130.29,276.19-179.28,0-.01.01-.02.02-.04-86.87,65.58-181.41,124.84-276.21,179.32Z"/>
          <path class="cls-4" d="M1664.48,699.46c0,.13.01.23.05.22-.01-.08-.03-.15-.05-.22Z"/>
          <path class="cls-4" d="M1594.94,447.44s0,.02-.02.04v.03s.01-.05.02-.07Z"/>
          <path class="cls-2" d="M2140.87,555.16c8.28,3.12,16.58,6.2,24.9,9.2-41.48-30.03-84.4-58.07-128.79-83.6-31.93-17.98-64.41-34.93-97.08-51.53-5.72.25-11.06-2.83-14.6-7.4-20.43-10.31-40.9-20.52-61.35-30.78-49.36-24.54-98.55-49.43-147.32-75.14-41.81-21.97-83.18-45.05-127.32-62.15-29.35-11.32-59.24-22.2-90.35-27.5,19.12,9.07,37.14,20.28,55.39,30.96,24.75,14.64,49.39,29.49,74.48,43.56,85.52,46.6,172.52,90.44,259.7,133.85,46.83,23.08,92.83,47.8,139.1,71.96,28.07,13.92,56.82,26.45,85.93,38.03,4.66,4.02,9.23,8.16,13.64,12.46,12.89,10.87,1.93,29.23-.66,35.81-9.54,18.94-16.42,26.56-30.23,46.16-17.16,24.05-34.13,48.23-51.84,71.87-51.67,69.1-105.95,136.38-163.81,200.4-53.13,57.83-139.01,132.62-209.41,188.84-60,47.73-122.24,92.6-180.98,141.92-17.99,14.85-35.85,29.83-53.69,44.86,14.01-7.66,27.84-15.63,41.51-23.87,72.45-43.13,138.27-96.09,204.4-148.12,73.4-60.13,146.13-121.84,209.99-192.23,54.63-61.13,106.28-124.95,155.44-190.56,26.28-35.8,53.12-71.38,76.11-109.42,9.99-18.35,22.81-44.33,17.7-65.36-.24-.78-.54-1.51-.87-2.22Z"/>
          <path class="cls-2" d="M2081.78,574.21c-24.69,1.53-49.3,4.15-73.82,7.44-85.15,10.63-167,37.65-250.91,54.63-43.44,9.14-87.45,15.52-131.73,18.69-36.75,2.83-73.63,2.75-110.4,5.28-41.4,2.54-82.56,7.84-123.44,14.78,48.46,4.58,97.06,8.39,145.74,9.47,45.36.3,90.75-2.78,135.76-8.34,66.08-8.49,130.73-25.05,195.32-41.01,51.72-12.51,103.48-24.93,154.34-40.65,22.2-6.68,44.29-13.75,66.42-20.68-2.42.12-4.85.25-7.27.4Z"/>
          <path class="cls-7" d="M1806.66,723.73c-9.8,9.11-19.62,18.2-29.09,27.66-15.75,16.39-38.99,42.99-48.28,56.68,21.21-19.33,42.02-39.15,61.43-60.3,11.52-13.32,24.98-26.29,33.01-42.07-4.54,7.03-10.89,12.04-17.08,18.04Z"/>
          <path class="cls-10" d="M1647.49,883.37c-16.22,15.72-38.96,42.59-47.79,56.34,17.05-16.53,34.18-32.97,51.42-49.3,17.97-17.22,35.67-34.91,49.82-55.49-16.71,17.36-36.05,31.83-53.45,48.45Z"/>
          <path class="cls-9" d="M1590.58,1236.61s-.04-.03-.06-.04"/>
          <path class="cls-10" d="M1433.92,1131.34c-23.42,20.63-44.16,44.07-65.99,66.33,26.73-18.67,50.47-41.07,73.58-63.97,11.74-11.7,24.71-22.19,35.89-34.43-14.28,10.47-30.06,20-43.47,32.06Z"/>
          <path class="cls-10" d="M1900.8,1161.77c.55.2,1.14.3,1.72.32-.55-.19-1.14-.3-1.72-.32Z"/>
          <path class="cls-10" d="M1681.95,985.68c-23.97,19.53-46.11,41.21-67.6,63.39,43.13-30.8,83.73-65.12,121.73-102.03-18.26,12.56-36.94,24.6-54.13,38.64Z"/>
          <path class="cls-10" d="M1915.22,859.28c-26.84,31.23-51.31,64.42-74.65,98.33,23.42-25.78,46.64-51.78,68.51-78.9,19.17-24.22,37.51-49.1,57.7-72.5-18.73,16.12-35.57,34.26-51.56,53.07Z"/>
          <path class="cls-10" d="M1471.1,624.66c.86,1.26,1.88,2.4,3.05,3.37-.84-1.25-1.9-2.46-3.05-3.37Z"/>
          <path class="cls-10" d="M1658.89,516.61c-40.32-14.45-80.27-29.86-120.36-44.92-24.71-9.46-50.34-16.57-74.75-26.74,11.36,8.7,24.24,15.24,36.74,22.13,18.89,9.98,38.16,19.28,58.04,27.12,33.54,13.44,69.21,20.43,104.89,25.32,1.66.23,3.51.49,4.98.66-3.18-1.19-6.36-2.39-9.55-3.57Z"/>
          <path class="cls-10" d="M1441.93,510.23c-14.97-4.57-30.16-8.33-45.39-11.9-11.27-2.78-22.43-6.11-33.86-8.21-15.77-2.92-31.76-4.33-47.75-5.42-9.32-.45-18.73-1.53-28.04-.72,17.72,4.12,35.07,9.99,52.91,13.79,23.24,5.52,46.64,11.13,70.61,12.03,11.71.67,23.41,1.35,35.14,1.51-1.21-.36-2.42-.72-3.63-1.08Z"/>
          <path class="cls-10" d="M1158.51,469.14c-20.64-5.51-45.49-11.55-64.78-13.45,19.17,9.61,39.51,18.09,61.14,19.48,8.94.87,17.94-.44,26.86.01-7.38-3.04-15.53-3.94-23.22-6.04Z"/>
          <path class="cls-12" d="M1828.66,376.48c-61.43-39.08-128.41-68.01-193.75-99.76-55.82-26.41-111.91-52.4-169.26-75.32-25.65-10.09-51.97-18.35-77.94-27.47,33.91,21.32,70.11,39.04,106.98,54.63,31.89,13.63,63.57,27.72,95,42.37,35.24,16.39,70.27,33.23,105.28,50.09,43.46,21.44,87.35,42.07,133.16,58.04,3.53,1.27,7.07,2.53,10.61,3.77-3.35-2.14-6.71-4.26-10.08-6.36Z"/>
          <path class="cls-10" d="M2168.92,590.44c.09-.11.17-.22.26-.33-8.04-3.21-16.04-6.54-24.03-9.88-16.52-6.65-32.91-13.7-49.82-19.29-21.33-6.92-43.11-12.34-64.59-18.77-24.99-7.14-49.69-15.31-74.82-21.95-27.07-7.18-54.45-13.12-81.62-19.9,43.54,22.54,90.51,37.17,137.43,50.85,50.43,14.76,101.18,29.1,152.9,38.59,1.43.24,2.87.46,4.3.68Z"/>
          <path class="cls-7" d="M2107.34,610.37c-24.48,32.49-48.42,65.46-74.57,96.64-12.71,15.21-24.26,26.4-39.4,42.37-18.18,19.59-36.39,39.93-58.79,54.15,24.49-10.19,43.75-28.85,62.59-46.96,43.45-40.78,78.7-89.45,108.84-140.66,3.01-5.14,7.59-12.8,9.54-16.54-2.74,3.66-5.48,7.33-8.21,11Z"/>
          <path class="cls-10" d="M2048.43,565.08c-13.22,1.09-26.43,2.41-39.61,3.88-31.98,3.3-63.76,8.25-95.76,11.33-35.3,3.17-70.75,4-106.11,6.33-32.62,2.03-65.22,4.82-97.91,5.52-39.53.17-79.06.87-118.56,2.36,32.72,6.23,66.07,10.1,99.38,11.05,39.87.19,79.6-3.64,119.37-5.98,39.7-2.49,79.54-3.23,119.07-7.9,30.48-3.23,60.51-9.67,90.08-17.63,10.9-2.91,21.76-5.98,32.58-9.16-.84.07-1.69.14-2.53.21Z"/>
          <path class="cls-11" d="M1794.91,703.24c-46.88,14.81-94.05,29.48-142.74,37.08-53.72,8.85-108.41,10.36-162.71,7.42-76.02-4.07-152.04-18.6-229.36-30.67-74.02-11.71-148.46-20.76-223.09-27.49-167.07-16.19-333.2-9.33-490.01,56.04-36.16,14.83-71.2,32.29-105.21,51.52-17.8,10.14-34.98,21.38-51.44,33.58-11.87,9.03-23.89,18.09-33.92,29.19,15.9-12.73,34.19-22.09,51.73-32.32,21.51-11.85,42.94-23.87,64.66-35.33,181.41-96.03,366.61-108.87,569.72-88.6,71.13,6.57,142.61,15.38,215.28,26.93,74.61,11.67,149.05,25.82,224.56,30.2,53.82,3.13,108.08,2.02,161.4-6.39,49.12-7.38,97.01-21.32,144.07-36.93,31.05-10.76,61.28-24.04,89.74-40.5-27.23,9.78-55.02,17.82-82.68,26.26Z"/>
          <path class="cls-6" d="M1885.39,670.39c-7.42,1.55-14.61,3.98-21.79,6.39-20.06,6.87-30.76,10.67-51.96,17.49-44.73,14.62-90.31,26.6-136.43,35.93-32.64,6.52-65.82,10.32-99.04,12.04-2.53.11-5.06.19-7.6.28,11.16-3.31,22.21-7.01,33.06-11.24-21.66,3.82-43.52,6.4-65.34,9.16-8.07,1.12-16.15,2.16-24.25,3.08-12.41.18-24.82.45-37.22,1.06-16.65.58-33.29,1.53-49.88,3.07-10.1-.34-20.19-1-30.27-2.07-36.63-3.23-79.09-13.08-118.08-21.44-35.59-7.63-71.27-15.14-107.4-19.74-72.46-9.05-141.08-13.59-212.19-24.26-147.41-20.66-224.88-4.08-361.24,49.97-44.29,16.71-88.03,34.94-130.3,56.3-20.24,9.93-39.8,21.24-58.62,33.64-14.83,9.96-29.7,20.27-42.15,33.17,23.54-17.26,50.67-28.87,76.39-42.45,27.27-13.9,54.68-27.54,82.81-39.62,32.49-14.1,65.68-26.52,98.76-39.15,114.8-44.77,196.48-56.46,318.87-40.14,31.64,4.24,63.24,8.74,95,12,43.75,4.72,84.75,8.09,126.66,13.51,37.77,4.76,75.05,12.71,112.25,20.71,36,7.65,71.93,16.19,108.59,20.03,40.57,4.41,81.8,4.4,122.24-1.39,9.44.02,18.89-.1,28.33-.21,31.86-.17,63.71-1.89,95.3-6.14,54.9-7.4,108.85-21.27,161.75-37.52,20.16-6.59,39.67-15.01,58.67-24.41,8.87-4.35,17.57-9.02,26.46-13.32,4.16-1.75,8.19-4.46,12.72-4.96-1.34-.41-2.75.02-4.09.22Z"/>
          <path class="cls-6" d="M1226.7,481.59c-23.17-7.44-46.6-14.27-70.48-19.05-17.97-3.4-36.2-5.11-54.32-7.51-8.89-1.5-18.27-1.64-26.77-4.76,4.46,3.64,10.21,5.35,15.44,7.6,11.42,4.45,23.17,8,35.05,10.96,33.01,8.24,66.97,12.1,100.91,13.81,1.29.07,2.59.13,3.88.19-1.24-.41-2.48-.82-3.72-1.23Z"/>
          <path class="cls-6" d="M1280.83,481.92c24.51,6.47,48.88,13.56,73.82,18.25,51.53,9.57,103.66,15.14,155.9,18.99-74.22-23.69-152.17-33.1-229.72-37.24Z"/>
          <path class="cls-6" d="M1385.25,772.04c.35.25.77.38,1.19.41-.39-.16-.79-.29-1.19-.41Z"/>
          <path class="cls-6" d="M1738.59,551.5c-42.89-18.13-87.07-33.05-129.5-52.3-27.96-12.01-55.24-25.62-83.57-36.72-25.43-9.82-51.77-16.98-77.73-25.21,44.27,25.56,91.39,45.74,137.86,66.88,30.15,13.39,60.33,26.9,91.54,37.69,27.35,9.04,55.51,15.39,83.67,21.36,2.67.55,5.34,1.09,8.01,1.63-10.03-4.57-20.12-9.02-30.27-13.32Z"/>
          <path class="cls-3" d="M1878.11,391.21c-34.55-19.62-73.4-29.47-110.23-43.77-45.6-16.78-89.88-36.86-133.81-57.57-54.97-25.08-106.55-55.41-160.57-81.99-33.76-16.06-69.21-28.33-104.68-40.01,21.59,12.93,43.45,25.42,65.95,36.7,19.7,10.02,39.87,19.06,59.45,29.32,28.16,14.65,55.86,30.17,84.22,44.44,36.43,18.37,73.42,35.63,110.7,52.22,47.77,21.74,97.56,38.35,146.8,56.33,33.06,13.33,64.71,29.89,97.68,43.45,4.45,1.88,8.91,3.75,13.38,5.59-22.32-15.85-45.11-31.11-68.89-44.69Z"/>
          <path class="cls-6" d="M1959.33,801.37c-14.93-10.09-29.49-20.73-44.53-30.67-32.31-22.22-68.64-37.62-105.78-49.75-2.52-.8-5.06-1.58-7.6-2.32.2.1.4.19.59.29,11.21,5.42,22.2,11.26,33.19,17.1,14.52,7.82,29.21,15.36,43.39,23.79,17.35,10.28,34.19,21.37,51.43,31.8,12.4,7.49,24.95,14.79,38.08,20.93,9.62,4.64,19.92,7.82,30.67,7.82-14.78-2.29-27.27-10.87-39.46-19Z"/>
          <path class="cls-6" d="M1616.63,920.73c-15.95,18.07-35.72,37.67-54.21,57.78,22.01-17.79,44.06-35.68,63.41-56.41,28.71-30.99,55.66-65.24,84.07-95.23-34.71,27.5-64.2,60.64-93.27,93.86Z"/>
          <path class="cls-6" d="M1686.36,985.39c-28.73,22.04-67.93,57.4-87.39,77.43,33.05-23.07,65.55-47.18,95.99-73.63,18.97-16.48,35.63-35.32,53.6-52.82-21.49,15.33-41.16,33.07-62.2,49.01Z"/>
          <path class="cls-6" d="M1366.04,1197.65c24.51-18.95,48.22-38.96,71.62-59.25,19.99-18.45,44.97-42.23,62.15-58.36-50.29,32.11-93.57,73.82-133.77,117.61Z"/>
          <path class="cls-6" d="M2168.69,589.85c-25.98-13.65-52.82-25.8-79.94-37.03-22.3-8.93-45.4-15.7-68.63-21.7-46.35-12.37-93.7-20.35-140.56-30.46-25.36-5.28-50.03-13.26-75.08-19.75-28.82-7.03-58.11-11.98-87.5-15.95,6.92,2.62,13.85,5.19,20.81,7.7,40.43,14.41,81.33,27.76,123.04,37.96,43.79,10.3,88.28,17.36,131.99,28.03,28.76,6.62,56.98,15.15,84.94,24.54-5.76.14-11.51.33-17.26.6-38.64,1.75-77.07,6.24-115.58,9.64-53.9,4.25-107.83,8.45-161.8,11.69-64.19,3.5-128.94-1.19-192.71,8.51,32.96,2.12,65.81,6.17,98.88,6.43,59.09.94,118.06-2.88,176.93-7.6,41.4-3.1,82.9-5.55,124.1-10.72,27.46-3.88,54.56-9.94,81.59-16.11,2.47-.58,5.31-1.2,7.8-1.79,3.45,1.16,6.9,2.33,10.34,3.52,25.86,8.73,52.28,15.61,78.67,22.51Z"/>
        </g>
      </g>
    </g>
  </g>
</svg>