<?xml version="1.0" encoding="UTF-8"?>
<svg id="Layer_2" data-name="Layer 2" xmlns="http://www.w3.org/2000/svg" viewBox="0 0 2151.39 1530.36">
  <defs>
    <style>
      .cls-1 {
        fill: #dcf898;
      }

      .cls-1, .cls-2, .cls-3, .cls-4, .cls-5, .cls-6, .cls-7 {
        stroke-width: 0px;
      }

      .cls-2 {
        fill: #c2f742;
      }

      .cls-3 {
        stroke: #c2f742;
      }

      .cls-3, .cls-5 {
        fill: none;
        stroke-linecap: round;
        stroke-linejoin: round;
      }

      .cls-4 {
        fill: #eaffb9;
      }

      .cls-5 {
        stroke: #7c8e50;
      }

      .cls-6 {
        fill: #7c8e50;
      }

      .cls-7 {
        fill: #734b3d;
      }
    </style>
  </defs>
  <g id="Vector_layer" data-name="Vector layer">
    <g>
      <path class="cls-7" d="M542.92,866.45c-.21-.92-.38-1.83-.47-2.73-8.62-38.36-17.05-76.82-29.24-114.53.63-.02,1.25-.03,1.88-.03,3.53,1.19,7.2,2.43,9.56,4.92-1.66-2.27-4.75-3.71-7.88-4.96,17.47-.27,35.31.3,53.24,1.14,4.65,8.05,9.48,16.02,14.22,24.04,16.49,26.87,31.5,54.32,49.82,80.47.22.35.46.69.7,1.04-30.34,3.94-60.72,7.8-91.84,10.65Z"/>
      <path class="cls-7" d="M487.39,870.41c-25.55,1.61-50.99,3.4-76.29,5.4.2-6.36.01-12.76.31-18.9-.07-31.48-1.89-62.94-4.25-94.35,10.4-1.65,20.62-3.54,30.89-5.38,11.68,25.15,23.69,50.59,33.32,76.23,4.52,10.93,8.59,21.98,13.76,32.71.73,1.41,1.47,2.85,2.25,4.29Z"/>
      <path class="cls-7" d="M163.39,799c62.29-5.53,122-14.55,181.12-24.22-61.86,6.92-122.94,13.23-181.12,24.22ZM20.02,815.79c5.72-.5,11.32-1.16,16.82-1.81,13.23-1.62,26.42-3.28,39.63-4.94-18.9-3.49-42.26-5.66-55.13.6-.38.95-.65,1.93-.88,2.91-.22,1.07-.34,2.16-.44,3.25ZM333,882.76c-84.4,7.36-169.46,14.85-259.25,12.85-42.37,2.04-60.83-19.5-66.26-43.56-5.3-17.96-12.35-37.71-2.71-52.71,11.11-9.26,36.65-7.49,56.93-5.41,16.21,3.63,32.48,4.88,46.28,2.48,78.98-14.56,162.63-23.36,248.25-29.07,1.88-.03,3.75-.07,5.6-.13-2.94,8.69-3.63,20.11-5.43,25.73-5.65,29.73-11.39,59.45-16.9,89.19-2.17.21-4.34.42-6.51.64Z"/>
      <path class="cls-4" d="M521.88,887.71c7.53-1.33,18.17.22,22.85-5.85,1.77-4.96-.66-10.28-1.8-15.41-.21-.92-.38-1.83-.47-2.73-8.62-38.36-17.05-76.82-29.24-114.53-.09-.26-.17-.51-.25-.77.7.25,1.41.49,2.13.74,3.53,1.19,7.2,2.43,9.56,4.92-1.66-2.27-4.75-3.71-7.88-4.96-1.41-.55-2.82-1.07-4.12-1.62,0,0,0-.01,0-.02-.7-.29-1.37-.64-2.01-1.02.03.11.06.22.08.32-25.88-9-52.91-15.38-80.64-18.95-1.75-.62-4.03-.34-4.87,1.21,4.14,9.34,8.46,18.71,12.83,28.13,11.68,25.15,23.69,50.59,33.32,76.23,4.52,10.93,8.59,21.98,13.76,32.71.73,1.41,1.47,2.85,2.25,4.29,2.77,5.12,6.08,10.15,11.52,13.57,6.49,4.41,15,4.8,22.97,3.73Z"/>
      <path class="cls-4" d="M662.79,865.39c7.08-3.02,33.68-9.36,38.02-17.56.84-1.6.84-3.27-.31-4.99-19.22-29.4-35.96-60.1-56.05-89.25-.04-.05-.07-.1-.11-.15-.75,0-1.49-.06-2.22-.15.05.08.1.17.14.25.1.18.19.35.29.53l-1.19-.55c-.7-.31-1.41-.61-2.13-.89-.36-.12-.7-.26-1.04-.41-13.54-5.22-29.4-6.42-43.75-9.71-8.87-1.11-18.01-4.46-26.99-3.66-4.16,1.44-1.03,4.94.15,7.21.8,1.41,1.6,2.81,2.41,4.21,4.65,8.05,9.48,16.02,14.22,24.04,16.49,26.87,31.5,54.32,49.82,80.47.22.35.46.69.7,1.04,5.98,8.63,15.82,14.73,28.03,9.59Z"/>
      <path class="cls-4" d="M405.37,901.72c4.37-8.04,5.43-16.95,5.73-25.91.2-6.36.01-12.76.31-18.9-.07-31.48-1.89-62.94-4.25-94.35-.06-.83-.13-1.67-.19-2.5-1-.14-1.98-.36-2.93-.66-11.1-1.2-22.41-3.96-33.53-3.13-4.24,1.34-6.87,5.63-8.67,10.93-2.94,8.69-3.63,20.11-5.43,25.73-5.65,29.73-11.39,59.45-16.9,89.19-.18.98-.37,1.97-.55,2.95-2.86,17.87,28.66,15.57,42.72,19.06,7.75.85,18.25,3.95,23.69-2.41Z"/>
      <path class="cls-6" d="M528.42,883.62c7.76-1.91,15.1-1.24,13.59-9.9-1.17-29.75-11.91-58.41-19.8-87.24-3.24-13.02-6.54-26.06-9.74-39.08-.02,0-.04-.02-.06-.03,3.52,26.62,9.62,53.45,16.79,79.73,2.91,12.13,6.04,24.26,7.86,36.55.62,4.22,1.37,8.84,1.24,13.34.1.52-.27.98-.72,1.31-3.66,1.59-7.84,2.54-12.03,3.37-1.31-.21-1.97-1.44-2.55-2.4-4.01-10.67-5.77-21.95-9.36-32.74,2.02,9.73,3.62,20.02,5.81,29.87.63,3.7,3.42,8.86,8.98,7.24ZM537.45,878.38s-.02.02-.04.03c0-.01-.04,0-.07.02.04-.02.08-.04.11-.05Z"/>
      <path class="cls-6" d="M443.3,740.93c.53-7.69,9.81-5.52,15.46-2.97,7.43,2.65,14.82,5.32,22.41,7.64,10.09,2.8,21.85,7.13,23.99,16.74.2.98.5,2.47.04,3.24.12-.55.02-1.13-.04-1.7-2.54-13.19-21.01-15.08-33.6-18.99-6.52-1.92-12.84-4.27-19.38-6.15-1.49-.36-2.97-.51-3.98.5-.12.18-.24.35-.27.34-1.33,2.72-.31,5.67.39,8.41,2.12,6.47,4.85,12.8,7.42,19.16,8.32,20.44,16.46,40.93,23.71,61.65-9.46-20.89-19.16-42.13-28.34-63.24-3.17-8-7.94-16.06-7.82-24.61Z"/>
      <path class="cls-6" d="M487.24,818.45c7.58,17.89,13.86,36.19,19.68,54.46-7.8-17.25-13.98-36.49-19.68-54.46Z"/>
      <path class="cls-6" d="M356.07,880.38c2.41-22.01,5.73-43.96,9.37-65.85-1.25,25.99-5.39,52.45-4.65,78.59,12.41,1.17,24.88,3.35,37.17,4.43,4.66-12.08,4.32-24.59,5.96-37.04,1.82-17.65,3.01-34.9,2.41-52.47-.37-13.42.07-27.15.78-40.38.71,20.36,2.71,40.7,3.79,61.06.15,19.58-1.16,39.19-3.5,58.67-.65,4.05-1.8,8.07-3.25,11.97-3.39,6.2-13.1,1.59-19.04,1.16-7.95-1.14-15.97-2.04-23.91-3.26-9.26-1.1-4.97-11.59-5.14-16.89Z"/>
      <path class="cls-6" d="M387,889.01h.01s.03.04.05.06c-.04-13.88.47-28.05,1.68-41.75.13,13.58.07,29.07-1.73,41.69Z"/>
      <path class="cls-6" d="M372.46,883.49c.75-4.08,1.05-8.59,2.15-12.46-.58,4.09-.86,8.72-2.17,12.51-.02-.02-.02-.06.02-.05Z"/>
      <path class="cls-6" d="M352.7,825.07c2.22-14.28,14.68-72.4,42.02-59-7.89-5.18-17.65,1.96-21.52,8.03-16.7,28.62-18.72,61.5-25.54,92.13,1.42-13.73,2.84-27.49,5.04-41.16Z"/>
      <path class="cls-6" d="M586.34,749.68c1.4-1,3.63-.57,5.24-.33,13.76,2.1,27.91,4.7,41.21,7.54-10.42-1.46-20.83-3.1-31.31-4.34-2.77.24-14.42-3.7-13.2.24,8.58,19.66,20.94,38.12,30.72,57.41.01.03-.04.04-.06.02-8.64-13.36-17.05-26.82-25.07-40.45-1.86-4.24-11-16.55-7.53-20.1Z"/>
      <path class="cls-6" d="M594.21,751.68c6.58,6.5,12.4,14.55,17.78,21.74-6.26-7.03-11.92-14.48-17.71-21.73,0,.04-.09.02-.07-.02Z"/>
      <path class="cls-6" d="M663.49,788.23c11.83,18.1,23.49,36.67,32.85,55.58-11.42-18.26-22.94-36.87-32.85-55.58Z"/>
      <path class="cls-6" d="M627.67,814.29c8.82,7.42,17.96,14.58,27.02,21.79,5.22,3.94,9.6,8.59,15.88,11.26,8.49,3.62,20.65-2.76,26.3-7.81-4.46,5.4-16.86,12.29-25.58,9.49-5.36-1.72-9.33-4.98-13.36-8.25-10.41-8.47-21-17.35-30.25-26.49Z"/>
      <path class="cls-6" d="M654.67,796.63c10.61,15.91,19.82,32.41,29.47,48.7-11.18-15.37-20.68-32.36-29.47-48.7Z"/>
      <path class="cls-6" d="M630.73,804.06c5.9-14.38,4.6-29.99,5.53-44.78.54,9.03.77,18.07.85,27.11.26,13.5-9.14,26.4-5.85,39.9.79,8.55,19.55,31.28,30.74,23.77-3.23,3.95-10.21,1.08-14.1-.8-18.23-9.46-24.57-28.9-17.16-45.21Z"/>
      <path class="cls-1" d="M1023.35,767.68c-23.03,7.57-46.78,14.51-71.19,20.78,27.8-12.09,52.43-26.73,81.92-37.5,24.66-8.4,52.16-14.59,82.5-16.64,78.29-1.57,161.33,4.72,233.62-7.04,1.98-.28,3.95-.56,5.91-.86,5.46.61,10.9,1.18,16.3,1.71,30.07,3.08,60.28,6.33,89.73,7.29,28.52,1.26,56.01-.96,85.36,2.95-29.23,9.27-67.98,7.2-103.02,8.81-58.15,1.35-116.64,2.15-175.34,2.47-83.69,1.98-174.89-2.24-245.8,18.03Z"/>
      <path class="cls-7" d="M952.16,788.46c24.41-6.27,48.15-13.21,71.19-20.78,70.91-20.27,162.11-16.05,245.8-18.03,58.7-.32,117.19-1.12,175.34-2.47,35.04-1.61,73.79.46,103.02-8.81-29.35-3.91-56.84-1.68-85.36-2.95-29.45-.96-59.66-4.21-89.73-7.29-5.4-.53-10.84-1.1-16.3-1.71-1.96.3-3.93.59-5.91.86-72.29,11.76-155.33,5.47-233.62,7.04-30.34,2.04-57.85,8.24-82.5,16.64-29.49,10.77-54.13,25.41-81.92,37.5ZM700.81,847.83c.84-1.6.84-3.27-.31-4.99-19.22-29.4-35.96-60.1-56.05-89.25,7.22.17,14.39.24,21.5.18,117.44.38,119.21-42.56,252.74-37.51,98.39-1.81,112.98-41.31,234.15-32.26,69.84,3.89,141.93,17.4,212.64,24.84,30.16,3.09,60.38,6.3,89.96,7.41,32.58,1.74,64.23-2.14,98.13,5.04,11.87,2.77,22.19,10.65,23.77,17.97,3.26,15.54-21.96,20.09-40.87,22.97-83.23,6.77-174.67,5.18-259.85,6.55-92.63,1.81-192.62-2.38-265.54,25.39-92.46,30.02-200.51,43.64-310.29,53.67Z"/>
      <path class="cls-1" d="M1422.18,1420.06c7.17-22.6,4.31-46.13,2.49-69.14-1.81-19.03-3.15-38.11-2.46-57.2.73-21.23,3.78-42.36,7.98-63.31,7.53-36.17,16.52-67.7,28.83-100.99,12.64-33.62,28.41-66.58,49.41-97.27,21.83-32.41,47.88-58.44,75.59-84.04,25.52-23.35,49.91-47.57,76.23-70.31-4.39,11.85-7.74,23.98-10.46,36.07-5.7,25.87-8.52,52.12-10.36,78.36-2.2,33.44-2.35,66.97-.21,100.41,3.53,56.01,14.39,112.33,4.08,168.26-2.21,11.75-5.07,23.76-8.46,32.82-1.61,4.46-3.55,8.83-5.92,13.05-1.85,2.95-3.53,6.14-6.79,8.22,7.53-3.52,12.24-10.01,17.05-15.75,7.41-9.93,13.13-20.68,17.68-31.71,5.81-13.94,9.54-28.44,11.17-43.12,1.36-15.61.66-31.29-.39-46.9-2.3-31.98-6.57-63.86-7.98-95.89-2.12-43.97-.62-88.09,4.97-131.86,4.51-31.42,10.07-60.6,24.03-88.61,4.66-2.57,9.33-5.13,14.02-7.66,23.36-12.97,67.57-33.72,97.31-49.96,3.47-1.91,6.95-3.82,10.43-5.75,2.04.49,4.09,1.02,6.16,1.6,3.2.9,6.35,1.91,9.46,2.99-1.75-.95-3.53-1.86-5.34-2.73-2.5-1.21-5.07-2.3-7.69-3.31,18.45-10.28,36.63-21.1,51.4-34.89,14.86-13.73,24.01-33.2,19.07-51.5-1.46-1.31-2.65-2.92-3.52-4.7-1.4-2.85-2.74-5.71-4.14-8.56-.56-1.15-.86-2.26-.92-3.31-.59-.74-1.19-1.47-1.82-2.19-.18-.17-.37-.33-.55-.51-5.6-5.82-14.57-12.7-16.22-20.18-.37-1.69-.31-3.3.1-4.78-12.02-10.5-23.96-21.07-36.11-31.47-33.47-28.35-61.02-58.85-88.71-94.04-35.82-45.18-65.56-93.79-85.87-145.18-8.03-20.15-14.34-36.15-18.99-56.32-1.5-7.29-2.76-14.63-2.99-22.03-.07-4.66-.05-9.48,1.94-13.9-4.3,5.05-6,11.21-7.52,17.15-1.99,8.66-2.57,17.5-2.39,26.3,1.11,34.71,15.18,67.92,31.86,99.43,19.98,38.27,45.19,74.51,73.38,109.04,25.79,31.59,54.14,62.05,87.12,88.78-4.25-2.27-8.54-4.49-12.82-6.69-33.96-16.96-68.57-33.03-102.23-50.4-26.25-13.51-51.43-27.28-78.1-43.06-21.19-19.73-42.39-39.46-63.6-59.17-10.32-9.54-20.67-19.06-31-28.58-22.54-26.84-45.43-53.45-73.46-76.67-8.09-6.89-16.44-13.57-25.02-20.02-17.16-18.92-33.73-38.85-48.16-58.91-17.6-24.52-32.46-50.36-44.74-76.99-10.18-22.69-19.58-48.53-26.04-68.94-5.89-19.26-11.44-38.91-11.4-58.87-6.29,17.49-6.66,36.03-5.12,54.11,2.87,32.36,15.41,63.41,30.56,93.13,14.44,28.74,32.61,55.95,53.17,81.92-36.08-21.39-75.11-39.38-115.97-53.79-11.86-16.43-24.86-32.29-38.2-47.93-37.9-45.77-82.54-87.59-132.18-124.89-32.83-24.63-66.93-48.3-104.57-67.79-20.99-10.9-42.19-21.74-64.95-29.97,12.21,6.77,23.46,14.62,34.93,22.2,13.89,9.32,27.82,18.61,41.72,27.94,44.9,29.48,88.56,60.41,127.63,95.17,23.79,21.18,40.98,38.44,61.97,62.04,15.63,17.79,30.4,36.08,45.74,54.03-6.67-2.05-13.38-4.01-20.13-5.86-38.15-10.32-77.88-17.86-118.22-17.4-9.09.18-18.19.63-27.17,1.79-14.96-4.44-30.11-8.44-45.51-11.69-5.88-1.25-11.79-2.4-17.76-3.32-3.53-.46-7.12-.98-10.68-.46,7.59.06,15.45,3.49,21.72,5.33,12.26,4.07,24.34,8.51,36.33,13.1-3.62.92-7.13,2.08-10.33,3.77,4.18-1.43,8.59-2.2,13.06-2.72,30.78,11.95,61.17,24.61,91.06,38.01,35.32,15.94,69.78,33.11,103.89,50.75,45.1,22.96,87.03,47.02,132.38,74.95,62.55,38.33,122.82,79.15,185.1,117.76,32.22,32.44,67.12,61.14,105.31,86.09,7.7,7.14,15.38,14.29,23.09,21.43,20.67,19.42,41.83,38.48,64.32,56.48,8.17,6.62,16.44,13.15,24.8,19.6-26.5-7.88-45.91-13.83-73.47-25.01-8.21-5.36-18.12-9.36-27.86-12.27-41.34-19.64-78.46-43.16-114.8-72.88-43.98-35.82-82.13-76.07-123.33-113.99-7.94-7.35-16.03-14.59-24.29-21.7,12.6,4.44,25.33,9.21,38.51,14.33,15.37,6.1,30.48,12.66,45.16,19.83,7.52,3.68,14.93,7.53,22.16,11.59-.49-.42-.97-.84-1.46-1.25-18.16-15.44-39.58-28.04-62.12-38.74-20.44-9.74-42.17-17.37-64.29-24.09-17.41-13.97-35.55-27.31-54.55-39.8-5.13-3.37-10.31-6.67-15.55-9.93,5.5.73,11.02,1.37,16.56,1.88-1.63-.36-3.25-.72-4.88-1.1-5.94-1.4-11.85-2.92-17.73-4.49-36.22-22.08-74.76-41.54-114.88-58.4-36.9-15.38-75.03-29.15-115.21-37.49-12.7-2.43-25.72-4.99-38.81-5.93-.64-.39-1.27-.77-1.91-1.17-20.59-12.98-39.69-27.51-57.62-42.94-18.14-15.53-34.7-32.44-55-46.15-19.69-13.55-42.63-23.53-67.05-29.87-14.11-3.44-28.8-6.74-43.64-5.98,7,.28,13.65,1.97,20.41,3.8,9.8,2.72,21.96,7.34,32.72,12.32,19.09,8.37,39.15,22.78,57.33,37.64,11.27,9.39,21.85,19.33,32.82,28.95,8.13,20.85,22.28,40.15,40.18,56.22,13.28,12.17,29.06,22.23,45.28,31.57,24.64,14.03,51.01,25.81,77.77,36.81,39.93,16.55,81.17,31.06,121.61,46.84-6.5-.28-13-.44-19.51-.46-19.77.06-39.55.69-59.3-.22-27.2-.8-66.27-5.84-99.49-14.39-37.18-9.24-67.94-22.36-107.76-34.62-21.81-6.8-44.13-13-67.38-15.28,27.06,6.2,52.16,18.07,78.12,28.44,33.13,13.49,67.47,25.27,103.3,32.86,27.96,6.05,56.59,9.97,85.46,11.31,23.48,1.45,47.01.54,70.52.63,14.58.2,15.3.34,27.5,1.12,5.42.46,10.81,1.04,16.19,1.7,21.57,8.93,42.77,18.44,63.25,29.07,23.28,12.06,58.39,32.7,80.69,54.27,18.67,17.74,40.83,45.98,61.94,67.93,28.04,29.76,61.54,55.79,98.22,78.19,21.29,13.16,43.83,24.93,67.42,35.07,18.33,7.84,37.36,14.81,57.16,19.68-.57,2.78-1.53,5.51-2.75,8.14-5.01,1.77-9.94,3.67-14.76,5.59-36.47,14.85-66.64,37.98-93.35,62.96-1.6,1.5-3.16,3.02-4.74,4.54-33.78,19.96-64.72,43.03-93.85,67.45-30.86,26.12-60.01,53.95-82.91,85.26-17.19,5.36-34.99,9.89-55.2,15.9-46.62,13.59-93.35,29.19-132.9,54.17-20.24,13.13-39.13,28.7-50.88,47.81-3.97,7-8.02,15.13-5.28,22.9.84-22.08,52.04-54.17,74.24-66.84,16.25-9.28,27.79-15.28,47.38-23.73,15.53-6.54,32.19-12.48,46.77-17.24,4.98-2,10.26-3.55,14.98-4.71,0,0-.01,0-.02,0,.76-.23,1.53-.46,2.27-.68,16.03-4.99,32.4-9.35,48.64-13.95-18.35,25.23-36.16,50.81-57.76,74.26-17.76,18.97-33.57,32.98-53.46,52.39-7.66,7.46-15.22,15-22.72,22.58-.71.22-1.43.45-2.13.67-20.49,6.6-41.52,12.08-61.77,19.16-22.53,8.73-34.17,25.36-39.53,44.85-4.21,13.21-7.3,26.75-7.63,40.43-.03,1.58-.02,3.16.03,4.75.05,1.5.15,2.99.28,4.48.14-.53.27-1.06.42-1.59,2.49-9.09,6.22-17.9,10.31-26.57,16.21-32.94,26.33-52.35,55.6-61.89,9.8-3.01,19.63-5.97,29.45-8.94-6.72,7-13.39,14.03-19.92,21.15-9.81,10.69-18.57,22.33-21.87,35.63-6.12,20.88-4.97,47.52,18.51,60.78,15.57,8.9,35.83,12.33,54.04,7.44,17.8-4.45,35.42-9.95,51.33-18.01,1.43-.73,2.84-1.48,4.23-2.26-1.25.44-2.5.88-3.76,1.31-22.12,7.13-45.29,12.09-65.27,14.38-7.07.79-25.03-4.44-33.78-16.92-11.26-15.38-8.03-38.97-1.33-54.64,7-14.9,19.93-27.18,31.56-39.73,6.3-6.59,12.43-12.94,18.44-19.06,2.79-.88,5.58-1.74,8.36-2.64,21.01-6.82,41.95-14.07,61.29-23.76,27.01-13.71,50.95-31.35,72.37-50.58,21.03-19.04,38.3-40.68,52.9-63.41,13.46-21.15,25.41-42.92,38.26-64.33,1.43-.88,2.87-1.75,4.29-2.64,16.16-10.34,31.74-21.61,44.1-35.14.38-.43.76-.86,1.14-1.29-.5.36-1,.72-1.5,1.07-2.69,1.89-5.44,3.73-8.24,5.51-7.84,5.08-19.22,11.44-26.19,15.16-1.44.77-2.89,1.54-4.37,2.31,3.8-6.01,7.73-11.97,11.82-17.86,15.96-23.19,34.23-45.27,54.39-66.1,3.95-4.12,8.2-8.35,12.69-12.64,12.79-7.55,25.45-14.49,35.16-19.47,12.95-6.77,26.2-13.13,39.03-20.06,10.08-5.47,20.23-11.21,27.77-19.1,5.58-5.67,9.75-12.68,11.55-19.97,11.46-4.62,23.17-7.8,34.4-8.12-11.42-.86-22.64.55-33.55,3.17.42-4.6-.18-9.21-2.06-13.59,21.46,6.82,43.72,11.9,66.08,16.25,1.14.21,2.28.41,3.41.61,4.44,3.36,8.91,6.7,13.4,10.02-2.54-3.02-5.12-6.02-7.7-9.02,7.12,1.22,14.28,2.33,21.49,3.12-25.44,11.65-49.83,24.93-73.63,38.73-39.08,22.74-75.78,48.39-108.11,77.53-31.4,28.28-58.38,59.66-84.42,91.37-8.18,9.97-16.27,19.99-24.37,30.02-28.09,26.3-53.62,54.4-79.68,82.08-20.12,21.41-47.75,50.44-64.7,67.24-5.36,5.3-10.88,10.49-16.48,15.62-10.42,7.37-21.18,14.3-32.09,20.42-15.56,9.13-29.39,16.17-49.5,24.13-15.55,6.06-30.25,10.19-48.72,11.56,24.17,1.22,47.96-4.09,70.21-11.48,5.73-1.88,11.38-3.98,16.96-6.26-7.5,6.36-15.22,12.4-22.52,16.67-10.74,5.79-22.79,8.34-36.07,8.46-2.47.02-4.94-.06-7.4-.2,1.47.26,2.94.52,4.43.72,17.6,2.43,36.2-.14,51.8-7.33,19.03-9.23,35.27-21.84,50.96-34.52,6.71-5.66,13.23-11.45,19.63-17.33,35.47-24.65,67.54-55.76,96.6-87.88-21.01,33.4-36.39,69.09-48.59,105.32-11.63,35.09-20.99,70.74-26.62,106.84-6.27,41.18-5.05,83.12,3.92,123.96,4.13,21.38,9.03,47.75-1.51,68.12,7.57-7.52,11.78-16.98,14.88-26.31ZM1387.24,399.63c-50.7-31.42-103.64-60.24-157.79-87.42-27.38-13.85-55.14-27.21-83.41-39.79-24.57-11.07-49.7-21.35-75.84-29.61,6.67.1,13.88.43,19.95.78,23.81,2.01,52.04,6.71,78.98,12.88,24.11,5.6,47.72,12.4,70.71,20.41,1.64,1.84,3.27,3.69,4.94,5.51,15.12,16.94,30.58,33.67,45.66,50.63,1.16,1.31,2.32,2.62,3.48,3.93-7.41-15.74-16.2-31.03-25.79-45.94-1.02-1.6-2.08-3.19-3.12-4.78,49.49,19.57,95.85,45.02,138.01,76.58,11.75,12.86,23.95,25.44,36.45,37.76,19.88,19.64,40.42,38.81,61.09,57.88,8.03,9.56,16.08,19.2,24.29,28.73-45.71-29.35-91.01-59.14-137.58-87.55ZM1451.18,987.6c-18.71,26.12-36.92,44.86-62.78,64.76-16.82,12.76-34.59,24.5-50.07,31.79-11.75,5.61-23.54,10.28-34.99,14.38,3.74-3.69,7.43-7.29,11.07-10.79,21.88-21.25,44.98-41.77,64.12-64.81,19.24-22.84,35.55-47.33,53.29-71,10.67-3.48,21.18-7.29,31.37-11.72,8.35-3.76,16.58-7.71,24.67-11.83-11.63,20-23.2,40.03-36.69,59.22ZM1528.91,863.8c-11.35,15.21-21.26,31.04-30.77,47.05-13.98,6.68-28.35,13.3-41.89,19.57-4,1.91-7.95,3.68-11.88,5.33,8.94-11.11,18.42-21.9,28.97-32.09,19.72-19.73,46.8-43.21,74.78-64.4-6.69,8.02-13.12,16.19-19.21,24.53ZM1690.84,737.48c-12.92,10.85-24.64,16.26-36.76,22.63,6.5-4.82,13.14-9.5,19.86-13.91,6.41-4.1,13.51-8.55,21.04-12.84-1.36,1.51-2.75,2.9-4.14,4.13ZM1085.05,302.49c20.5,6.4,49.81,16.7,74.76,26.2,37.49,14.54,70.94,29.74,102.99,47.12-3.35-1.04-6.71-2.08-10.06-3.12-40.98-13.01-71.66-21.6-111.74-36.53-33.06-13.18-59.98-26.19-87.01-42.23,10.51,2.43,20.86,5.35,31.06,8.56ZM1288.49,421.01c-43.71-17.91-88.89-33.52-132.7-51.19-37.53-15.14-70.1-29.17-100.6-48.17-27.69-17.67-50.16-35.95-69.44-57.96,22.01,17.47,45.93,33.29,71.68,46.86,20.22,10.67,40.99,20.69,62.59,29.34,18.24,7.33,37.15,13.45,56.02,19.58,34.27,11.24,69.1,21.45,104.97,28.65,1.84.37,3.68.73,5.53,1.09,14.21,8.38,28.28,17.26,42.41,26.83,8.74,5.94,17.28,12.07,25.65,18.35-21.69-5.55-43.71-10.25-66.09-13.38ZM1706.45,709.82c-28.98-11.45-49.12-23.78-74.5-37.46-50.65-27.18-97.74-61.11-131.51-97.94-21.94-23.13-40.82-48.25-64.62-70.16-22.57-20.21-49.75-36.5-77.7-51.25-10.1-5.32-20.39-10.33-30.81-15.14,16.66,3.81,32.46,8.02,47.97,12.67,19.15,15.48,37.39,31.72,55.03,48.37,42.78,40.13,83.06,82.34,130.98,118.48,42.04,31.89,90.05,58.58,141.93,78.28.12.04.24.09.36.13,2.55,4.46,3.33,9.25,2.86,14.02ZM1790.34,794.49c-4.79,2.63-9.27,5.03-13.17,7.14-25.25,13.28-51.1,25.77-76.45,38.92,1.04-1.54,2.1-3.08,3.21-4.62,5.51-7.28,12.63-15.27,16.46-18.9,2.47-2.54,8.68-8.15,15.54-12.27,14.2-8.39,32.99-12.18,54.41-10.27ZM1721.3,630.03c-12.89-7.16-25.43-14.77-37.6-22.75-8.03-7.39-16.04-14.8-23.94-22.28-1.75-1.63-3.5-3.26-5.25-4.89,15.82,8.44,31.8,16.68,47.95,24.68,27.74,13.92,56.12,26.98,83.72,41.1,17.4,9.35,41.73,22.44,58.76,38.94-23.18-9.47-46.56-18.59-69.61-28.26-20.91-9.11-38.09-17.73-54.01-26.54ZM1793.38,713.68c-1.25-.37-2.45-.73-3.66-1.09-9.21-10.51-18.64-20.89-28.36-31.09-11.39-11.96-23.26-23.58-35.36-35.04,33.97,17.21,70.32,31.92,109.42,44.08,6.54,2.05,13.13,4.08,19.76,5.99,1.99,2.75,3.7,5.59,5.14,8.49-13.38,4.74-26.44,10.04-39.21,15.78-9.37-2.02-18.58-4.59-27.73-7.13ZM1641.5,854.49c14.74-14.44,44.35-39.19,66.77-54.66,34.12-24.32,78.66-48.62,106.79-63.37,4.23-2.2,12.77-6.89,23.62-12.61.16,0,.33,0,.49,0-.13-.01-.26-.04-.4-.05,7.21-3.81,15.45-8.07,24.11-12.38,4.21,17.3-5.23,36.33-20.64,49.36-13.06,11.24-30.78,21.94-46.24,30.59-12.71-2.67-26.07-3.3-39.09-1.9-26.7,2.61-46.75,13.03-62.31,30.97-10.65,11.41-18.94,23.96-25.56,37.15-19.35,10.72-38.48,21.74-56.56,33.89-5.44,3.67-10.8,7.43-16.08,11.25,14.3-16.54,29.17-32.74,45.12-48.23Z"/>
      <path class="cls-1" d="M1393.97,1528.17c-6.17.39-12.17.75-18.49.6-14.13-.76-22.99-2.93-35.8-5.32-17.73-3.91-28.27-6.77-43.59-11.87-.1-.04,1.93.64,1.36.43-7.03-2.67-14.14-5.2-20.92-8.28-5.65-2.27-10.93-5.08-16.31-7.74-19.47-11.06-36.72-24.11-48.5-38.3-13.55-17.34-17.45-32.14-21.81-49.76-6.36-28.35-8.19-57.28-8.14-86.07.01-1.31.02-2.62.04-3.93-.16.64-.33,1.27-.5,1.91-5.15,20.24-8.17,40.9-8.09,61.59.11,24.27,4.91,49.1,18.72,70.75,6.81,10.56,16.57,19.52,26.8,27.9,28.23,22.94,64.96,37.74,103.47,44.67,15.47,2.76,31.14,5.07,46.99,5.57,8.33.22,16.6-.92,24.77-2.15Z"/>
      <path class="cls-2" d="M1199.28,1359.52c-25.25-84.31,9.1-147.64,89.05-198.02,32.47-20.68,59.68-33,93.17-52.09,25.01-14.22,48.36-30.47,68.97-48.92,21.06-18.95,39.46-39.64,56.08-61.31,7.02,58,48.91,112.54,76.66,166.87,17.68,35.73,28.7,71.58,19.2,111.49-5.48,21.29-15.15,46.52-26.23,69.93-8.69,18.28-19.08,35.98-29.65,53.56-12.39,20.2-25.86,40.1-42.6,58.09-1.22,1.3-2.46,2.59-3.73,3.86,2.52-1.62,5-3.28,7.44-4.99,27.76-19.69,50.53-44,68.08-70.46,16.53-25.75,28.64-53.3,38.76-81.17,5.81-16.68,11.52-33.57,12.3-51.01,2.1-37.99-13.52-74.79-32.4-108.89-22.2-39.47-51.66-84.91-62.14-123.48-4.86-17.82-6.63-35.45-4.96-52.55,10.12-14.91,19.6-30.11,28.68-45.41,10.8-18.07,21.49-36.22,32.76-54.11,39.66-30.15,91.82-49.3,145.02-67.29,35.28-12.22,89.62-27.89,106.65-57.96,4.07-7.31,4.3-15.18,1.3-22.16,5.07-3.21,8.78-7.84,9.75-13.15,3.95-23.35-42.47-53.75-62.8-67.21-32.17-20.72-65.83-39.79-99.96-58.25-1.94-2.26-3.88-4.55-5.81-6.89-55.16-66.3-91.8-141.34-131.14-214.52-14.62-26.17-30.8-51.72-47.78-76.89-1.79-2.65-3.59-5.3-5.4-7.95.59,1.93,1.18,3.86,1.79,5.79,7.04,22.37,15.23,44.49,24.74,66.22,14.16,31.87,31.65,62.64,48.36,93.63,22.55,40.98,46.56,81.57,75.9,119.57.03.04.06.07.09.11-.81-.43-1.63-.86-2.44-1.29-44.87-22.82-81.57-40.84-123.68-66.83-50.84-30.55-94.51-68.23-135.81-107.17-20.06-18.96-39.8-38.15-59.63-57.27-27.17-26.52-55.56-52.42-88.42-74.25-39.8-25.53-85.32-46.35-135.11-54.55-20.06-3.24-40.72-3.04-60.96-1.06-18.07,1.8-35.86,5.26-54.04,6.29-30.8,1.49-50.55-3.55-76.45-19.42-23.84-15.17-37.06-31.3-51.11-54.19-6.21-10.79-13.2-21.41-17.1-32.97-3.17-8.77-5.99-28.82-5.4-41.14,0-1.36.05-2.72.09-4.07-.89,2.32-1.72,4.66-2.49,7.01-4.69,14.53-7.26,29.88-4.32,44.84,5.36,20.05,14.31,39.91,28.99,56.62,21.52,24.44,53.02,44.03,89.29,50.14,16.86,2.82,34.23,2.51,51.27,1.04,20.4-1.77,40.41-5.96,60.94-6.82-.93.05-1.87.1-2.8.16,22.9-.66,30.42.06,51.45,4.61,18.22,4.38,25.87,6.74,43.72,13.71,41.3,16.6,73.59,37.18,107.56,65.58,20.81,17.35,39.68,36.18,58.95,54.69,33.69,32.5,67.14,65.26,103.67,95.64,56.72,48.17,125.37,85.05,194.72,119.53,17.58,9,33.36,17.35,49.75,26.28,30.28,34.78,65.36,66.77,104.95,94.44,8.06,5.67,16.22,11.24,24.54,16.65-8.8-1.07-17.85-1.02-26.58-.22-1.68.15-3.34.35-5,.56-5.01-2.47-9.98-4.98-14.94-7.5-23.19-11.85-42.67-22.43-66.88-37.41-36.49-22.8-70.67-48.11-102.07-75.6-39.31-34.65-77.04-70.55-118.58-103.43-17.83-13.99-36.52-27.28-56.48-39.17-13.17-7.48-26.69-15.88-41.97-20.09,11.57,5.13,20.86,13.52,30.39,20.87,15.63,12.64,30.5,25.9,45.7,38.89,22.71,19.2,45.85,38.06,67.75,57.91,28.8,25.82,56.74,52.38,87.72,76.47,14.54,11.46,29.64,22.4,45.22,32.86-11.67-6.55-23.47-12.96-34.65-19.93-22.54-14.11-43.11-30.23-62.62-47.11-34.69-29.83-66.35-62.9-108.9-85.52-10.38-5.52-21.22-10.49-32.78-14.12-7.47-2.16-15.29-4.32-23.3-3.86,26.47,2.45,60.71,32.95,80.43,49.46,20.55,17.49,40.37,35.56,60.54,53.35,20.97,18.41,42.98,36.14,67.35,51.48,25.23,15.94,53.78,28.73,76.91,46.78-5.94-1.51-11.87-3.02-17.8-4.57-29.29-7.58-56.54-15.22-79.49-23.58-33.43-12.29-60.15-25.53-86.12-42.21-29.11-18.2-55.07-39.46-81.37-60.3-28.68-22.76-58.87-44.99-95.14-59.11-18.66-7.14-50.65-16.3-70.09-8.79,47.59-11.34,136.01,63.95,173.16,92.98,23.98,19.02,49.28,36.96,76.7,52.52,29.95,16.88,62.62,30.23,96.62,40.61,30.91,9.82,62.87,17.25,95.33,22.62,11.58,10.94,24.38,28.43,18.32,42.96-6.33,4.1-12.4,8.45-18.16,12.97-8,6.33-15.69,12.92-23.11,19.72-2.37,1.31-4.75,2.61-7.14,3.9-20.38,11.28-54.37,27.51-79.06,43.2-22.3,14.24-41.16,31.97-56.12,51.66-10.81,13.81-19.21,28.77-29.8,42.68-20.08,25.97-46.09,42.58-80.85,54.6-17.59,5.93-41.25,13.83-67.19,15.71-1.51.08-3.03.13-4.55.15,1.51.16,3.03.29,4.55.38,24.66,1.17,49.12-3.6,72.6-9.36,40.96-9.89,71.88-28.68,95.06-58.32,9.98-12.74,17.72-26.57,27.42-39.46,16.67-22.4,32.83-38.2,58.82-54.75,12.96-8.05,24.79-14.47,36.97-20.84-9.02,10-17.52,20.31-25.5,30.88-11.48,15.22-21.98,30.9-32.01,46.79-22.32,17.1-40.59,37.3-51.69,61.61-6.08,13.45-9.55,26.67-10.94,39.7-21.8,31.91-46.64,62.47-73.96,86.91-15.97,14.22-33.46,27.26-52.21,38.93-25.67,15.84-45.3,25.39-70.59,39.12-61.77,32.85-120.14,75.83-135.07,137.96-12.6,51,3.92,110.17,38.24,153.42,18.44,22.36,41.78,43.21,71.35,55.51-38.08-23.75-74.32-87.15-84.71-121.53ZM1818.45,720.71c-.06,0-.13.02-.19.03-.24,0-.47,0-.71,0-.3-.07-.6-.11-.89-.19-1.03-.25-2.04-.57-3.05-.87-.43-.14-.86-.27-1.29-.42-9.82-3.21-19.26-7.07-28.51-11.24,2.48-.05,4.85.02,7.04.24,10.3.51,18.76,4.29,24.6,8.95,1.15,1.18,2.13,2.35,3,3.51ZM1805.24,696.24c-11.56-10.69-23.13-21.37-34.88-31.92-19.15-17.21-36.6-32.59-53.27-49.04,27.11,15.53,53.85,31.58,78.52,49.69,17.82,13.22,37.82,32.12,34.78,45.51-1.44-.96-2.96-1.86-4.62-2.66-4.28-2.21-8.84-3.9-13.58-5.19-2.3-2.16-4.6-4.31-6.97-6.38ZM1683.57,669.36c9.79,5.79,19.74,11.4,29.82,16.86-4.78-1.11-9.54-2.25-14.31-3.39-4.8-4.83-10.01-9.28-15.51-13.47ZM1704.95,689c5.93.8,11.87,1.55,17.82,2.22,5.63,2.97,11.28,5.9,16.99,8.76,2.92,1.47,5.84,2.94,8.77,4.41-10.24,2.76-20.05,6.55-29.39,11.07-1.37-9.49-7.25-18.58-14.19-26.45ZM1623.35,820.59c12.03-16.2,32.8-38.94,43.8-49.23,2.3-2.19,4.63-4.37,6.98-6.53,16.45-8.93,36.13-19.67,42.69-33.63,15.31-9.84,31.26-16.5,45.54-20.07,9.01,4.26,18.17,8.27,27.69,11.7,6.03,2.08,12.01,4.4,18.36,5.71,4.59.89,9.37,1.09,14.07.69,1.24,5.98-.72,11.98-4.94,18.38-22.24,29.8-85.24,43.81-130.29,60.82-27.23,9.74-55.06,21.14-80.52,35.09,5.33-7.74,10.84-15.39,16.61-22.93Z"/>
      <path class="cls-2" d="M1879.9,602.77c-15.3-36.44-33.07-72.32-57.51-105.29-9.36-12.86-18.45-26.04-30.69-37.22,5.89,10.48,9.62,21.65,14.31,32.51,5.06,11.93,10.72,23.69,17.14,35.17,10.45,18.37,23.35,35.73,37.02,52.57,5.58,6.81,11.35,13.51,17.31,20.09.93,1.03,1.87,2.05,2.81,3.08-.13-.31-.26-.61-.39-.92Z"/>
      <path class="cls-2" d="M1898.54,834.95c43.96-23.28,87.23-48.09,124.03-78.89,16.86-14.55,33.94-30.16,42.12-49.47-19.15,22.67-47.96,39.78-74.14,57.51-30.66,19.99-60.08,41.23-88.89,63-8.24,6.23-16.41,12.52-24.55,18.84,7.19-3.6,14.33-7.26,21.43-10.99Z"/>
      <path class="cls-2" d="M1464,313.9c.18.47.53.88.95,1.23-.18-.47-.53-.88-.95-1.23Z"/>
      <path class="cls-6" d="M1598.27,794.69c18.4-16.75,25.37-27.7,44.91-41.95,12.69-9.34,22.41-13.17,38.23-19.73,5.2-2.31,10.4-4.83,14.47-8.41,1.87-1.74,3.78-3.7,4.23-6.06-2.01,2.84-5.5,4.63-8.37,6.1-7.51,3.45-12.4,4.57-20.55,6.79-27.42,6.59-50.18,18.15-65.36,38.58-6.95,8.74-11.62,18.59-18.79,27.21-3.64,4.36-8.11,7.59-13.44,11.4,9.03-3.57,17.77-7.84,24.65-13.94Z"/>
      <path class="cls-6" d="M1701.06,706.51c-.3-18.63-15.06-29.74-33.83-37.79-23.3-9.33-59.21-13.46-75.74-19.59-30.6-10.7-54.17-29.49-78.86-51.85-25.5-22.54-49.9-45.99-76.96-67.27,39.36,51.13,81.51,109.81,155.27,129.62,23.42,5.64,33.38,6.3,49.2,9.53,12.43,2.53,17.45,3.81,27.56,7.99,11.74,4.8,21.09,10.52,27.84,20.91,2.35,3.56,4.06,7.39,5.13,11.34.5,2.17.28-2.17.38-2.89Z"/>
      <path class="cls-6" d="M1605.71,857.99c15.11-8.23,32.49-17.52,55.21-27.43,24.55-10.63,49.72-20.26,75.22-29.24,20.33-7.16,41.11-13.49,60.95-21.58,14.44-5.84,28.71-12.53,40.05-22.09,16.64-12.91,22.3-33.61,15.33-51.43-3.98-11.35-11.4-21.6-19.02-31.51-12.88-17.05-30.25-31.39-49.36-43.7-24.06-15.88-48.96-30.9-74.92-44.59-29.29-15.35-55.54-34.34-80.38-54.25-28.83-24.14-53.77-50.29-78.05-73.27-18.07-17.15-27.92-26.42-44.78-44.06-9.01-9.86-18.71-19.47-25.83-30.37,3.54,12.51,10.94,24.09,18.04,35.45,15.79,24.37,36.79,46,58.59,66.84,21.45,20.71,42.61,41.76,67,60.19,14.37,10.8,29.06,21.36,44.57,31.04,11.89,7.33,24.56,13.72,36.89,20.53,15.99,8.72,31.41,18.13,46.61,27.77,12.88,8.24,25.83,16.49,37.4,26,10.45,8.51,16.88,15.6,26.04,27.49,6.83,9.1,13.37,18.54,16.95,28.89,5.86,18.02.12,36.69-19.93,49.68-20.46,14.09-53.25,23.69-82.58,33.88-23.37,8-46.39,16.68-69.05,25.97-26.42,10.61-51.68,23.28-73.92,39.22-17.46,12.06-34.62,24.51-50.34,38.13,22.88-12.8,46.31-24.91,69.31-37.57Z"/>
      <path class="cls-6" d="M1424.9,475.61c-34.84-19.65-73.77-34.36-114.43-43.61-29.66-6.93-60.53-9.43-91.29-8.92-23.99.22-47.95,1.77-71.95,1.36-22.69-.38-39.89-1.96-60.62-6.13-30.3-6.75-49.05-13.79-76.14-23.06-35.54-12.24-70.38-25.86-106.16-37.61,26.77,13.82,53.38,27.96,81.73,39.53,15.77,6.57,32.07,12.2,48.58,17.36,13.07,4.08,26.22,8.06,39.76,10.94,30,6.55,61.18,8.18,92.11,7.65,27.96-.54,55.96-2.28,83.91-.75,5.11.39,10.23.74,15.31,1.34,4.9.46,9.74,1.23,14.6,1.91,9.68,1.71,19.26,3.79,28.79,6.01,26.17,6.11,52,13.22,77.37,21.3,8.59,2.72,28.93,9.53,40.92,14.12-.82-.48-1.65-.96-2.48-1.43Z"/>
      <path class="cls-6" d="M1188.37,1351.44c-3.05-20.62-5.09-41.35-5.86-62.11-.82-21.87.81-47.71,7.25-65.11,8.42-24.99,23.31-48.27,40.94-69.63,25.41-30.61,53.19-54.23,87.2-80.74,65.18-49.74,95.35-78.86,125.95-149.07-18.5,21.62-36.08,43.78-55.59,64.8-16.67,17.96-28.43,30.76-46.39,46.12-34.28,28.97-72.27,54.99-103.51,86.37-37.43,36.66-69.41,79.97-75.67,128.51-2.15,21.07,1.77,42.23,8.12,62.61,4.42,14.1,10.08,27.93,16.92,41.35.53,1.04,1.07,2.08,1.62,3.11-.34-2.07-.66-4.14-.98-6.2Z"/>
      <path class="cls-6" d="M1836.26,538.15c-9.2-13.96-20.31-27-32.03-39.58,5.44,15.31,12.18,30.43,21.57,44.41,8.77,12.96,20.02,24.56,31.02,36.24-5.18-14.19-12.5-27.85-20.56-41.07Z"/>
      <path class="cls-6" d="M1929.68,827.25c22.04-12.99,43.57-26.93,61.02-44.15,6.05-6.1,12.58-12.26,16.45-19.52-11.43,9.27-24.89,16.76-36.88,25.57-14.13,9.85-26.59,21.23-38.2,33.09-2.55,2.62-5.04,5.27-7.48,7.96,1.7-.97,3.4-1.95,5.08-2.94Z"/>
      <path class="cls-1" d="M1616.87,852.49c25.24-15.47,57.23-30.37,84.67-37.93,25.01-7.09,50.49-13.16,74.78-21.86,14.83-5.31,29.53-11.29,42.07-19.82,22.66-15.03,28.85-38.83,24.77-61.72-5.52-30.24-26.17-57.52-52.94-78.18-13.98-10.79-29.58-19.99-45.18-29.09-16.38-9.52-32.78-19.02-49.16-28.54-30.09-17.31-58.68-36.32-86.36-56.17-20.21-14.72-40.7-29.29-59.1-45.58,7.14,10.91,16.13,20.92,25.44,30.63,11.76,12.14,24.44,23.67,38.14,34.34,20.25,15.67,42.97,28.97,65.54,42.24,17.45,10.14,34.93,20.24,52.35,30.4,16.71,9.78,33.24,19.94,47.53,32.12,20.55,17.19,40.66,46.05,43.29,71.86,3.98,33.7-12.76,52.08-44.67,64.98-31.18,13.26-61.66,18.96-97.91,30.17-31.12,9.44-59.65,24.38-83.06,43.79-12.66,10.32-24.44,21.37-35.49,32.88-.98,1.03-1.96,2.06-2.92,3.09,19.1-12.86,38.35-25.58,58.23-37.62Z"/>
      <path class="cls-1" d="M1577.71,803.19c13.05-9.02,27.22-16.56,39.48-22.98,10.93-5.56,21.79-11.27,33.22-16.1,21.82-9.15,48.92-16.05,60.22-35.62,17.46-38.32-56.21-54.88-86.7-68.05-16.02-6.09-44.26-19.8-52.56-24.54-37.68-20.51-73.92-44.1-102.31-73.14,12.35,22.75,32.26,42.43,54.62,58.98,25.13,18.09,54.27,32.04,84,44.31,29.86,12.62,71.46,22.05,82.48,42.73,3.23,6.41,3.32,14.14-2.36,21.39-12.22,15.66-35.86,19.37-61.4,34.6-18.83,11.61-37.35,24.13-51.47,39.78-3.26,3.53,1.13-.39,2.78-1.36Z"/>
      <path class="cls-1" d="M1469.22,511.53c-24-28.32-53.61-44.13-91.04-58.31-24.1-9.44-49.3-17.07-75.51-21.35-17.19-2.95-34.63-4.78-52.06-6.49-10.37-.95-20.73-2.26-31.18-2.41,1.38.21,2.77.45,4.15.69-7.4-.7-14.83-1.21-22.27-1.49-17.71-.65-35.44.01-53.15-.19-35.83-.54-46.65-.94-76.95-3.51-32.15-2.64-61.08-14.06-94.83-25.64,23.49,12.57,47.53,25.49,75.12,30.9,21.23,4.3,43.13,5.45,64.9,6.25,28.06,1.26,56.15.19,84.22.84,13.28.23,42.93,3.86,56.78,6.88,24.45,4.67,48.08,11.72,71.69,18.67,26.96,8.25,46.12,13.42,73.84,25.37.6.27,1.19.55,1.78.83-.36-.26-.72-.52-1.09-.78-7.25-5.09-15.24-9.41-23.37-13.49-13.05-6.4-26.55-12.16-40.36-17.36,8.32,2.8,16.88,5.93,26.37,9.58,32.77,13.09,56.44,24.57,82.99,44.64,13.79,10.4,26.59,21.66,39.56,32.75.6.52,1.2,1.03,1.8,1.55-6.67-9.54-13.64-18.96-21.39-27.93Z"/>
      <path class="cls-6" d="M1459.73,481.29c-26.31-25.05-55.53-47.88-86.27-69.19-32.63-22.93-66.98-44.18-102.78-63.62-27.48-14.8-55.15-29.44-83.9-42.52-31.54-14.29-64.3-26.71-97.85-37.43,31.42,15.81,62.39,32.23,93.67,48.24,40.7,20.45,72.76,36.65,110.71,59.43,25.91,15.51,50.81,32.14,74.93,49.49,24.95,18.36,50.09,36.54,75.88,54.09,14.56,10.02,29.23,19.94,43.69,30.06-8.85-9.85-18.33-19.31-28.09-28.55Z"/>
      <path class="cls-6" d="M1693.95,783.06c21.84-5.89,43.68-11.91,64.67-19.68,26.94-9.74,56.37-28.28,48.86-55.61-3.82-12.79-16.5-21.84-27.18-30.96-16.24-13.23-33.85-25.3-52.9-35.67-12.87-7.02-46.78-25.6-61.14-24.39,5.06.02,9.34,2.5,13.61,4.61,5.94,3.15,14.28,8.47,20.75,12.91,12.7,8.8,25.26,17.77,37.25,27.22,9.65,7.8,19.29,15.62,28.86,23.5,9.19,7.4,18.34,16.44,20.2,24.54,5.29,26.9-23.01,39.8-45.4,49.54-20.22,8.57-41.04,16.11-61.4,24.44-7.09,2.88-14.16,5.81-21.2,8.78,11.7-3.01,23.38-6.08,35.03-9.23Z"/>
      <path class="cls-6" d="M1208.89,1222.79c14.76-13.38,30.76-25.81,47.42-37.57,42.63-30.17,86.86-58.76,131.44-86.94,19.04-12.02,38.51-23.59,57.19-36,24.1-16.08,47.17-33.28,68.17-52.12,25.03-22.65,45.1-48.64,65.01-74.42,10.81-14.44,21.93-28.73,32.51-43.28,4.65-6.29,8.06-13.15,12.54-19.51-6.74,5.7-12.08,11.88-18.6,17.69-14.02,12.69-27.96,25.45-40.73,39.03-19.07,19.49-34.7,41.04-53.25,60.84-17.6,18.71-45.63,41.06-71.57,59.03-36.36,24.94-75.76,47.47-112.87,72.09-24.05,15.76-48.91,30.85-70.41,49.04-19.23,15.94-36.81,33.48-49.66,53.41-.68,1.05-1.34,2.11-1.99,3.18,1.58-1.5,3.18-2.99,4.8-4.47Z"/>
      <path class="cls-5" d="M2151.39,970.71c-.03-.07-.04-.16-.04-.24"/>
      <path class="cls-6" d="M1683.65,897.07c7.98-10.31,16.77-19.25,24.37-26.43,8.06-7.66,16.53-15.06,25.94-21.6,21.53-14.68,38.5-21.65,62.3-34.97,26.27-13.85,50.51-30.19,72.83-48.14.34-.28.69-.56,1.03-.83-6.42,3.38-12.87,6.72-19.35,10.03-17.24,8.8-34.51,17.57-52.15,25.83-17.59,8.09-35.05,16.37-51.96,25.4-12.11,6.47-24.29,13.06-34.68,21.37-16.79,14.07-30.67,30.84-39.44,49.25-5.06,10.89-6.96,22.49-9.11,33.95,6.33-11.45,11.95-23.22,20.21-33.85Z"/>
      <path class="cls-6" d="M1327.28,334.11c-11.96-16.52-24.71-32.63-37.45-48.74-22.83-29.44-46.43-58.51-72.46-86.1-26.36-28.24-56.34-53.96-87.09-78.93-29.16-23.93-59.09-47.6-93.91-65.91-9.72-5.2-19.76-10-30.15-14.23-6.94-2.67-13.91-5.54-21.43-6.89,10.31,3.66,18.46,9.32,27.53,14.98,14.94,9.73,28.92,20.41,42.72,31.21,26.18,20.59,52.51,41.05,77.82,62.39,38.83,31.98,68.9,62.82,100.66,100.88,22.76,26.61,42.27,55.05,66.17,80.99,19.35,21.16,40.07,41.46,61.54,61.17.83.76,1.66,1.51,2.48,2.27-11.59-17.95-23.72-35.66-36.43-53.08Z"/>
      <path class="cls-6" d="M1680.86,474.03c-17.09-33.18-33.73-66.54-53.12-98.87-2.73-4.67-5.49-9.33-8.21-14.01.66,3.13,1.35,6.26,2.1,9.38,3.89,16.35,8.69,32.55,14.13,48.59,5.06,14.65,10.24,29.34,17.67,43.3,17.55,32.28,42.89,61.52,71.85,87.48-16.26-24.68-30.75-50.16-44.41-75.88Z"/>
      <path class="cls-6" d="M1879.41,750.4c19.56-17.19,25.36-37.22,8.98-57.71-11.38-14.14-25.91-26.81-43.31-35.95,10.27,9.52,17.87,20.71,25.12,31.9,11.39,17.67,15.49,34.21,4.79,53.12-5.29,9.29-12.06,18-19.49,26.21,8.65-5.17,16.68-11.07,23.9-17.57Z"/>
      <path class="cls-5" d="M1112.23,968.99s-.02-.06-.03-.09"/>
      <path class="cls-6" d="M1154.74,995.21c.5.29,1.06.51,1.65.65-.53-.25-1.08-.47-1.65-.65Z"/>
      <path class="cls-1" d="M1373.6,398.36c-13.04-18.89-25.34-38.12-38.27-57.07-12.77-19.2-26.78-37.8-40.47-56.55-16.12-21.61-32.12-43.29-49.26-64.36-26.76-33.51-58.51-64.1-92.94-92.38-24.76-20.57-50.67-40.3-78.97-57.52-17.25-10.26-35.5-19.33-54.18-27.69-12.49-5.57-25.11-10.98-38.16-15.59-4.71-1.64-9.48-3.19-14.36-4.46-2.15-.49-4.34-1.2-6.6-1.07,3.35.34,6.29,2.08,9.26,3.31,6.69,3.15,10.03,4.97,15.59,8.06,12.89,7.22,25.52,14.75,38.21,22.21,22.31,13.27,44.46,26.8,65.29,41.65,32.16,23.21,62.29,48.39,90.28,75.03,44.72,42.84,86.98,103.7,125.36,156.14,12.48,17.59,26.65,34.31,41.89,50.33,11.29,12.07,23.24,23.76,36.89,34.07,1.11.85,2.24,1.7,3.37,2.54-4.55-5.41-8.81-10.98-12.94-16.62Z"/>
      <path class="cls-1" d="M1539.38,545.74c-30.07-30.2-65.39-56.34-100.08-82.8-52.01-38.72-106.46-75.29-164.08-108.18-36.16-20.36-72.51-40.59-110.29-58.85-30.96-14.7-63.32-27.38-96.57-38.14,35.43,18.04,61.67,32.76,97.72,51.97,48.12,25.23,97.66,51.84,146.52,82.8,40.32,25.57,79.27,52.62,116.74,80.99,32.74,24.67,63.96,50.67,96.62,75.41,17.82,13.42,35.75,26.74,54.26,39.5-13.23-14.48-26.59-28.89-40.83-42.7Z"/>
      <path class="cls-1" d="M2039.06,1451.82c-.02.78.12,1.56.43,2.29.04-.78-.1-1.56-.43-2.29Z"/>
      <path class="cls-1" d="M1179.83,1347.86c2.79-25.08,6.12-50.12,10.25-75.08,2.91-17.08,5.72-32.74,10.02-47.95,16.81-12.37,32.98-25.36,50.03-37.52,28.09-20.06,56.87-39.46,85.91-58.57,40.05-26.57,81.56-51.75,119.28-80.61,36.98-28.54,69.88-60.57,99.45-94.46,11.94-13.87,23.95-27.73,34.68-42.26,10.94-14.89,20.39-30.48,29.2-46.29,6.12-11,11.88-22.13,17.33-33.36-2.36,2.63-4.72,5.27-7.06,7.91-12,13.51-23.76,27.16-35.27,40.95-20.39,24.13-39.99,48.71-60.79,72.6-22.19,25.14-41.08,44.29-65.78,65.93-29.88,26.45-63.65,49.6-98.08,71.86-19.95,12.97-39.88,25.95-59.74,39.02-17.04,11.3-34.27,22.46-49.92,35.08-22.58,17.71-41.59,38.16-59.13,59.34,2.63-9.25,5.81-18.33,9.91-27.46,16.21-37.51,44.1-69.38,75.09-95.23,28.28-23.19,59.51-43.92,86.15-68.46,39.28-35.39,68.79-78.83,79.94-126.19-6.36,9.98-12.64,20.01-19.49,29.77-10.42,14.41-21.63,28.41-33.05,42.29-20.2,24.67-36.83,43.44-61.47,63.57-33.1,27.53-71.13,51.21-99.75,82.24-16.61,17.58-31.4,36.48-41.76,57.13-19.27,37.9-28.09,79.41-24.74,120.45,1.31,16.93,3.77,33.84,7.88,50.47.1.39.2.78.3,1.16.19-2.11.39-4.21.61-6.31Z"/>
      <path class="cls-1" d="M1687.95,790.26c34.76-10.3,73.49-18.29,99.11-41.73,9.14-8.47,16.59-19.36,15.92-31.02-.82-9.39-7.63-17.22-15.03-24-9.53-9.05-20.35-17.09-30.9-25.32-27.36-21.48-55.26-42.84-87.1-59.78,24.48,20.16,45.65,42.86,69.28,63.68,8.33,7.26,26.68,21.73,30.26,25.53,8.33,8.23,13.05,14.11,12.42,23.41-.76,5.81-1.26,6.93-4.88,13.12-5.79,8.48-8.33,10.63-16.94,17.17-24.34,17.22-62.16,27.32-94.77,41.89-7.43,3.18-14.81,6.46-22.05,9.93,14.82-4.44,29.77-8.61,44.66-12.87Z"/>
      <path class="cls-1" d="M1653.68,1010.89c5.1-21.13,9.54-40.82,17.1-59.6,13.82-35.16,40.21-72.97,66.9-96.7,14.98-13.51,32.49-24.82,49.97-36.01,28.71-18.89,59.74-35.23,88.17-54.41-24.68,10.93-49.96,20.96-74.02,32.82-22.47,10.99-43.72,23.67-63.31,37.94-21.37,15.36-39.05,33.9-53.91,53.76-19.49,25.2-32.28,52.93-33.72,83.03-.62,13.48-.29,26.99,1.24,40.42.15,1.26.31,2.53.48,3.79.35-1.68.72-3.35,1.09-5.02Z"/>
      <path class="cls-3" d="M1716.44,935.07c-.03-.05-.08-.1-.13-.14"/>
      <path class="cls-3" d="M1708.68,966.6s.03-.06.03-.09"/>
      <path class="cls-2" d="M1545.75,837.32c13.09-10.43,26.93-20.15,40.75-29.9,12.81-9.09,25.08-18.84,38.96-26.83-3.41.99-6.75,2.12-10.05,3.33,1.69-1.25,3.39-2.49,5.13-3.7-2.67.95-5.3,1.98-7.9,3.08,2-1.13,4.01-2.27,6.01-3.4,15.25-8.82,35.79-19.84,51.13-32.55,2.09-1.19,4.17-2.38,6.25-3.59,7.48-4.52,15.53-9.69,18.75-17.13,2.07-5.77.57-12.09-2.71-17.36-1.91-2.89-4.4-5.47-7.18-7.81-5.45-6.75-13.16-12.22-21.69-16.18-9.05-3.8-18.64-6.85-28.38-9.2,15.38,8.29,30,14.55,43.87,22.58,2.67,3.73,5.05,7.88,5.78,10.94,2.35,8.86-.83,16.83-6.12,21.03-7.45,6.4-16.25,11.58-24.09,17.64-.87.65-1.72,1.31-2.58,1.97-6.56,3.44-13.44,6.92-22.13,11.58-17.2,8.69-47.25,28.43-61.67,46.66-.66.8-1.29,1.62-1.94,2.43-10.16,8.08-18.8,17.44-25.59,27.69-1.31,1.86-2.6,3.73-3.88,5.6,3.14-2.25,6.23-4.54,9.27-6.88Z"/>
      <path class="cls-2" d="M1661.64,939.06c1.45-12.24,3.33-24.45,5.26-36.64,1.87-13.78,9.06-29.45,18.36-37.32,6.38-5.73,13.54-10.81,20.25-16.26,8.86-7.06,17.39-14.45,27.1-20.74,16.45-10.52,42.49-20.39,65.09-31.73-17.75,10.83-35.87,21.25-53.3,32.42-14.65,10.1-30.23,19.59-42.62,31.67-7.61,7.33-13,16.05-16.77,25.15-7.2,17.97-10.96,36.75-14.39,55.42,5.13-9.66,10.39-19.27,15.5-28.93,8.94-17.26,20.28-37.29,33.38-48,14.33-11.9,30.37-22.34,46.13-32.92,14.44-9.3,29.72-17.65,44.28-26.82,20.72-13.05,42.78-25.09,60.36-41.13,13.18-12.43,26.5-27.38,25.75-44.69-3.24-27.95-33.2-47.44-57.22-64.54,18.25,20.42,40.73,41.91,38.1,66.78-1.33,11.18-11.52,24.87-22.45,35.8-1.58,1.54-3.22,3.03-4.89,4.5,1.54-1.48,3.07-2.96,4.55-4.49,20.51-20.69,19.54-44.14,4.79-67-11.14-18.89-27.36-35.37-46.29-49.31-10.65-7.77-21.39-15.78-33.84-21.53,4.64,3.05,8.42,6.9,12.31,10.56,3.32,3.27,9.22,9.17,13.49,13.88,14.65,15.26,26.35,32.25,35.37,50.22,11.08,19.61,13.53,38.86-3.05,57.44-13.47,15.54-37.46,31.8-57.63,41.04-25.14,12.73-53.29,22.04-74.95,38.97-9.7,7.55-19.21,15.27-28.44,23.21-8.65,7.25-15.97,15.82-18.55,25.93-2.89,9.61-2.55,19.62-1.34,29.4,1.16,9.99,2.62,19.98,4.87,29.85.18.76.36,1.52.55,2.27.08-.83.17-1.67.26-2.5Z"/>
      <path class="cls-2" d="M1618.97,846.96c7.81-6.01,16.24-11.42,24.67-16.82.44-.28.89-.56,1.33-.84,27.55-17.16,51.55-35.42,78.14-46.94,17.26-8.01,35.48-15.02,50.66-25.68,17.53-12.12,29.6-30.09,22.18-49.15-7.34-22.42-34.1-38.82-54.9-53.09-17.2-11.27-35.29-21.59-52.11-33.26-18.26-12.24-36.17-24.83-54.27-37.24-13.27-8.87-26.36-18.05-40.79-25.62,12.54,10.28,23.51,21.8,35.43,32.56,13.13,12.16,26.9,23.87,41.74,34.61,13.71,10.07,28.86,18.66,43.38,27.89,14.49,8.91,37.8,25.51,45.44,32.98,21.89,21.02,22.08,41.6,5.1,58.28-15.44,13.94-27.76,18.29-47.35,27.31-12.79,5.69-25.52,11.56-37.27,18.64-12.28,7.38-23.36,15.98-34.16,24.76-10.71,8.57-21.53,17.13-30.87,26.76-6.89,7.13-12.32,15.12-18.1,22.87,7.31-5.96,14.28-12.2,21.75-18.03Z"/>
      <path class="cls-2" d="M1727.51,545.84c-8.52-13.51-16.8-27.13-25.69-40.48-8.61-13.17-17.7-26.14-25.57-39.63-11.08-19.13-20.77-38.79-30.99-58.23-6.03-11.65-11.84-23.39-16.96-35.34-3.25-7.23-5.41-14.78-8.74-21.99.81,9.88.76,19.83,2.73,29.63,3.71,20.96,10.8,41.45,19.5,61.35,20.36,43.6,51.41,83.52,87.59,119.3,6.52,6.34,13.17,12.61,20.13,18.63-7.5-11-14.77-22.11-21.99-33.23Z"/>
      <path class="cls-3" d="M1824.77,1090.12s-.04,0-.05,0"/>
    </g>
  </g>
</svg>