<?xml version="1.0" encoding="UTF-8"?>
<svg id="Layer_2" data-name="Layer 2" xmlns="http://www.w3.org/2000/svg" viewBox="0 0 2115.74 1360.88">
  <defs>
    <style>
      .cls-1, .cls-2, .cls-3 {
        stroke: #35d4ff;
        stroke-miterlimit: 10;
      }

      .cls-1, .cls-4 {
        fill: #35d4ff;
      }

      .cls-2, .cls-5 {
        fill: #fff;
      }

      .cls-4, .cls-5, .cls-6 {
        stroke-width: 0px;
      }

      .cls-3, .cls-6 {
        fill: #186175;
      }
    </style>
  </defs>
  <g id="Vector_layer" data-name="Vector layer">
    <g>
      <path class="cls-4" d="M274.88,691.51c-33.86-10.42-44.52-65.87-9.62-81.76,11.71-5.33,25.62-2.7,35.54,5.15,7.89,6.25,13.11,15.27,15.21,25,.57,1.5,1.07,3.03,1.5,4.58-.02-.05-.03-.1-.05-.16,3.1,11.23,2.04,23.77-4.19,33.75-6.6,10.58-18.12,15.75-29.95,15-2.82-.18-5.65-.69-8.44-1.55ZM286.7,684.59c1.14-.01,2.26-.08,3.39-.2.83-.13,1.66-.29,2.49-.47,1.17-.32,2.31-.68,3.45-1.11,1.05-.45,2.06-.95,3.06-1.49,1.22-.73,2.38-1.54,3.5-2.41,1.13-.95,2.2-1.95,3.21-3.03,1.12-1.27,2.16-2.6,3.11-4,1.18-1.85,2.19-3.77,3.08-5.78.88-2.16,1.58-4.36,2.11-6.56,0-.04.02-.08.03-.12v-.05c.48-2.19.79-4.4.94-6.63.14-2.66.09-5.3-.19-7.96-.18-1.46-.42-2.9-.72-4.32-.24-.62-.48-1.24-.74-1.86,0,0,0,0,0,0-1.02-2.27-2.17-4.44-3.44-6.52-1.04-1.6-2.14-3.13-3.33-4.62-1.11-1.31-2.28-2.56-3.52-3.76-1.2-1.1-2.44-2.13-3.74-3.12-1.29-.91-2.6-1.77-3.98-2.53-1.05-.55-2.12-1.05-3.22-1.51-1.18-.45-2.38-.83-3.59-1.17-1.07-.25-2.13-.46-3.22-.62-1.07-.11-2.12-.18-3.19-.21-.86.02-1.71.06-2.56.13-1.08.14-2.15.33-3.21.57-.99.27-1.95.59-2.91.94-1.07.46-2.11.97-3.14,1.53-1.04.64-2.03,1.32-2.99,2.05-1.07.89-2.06,1.83-3.02,2.83-1.03,1.17-1.98,2.4-2.85,3.7-.93,1.5-1.76,3.06-2.21,3.99-.15.35-.3.7-.45,1.05-.71,1.79-1.29,3.59-1.77,5.44-.54,2.44-.88,4.87-1.05,7.36-.08,2.43.02,4.81.25,7.22.3,2.24.72,4.45,1.29,6.65.6,2.05,1.32,4.06,2.14,6.04.86,1.85,1.8,3.63,2.85,5.39.93,1.43,1.92,2.8,2.98,4.13,1.03,1.2,2.13,2.35,3.28,3.45.87.76,1.76,1.49,2.68,2.2,1.13.79,2.28,1.53,3.47,2.22,1.04.52,2.08,1.02,3.15,1.47,1.01.37,2.02.69,3.06.97.85.2,1.69.36,2.54.49.99.11,1.98.19,2.98.22Z"/>
      <path class="cls-4" d="M447.7,1208.16c-41.39-5.38-78.07-30.5-100.19-65.49-22.63-35.81-25.87-82.18-10.12-121.22,15.78-39.12,50.71-68.54,91.11-79.67,42.71-11.75,88.91-2.62,123.86,24.53,33.75,26.23,52.36,68.71,48.68,111.29-1.06,12.36-4.06,24.68-8.79,36.27-5.94,24.34-19.11,46.89-38.95,63.93-26.71,22.94-61.45,33.48-96.22,31.26-3.13-.2-6.26-.5-9.38-.91ZM479.6,1182.91c4.41-.25,8.79-.69,13.18-1.31,4.6-.83,9.12-1.88,13.62-3.13,4.45-1.41,8.82-3.01,13.14-4.82,4.55-2.07,8.96-4.35,13.27-6.88,4.52-2.81,8.84-5.86,12.99-9.18,4.71-3.93,9.12-8.14,13.27-12.66,3.91-4.45,7.53-9.12,10.76-13.94,3.73-5.8,6.96-11.82,9.69-17.86.04-.1.08-.2.12-.3l.06-.14c.58-1.38,1.13-2.76,1.66-4.15,1.18-5.76,1.99-11.54,2.49-17.43.31-7.26.12-14.37-.57-21.58-1-6.79-2.34-13.38-4.13-19.99-1.67-5.07-3.53-10-5.59-14.91-2.47-5.14-5.13-10.1-8.12-14.98-2.88-4.27-5.93-8.38-9.21-12.36-3.65-4.07-7.48-7.9-11.54-11.57-3.39-2.79-6.85-5.42-10.43-7.97-4.12-2.6-8.27-5.04-12.58-7.33-3.61-1.69-7.26-3.26-10.98-4.72-4.38-1.46-8.78-2.76-13.27-3.84-4-.78-8.02-1.42-12.06-1.86-4.05-.3-8.1-.4-12.17-.35-4.19.22-8.35.61-12.51,1.17-4.31.78-8.53,1.73-12.77,2.85-3.96,1.24-7.84,2.63-9.15,3.05-1.2.53-2.42,1.07-3.62,1.6-3.91,1.86-7.72,3.81-11.48,5.96l-.45.28c-4.11,2.66-8.09,5.46-11.92,8.49-3.85,3.34-7.52,6.82-11.01,10.52-3.65,4.22-7.06,8.58-10.23,13.17-3.28,5.22-6.22,10.57-8.82,16.18-2.55,6.12-4.68,12.34-6.38,18.76-1.39,6.32-2.32,12.66-2.88,19.11-.22,5.97-.1,11.88.36,17.84.79,6.2,1.93,12.29,3.49,18.34,1.69,5.58,3.71,11.02,6.07,16.34,2.13,4.35,4.48,8.56,7.05,12.66,2.96,4.31,6.11,8.45,9.5,12.45,3.15,3.34,6.39,6.55,9.79,9.64,3.36,2.76,6.79,5.36,10.35,7.84,3.6,2.3,7.28,4.43,11.07,6.4,3.64,1.71,7.31,3.26,11.07,4.69,3.94,1.31,7.88,2.46,11.91,3.45,4.36.88,8.72,1.57,13.14,2.07,4.62.33,9.2.46,13.83.39Z"/>
      <g>
        <path class="cls-1" d="M1598.88,940.67c-7.65.6-27.73,2.5-35.38,2.73,12.32-2.19,24.5-4.92,36.54-8.14,26.22-13.49,51.88-27.78,77.05-43.2,48.27-29.55,88.87-69.22,128.91-108.76,51.88-49.7,101.82-102.47,143.05-161.25-74.23,83.08-173.99,144.31-280.79,174.18-94.5,25.09-194.89,19.26-289.53-2.24-39.86-9.57-78.91-21.55-117.39-35.18-15.16-8.26-31.04-15.14-47.45-20.48-8.28-2.69-16.58-5.07-24.93-7.17-84.43-34.4-166.76-74.62-249.54-112.21-139.53-66.62-306-144.07-456.22-64.66-136.94,61.34-213.84,199.6-240.8,341.89-19.2,94.17-22.77,191.85-55.6,282.59,24.99-107.82,12.89-219.61,30.04-328.69,20.13-159.66,109.78-312.66,257.25-385.24,108.07-59.6,238.47-50.02,352.22-12.05,167.77,57.92,327.07,138.26,495.53,194.47,177.28,59.06,348.1,60.84,503.72-53.75,69.42-49.05,180.28-162.08,148.68-253.27-77.53,50.18-112.02,144.95-176.82,208.97-101.33,111.17-257.8,132.44-397.88,96.28.77.09,1.53.17,2.3.26,2.76.3,5.52.67,8.29.9,1.77.14,3.54.29,5.32.43.56.05,1.13.09,1.7.13,1.65.1,3.32.13,4.89-.23.67-.15,1.3-.37,1.89-.68.98.09,1.97.14,2.96.17,1.09.19,2.17.37,3.26.53,2.65.39,5.84.39,8.18-.95,1.07.14,2.13.29,3.19.44,1.59.22,3.06.32,4.61-.22,1.41-.48,2.58-1.47,3.37-2.7.62-.08,1.22-.18,1.83-.3.82-.16,1.58-.57,2.33-.91.92-.41,1.67-1.04,2.24-1.81,108.41,4.12,219.51-31,292.93-113.46,19.87-22.5,36.62-47.15,52.3-72.55-83.96,65.87-169.92,102.23-300.53,87.21-90.19-8.67-175.22-47.1-242.87-106.91.4.21.8.43,1.2.64-.68-.51-1.32-1.01-1.93-1.5,102.79,38.72,221.7,50.98,327.53,17.66,77.08-26.9,133.26-88.29,186.48-147.29,26.22-27.58,54.14-59.33,84.23-89.67,34.97-39.55,72.47-76.85,106.76-117.02,28.06-32.36,55.88-64.93,84.34-96.92,1.64,1.59,3.27,3.21,4.87,4.86,2.42,3.02,4.77,6.08,7.08,9.19,3.93,6.26,7.61,12.64,11.11,19.16,4.66,10.06,8.9,20.26,12.82,30.64,6.15,18.69,11.28,37.64,15.66,56.82,6.32,32.06,10.97,64.44,13.79,96.99.23,3.04.46,6.07.67,9.11,3.5,54.01,3.82,108.19,1.3,162.25-2.03,35.68-4.82,71.31-8.76,106.84-5.8,52.2-13.46,104.13-22.76,155.82-8.23,43.34-17.52,86.45-27.96,129.32-12.15,49.89-26.08,99.31-41.22,148.37-1.57,4.12-2.89,8.34-3.97,12.63-7.22,22.17-8.04,49.16-15.93,71.1-7.3-29.01-3.85-66.14-3.34-95.72,5.69-64.71,14.61-129.21,17.69-194.12-106.61,111.44-255.82,201-408.85,217.06"/>
        <path class="cls-6" d="M1344.6,486.82c-36.31-11.26-70.05-30.74-95.3-60.15-18.54-21.59-32.17-47.28-40.25-74.84-.01-.03-.02-.07-.04-.11,0,0,0-.01,0-.02-.02-.03-.02-.07-.03-.1h0c-.3-1.01-.59-2.04-.87-3.05-.01-.02.02-.05.03-.02.41.93.82,1.88,1.23,2.81l.04.07s0,.01,0,.02c0,0,0,0,0,0,0,.01.01.02.02.04,1.72,3.63,3.38,7.29,5.17,10.79,4,7.72,8.43,15.14,13.26,22.22.03.05.06.1.1.15l.02.02c4.85,6.94,10.1,13.54,15.77,19.8,5.2,5.58,10.68,10.82,16.47,15.75,7.15,5.86,14.64,11.14,22.5,15.95,8.06,4.66,16.34,8.71,24.92,12.28,10.43,4.02,21.01,7.22,31.86,9.75,14.53,2.97,29.1,4.67,43.91,5.34,19.44.39,38.71-.94,57.97-3.66,24.96-4.03,49.4-10.16,73.49-17.98,34.67-11.74,68.19-26.62,100.66-43.77,0,0,.01,0,.02,0,.02-.01.04-.02.06-.03,0,0,0,0,0,0,.04-.01.07-.03.1-.05.42-.22.81-.43.86-.45,32.35-17.45,63.64-36.91,94-57.78,13.7-9.4,27.16-19.16,40.4-29.12.02-.02.05-.04.07-.06.13-.09.25-.19.38-.28.31-.24.63-.49.97-.74,0,0,0,0,0,0,29.67-22.67,58.26-46.78,85.76-72.19,13.82-12.78,27.32-25.93,38.91-37.76,1.21-1.24,2.42-2.48,3.63-3.73,25.06-25.88,49.12-52.82,71.67-81.04,8.72-9.01,17.46-18,26.15-27.04,0,0,0,0,.01-.01.07-.07.14-.14.2-.21.02-.02.05-.05.07-.07,0,0,0,0,.01-.01-.01.01-.03.03-.04.04.03-.03.06-.06.09-.1-.02.02-.04.04-.05.05,0,0,.01-.01.02-.02,0,0-.02.02-.03.03-.02.02-.05.05-.07.07,0,0,0,0,0,0-.07.07-.14.14-.21.22-.04.04-.08.08-.12.12,3.46-3.57,6.91-7.15,10.37-10.73,5.96-6.16,11.92-12.33,17.88-18.5-4.79,9.56-9.77,19.03-14.92,28.4-.32.58-.64,1.17-.76,1.38-18.56,33.85-39.39,66.4-62.04,97.52-23.48,32.24-48.89,62.91-76.15,91.84-26.42,28.05-54.57,54.44-84.38,78.65-29.38,23.86-60.28,45.95-92.96,64.79-32.65,18.82-66.55,35.36-101.89,48.11-36.65,13.21-74.73,23.1-113.45,26.75-18.67,1.76-37.68,2.33-56.54,1.13-20.01-1.27-39.86-4.54-58.99-10.47Z"/>
        <path class="cls-3" d="M1751.06,298.87s-.03.02-.04.03c.01-.01.03-.02.04-.03Z"/>
        <path class="cls-3" d="M1572.38,927.13s-.03-.04,0-.04c3.99.06,7.98-.33,11.93-.9,6.72-1.09,13.27-2.82,19.69-4.93,13.11-4.51,25.57-10.5,37.75-17.09,25.67-14.31,49.65-31.35,72.79-49.4,1.14-.9,2.28-1.8,3.17-2.5.09-.07.17-.14.25-.2l.02-.02c28.59-22.84,55.88-47.26,82.25-72.62,22.23-21.39,44.08-43.18,65-65.86l.03-.03c23.71-25.76,46.36-52.52,67.18-80.68,4.99-6.75,9.83-13.62,14.56-20.56,10.89-16.13,21.02-32.77,29.65-50.22,4.25-8.76,8.12-17.71,11.18-26.81,1.28-3.89,2.45-7.81,3.44-11.78,0-.03.04-.01.04,0,0,.03-.01.06-.01.08-.28,4.4-1.11,8.81-1.91,13.13-2.67,14.33-7.16,28.31-12.39,41.9-12.52,32.57-29.79,63.33-48.96,92.42-19.5,29.61-41.22,57.77-64.81,84.22-24.17,27.11-50.17,52.38-78.27,75.4-29.24,23.94-60.37,45.57-93.59,63.64-15.9,8.64-32.38,16.37-49.42,22.5-16.69,6-34.32,10.95-52.15,11.5-3.01.1-6.03.08-9.03-.12-2.81-.18-5.61-.51-8.39-1.03Z"/>
        <path class="cls-3" d="M2005.61,668.93c.07-.13.14-.09.03.03-.02.02-.04-.01-.03-.03Z"/>
        <path class="cls-3" d="M2050.69,681.48c33.52,14.6-31.12,202.56-53.29,270.41-.97,16.25-1.83,32.49-2.4,48.75.04,0,.05.26-.03.21-1.14-10.82-2.08-21.64-2.82-32.44-.22.71-.41,1.38-.59,1.99.17-.98.35-1.96.53-2.94-6.11-90.76,1.34-181.31,9.77-272.16.4,7.73.79,15.47,1.15,23.21,7.9-12.76,34.05-43.62,47.68-37.03Z"/>
        <path class="cls-6" d="M341.95,1193.32c-76.23-256.72,79.88-526.52,350.97-561.63,117.72-17.5,234.26,16.4,347.24,45.76,83.64,21.67,169.66,32.64,255.23,43.2,56.52,6.62,112.92,15.26,169.81,18.01,67.83,1.8,135.5-7.09,202.94-13.3,2.57-.25,5.1-.74,7.56-.94-25.5,7.5-51.58,13.28-77.49,19.15-82.08,22.2-166.62,28.58-251.36,24.65-114.01-1.95-228.58-6.46-340.2-31.62-97.76-20.87-197.78-43.71-298.27-32.33-132.2,13.76-247.23,85.26-313.47,201.06-29.84,51.28-46.96,108.89-53.04,167.77-3.26,44.53-5.31,91.53,6.41,134.73.06-.01.11-.03.16-.04.31-.32.28-1.05.48-1.31-1.28,7.14-6.67-12.13-6.96-13.14Z"/>
        <path class="cls-3" d="M318.89,1166.47c-19.58-145.61,11.82-302.43,95.12-424.42,36.69-50.37,93.85-85.73,154.93-97.55-15.44,5.33-30.26,12.83-44.3,21.34-39.86,24.2-74.26,57.08-97.24,97.87-61.17,115.11-113.9,290.72-103.43,421.2,0,0,0,0,0,0,.02.02.04.03.05.05h0s0,0,0,0t.01,0c-1.51.31-4.85-17.15-5.14-18.47Z"/>
        <path class="cls-6" d="M348.86,1273.53c-17.98-64.91-42.23-130.5-45.48-198.09.34-134.6,62.73-277.28,170.99-359.08,31.74-23.46,78.02-53.23,109.68-61.56-51.41,29.93-96.25,71.5-134.84,116.54-36.4,45.46-62.93,97.71-84.43,151.61-17.42,45.3-32.18,91.94-37.73,140.32-6.09,71.32,13.05,140.21,21.82,210.25Z"/>
        <path class="cls-6" d="M376.25,1335.88c-13.82-32.67-23.3-67.44-30-102.21-7.17-37.21-10.38-75.21-9.81-113.09.57-38.15,5.13-76.26,14.46-113.27,9.39-37.28,23.13-73.33,41.41-107.16,17.52-32.44,39.93-62.9,66.82-88.21,13.58-12.78,28.24-24.44,44.08-34.3,0,0,0,0,0,0,.04-.03.1.05.06.08-8.67,7.64-16.87,15.8-24.64,24.33-12.69,14.09-24.08,29.17-34.56,44.96-11.8,18.34-22.21,37.41-31.41,57.18-10.13,22.46-18.67,45.5-25.86,69.07-8.47,28.91-14.74,58.23-19.71,87.94-.2,1.28-.4,2.56-.6,3.81-4.55,30.54-7.37,61.16-8.43,92.02-.67,30.13.38,60.14,3.14,89.15,2.76,26.99,7.01,53.75,12.89,80.22,0,.03.01.06.02.09,0,0,0,.02,0,.03,0,0,0,0,0,0,.71,3.12,1.4,6.25,2.18,9.36,0,.02,0,.03-.02.03,0,0-.01,0-.02-.01Z"/>
        <path class="cls-5" d="M1542.68,487.2c-10.2-10.71-13.16-26.93-9.31-40.97,1.98-16.34,13.5-31.86,31.67-31.11,35.55,1.45,48.74,54.92,21.92,75.81-6.68,5.21-14.43,7.46-22.02,6.98-8.12-.52-16.05-4.17-22.26-10.7ZM1563.36,490.1c1.01,0,2.01-.04,3.02-.13,1-.14,1.99-.33,2.98-.55.77-.23,1.52-.48,2.28-.74,1.06-.45,2.08-.93,3.1-1.47,1.15-.71,2.23-1.47,3.31-2.28,1.04-.9,2.03-1.83,2.99-2.82,1.04-1.22,2.01-2.48,2.93-3.79,1.12-1.81,2.09-3.65,2.98-5.58.85-2.18,1.56-4.38,2.15-6.64.47-2.25.79-4.48,1.01-6.76.12-2.53.09-5.02-.12-7.54-.26-2.13-.64-4.22-1.13-6.3-.56-1.98-1.21-3.91-1.97-5.83-.73-1.6-1.52-3.16-2.39-4.68-.85-1.33-1.74-2.61-2.7-3.85-.98-1.15-1.99-2.24-3.07-3.29-.83-.72-1.67-1.42-2.54-2.08-.82-.57-1.66-1.1-2.52-1.62-.96-.5-1.92-.96-2.91-1.4-.91-.34-1.83-.65-2.77-.92-.79-.18-1.59-.34-2.39-.49-.95-.12-1.9-.2-2.86-.25-.97,0-1.94.04-2.91.12-1.06.13-2.1.31-3.14.54-1.02.27-2.01.59-3.01.95-1.23.5-2.4,1.06-3.56,1.69-1.17.69-2.29,1.44-3.37,2.25-1.32,1.05-2.57,2.18-3.57,3.22-1.44,1.55-2.74,3.2-3.82,4.81-1.26,1.9-2.34,3.92-3.25,5.97-.81,1.87-1.49,3.8-2.03,5.76-.05.48-.09.97-.13,1.46-.14,2.69-.07,5.34.17,8.03.33,2.65.82,5.22,1.49,7.79.62,2.04,1.32,4.03,2.14,6,.74,1.59,1.54,3.13,2.21,4.36,1.18,1.93,2.46,3.75,3.87,5.52.78.89,1.58,1.74,2.4,2.59,1.11,1.02,2.24,1.99,3.43,2.92.86.59,1.72,1.16,2.61,1.71,1.1.59,2.21,1.15,3.36,1.66.93.35,1.87.66,2.82.94.95.22,1.89.4,2.84.56.69.07,1.38.12,2.06.17Z"/>
        <path class="cls-5" d="M1796.09,310.14c-17.87-6.33-32.22-19.29-41.98-35.37-11.48-18.92-15.79-42.29-11.67-64.05.84-23.68,11.63-47.85,34.23-58.05,17.28-7.79,37.63-5.63,54.01,3.46,16.72,9.27,29.93,23.82,38.33,40.95,16.96,34.64,14.66,82.19-18.82,106.21-10.8,7.75-24.25,11.08-37.42,10.24-5.69-.36-11.32-1.5-16.68-3.39ZM1808.02,297.34c1.49.04,2.96.04,4.45.02,2.07-.17,4.12-.42,6.18-.76,1.99-.47,3.94-1.01,5.88-1.64,1.97-.79,3.88-1.64,5.77-2.59,1.89-1.11,3.7-2.29,5.49-3.55,1.79-1.45,3.5-2.95,5.17-4.54,2.36-2.56,4.48-5.23,6.47-8.09,1.66-2.7,3.13-5.45,4.49-8.31,1.47-3.61,2.72-7.24,3.79-10.99,1.1-4.82,1.85-9.64,2.31-14.56.18-4.34.12-8.63-.14-12.96-.48-4.55-1.2-9.01-2.18-13.48-.96-3.59-2.04-7.11-3.28-10.61-1.51-3.75-3.17-7.4-5.05-10.98-1.96-3.41-4.09-6.68-6.39-9.87-1.72-2.17-3.49-4.27-5.35-6.32-2.19-2.21-4.46-4.32-6.84-6.33-1.81-1.39-3.66-2.71-5.56-3.98-1.94-1.16-3.9-2.26-5.91-3.29-1.86-.84-3.73-1.61-5.64-2.33-.45-.15-.91-.3-1.36-.45-1.79-.52-3.57-.97-5.38-1.37-1.82-.3-3.63-.55-5.47-.73-2.11-.11-4.2-.13-6.31-.05-2.05.18-4.08.45-6.12.81-2.41.54-4.77,1.22-6.46,1.81-2.16.82-4.24,1.76-6.29,2.81-2.32,1.29-4.53,2.71-6.67,4.29-2.18,1.71-4.24,3.54-6.19,5.5-2.57,2.72-4.87,5.62-6.97,8.72-2.23,3.47-4.15,7.07-5.72,10.61-1.71,4.05-3.09,8.2-4.16,12.46-.35,1.44-.66,2.9-.93,4.36-.05,3.26.06,6.52.31,9.75,0,.03,0,.06,0,.1v.05c.49,4.9,1.32,9.69,2.36,14.15,1.12,4.36,2.49,8.61,4.08,12.83,1.62,3.92,3.41,7.74,5.42,11.48,2.04,3.54,4.23,6.94,6.62,10.25,2.21,2.83,4.5,5.55,6.93,8.18,1.99,1.98,4.02,3.87,6.14,5.71,2.16,1.71,4.34,3.33,6.61,4.89,2.31,1.41,4.64,2.72,7.05,3.96,2.1.94,4.2,1.8,6.36,2.59,2.12.64,4.24,1.2,6.41,1.68,2.03.33,4.05.58,6.1.76Z"/>
        <path class="cls-6" d="M343.19,1358.69c-100.14-57.92-163.29-92.87-283.4-66.85-16.11,1.44-43.22,17.57-55.71,3.52-15.35-21.77,16.55-35.85,29.96-47.97,43.91-34.88,92.17-65.46,130.71-106.47,1.28-1.63,2.41-3.46,3.37-5.15-4.2,11.38-13.37,20.56-20.84,29.94-26.41,30.39-55.23,58.55-83.79,86.9,77.14-26.21,162.24-19.99,235.77,14.56-30.37-74.57-57.6-152.23-60.27-233.47-3.85-142.58,53.7-290.71,166.03-381.41,67.42-56.11,154.82-83.2,241.75-85.48,225.21-10.88,424.85,106.55,627.25,187.33,51.35,19.54,104.71,34.07,159.36,40.38,22.82,2.51,45.87,5.48,68.95,7.26,1.09.16,2.19.31,3.28.47,2.15.31,4.28.75,6.41,1.17,4.9.96,9.81,1.91,14.7,2.88,4.41.86,8.77,1.9,13.14,2.96-197.91,30.51-377.13-51.03-561.2-109.19-129.98-37.44-271.28-61.9-404.18-25.58-122.8,35.15-209.95,146.88-242.06,267.14-29.1,98.12-8.16,198.73,24.17,293.2,7.12,29.66,34.78,77.01,25.85,104.61-3.52,13.48-16.83,22.23-30.2,21.38-3.05-.19-6.1-.88-9.04-2.13Z"/>
        <path class="cls-6" d="M1496.1,698.85c-126.13-10.24-251.11-48.82-358.43-116.39-6.43-4.07-12.65-8.71-18.78-12.92,5.1,2.31,10.04,4.93,15.12,7.29,130.17,56.12,275.05,78.58,416.27,68.24,71.92-7.01,142.94-23.83,209.92-50.91,55.24-61.28,105.7-126.28,145.7-198.65,22.26-32.64,52.51-114.14,93.26-120.07,21.07.36,27.91,26.32,25.61,43.6-15.29,107.68-59.4,218.08-149.53,284.17-107.57,78.97-248.07,103.56-379.15,95.64ZM1930,419.22c-22.47,30.17-45,60.45-69.76,88.8-25.37,27.8-53.98,52.31-81.61,77.81,96.29-43.73,157.63-117.33,187.34-218.42-12.1,17.3-23.54,34.76-35.96,51.81Z"/>
        <path class="cls-5" d="M1447.43,658.06c-34.42-2.47-68.65-7.23-102.42-14.31-24.44-5.12-48.62-11.49-72.39-19.09-5.02-1.6-10.02-3.27-14.99-4.99-.02,0,0-.04.02-.04,5.87.99,11.75,1.95,17.63,2.84,20.74,3.16,41.6,5.66,62.13,7.59.25.02.49.05.73.07.31.03.61.05.91.08,34.25,3.11,68.62,4.71,103,4.89,27.21.14,54.41-.69,81.56-2.41,33.98-2.26,68-5.6,101.61-11.25,9.97-1.68,19.91-3.56,29.13-5.54.41-.09.82-.18,1.23-.27h.06c19.92-4.39,39.62-9.82,58.79-16.83,11.46-4.27,22.69-9.13,33.52-14.82,7.18-3.85,14.16-8.04,20.83-12.72,4.87-3.49,9.57-7.2,13.97-11.18,3.6-3.32,7-6.82,10.04-10.36,2.67-3.17,5.14-6.47,7.41-9.91.78-1.21,1.58-2.42,2.27-3.67h0c.08-.14.29-.07.22.11,0,0,0,.01,0,.02h0s0,0,0,0c-11.22,27.32-34.49,47.71-58.84,63.33-27.69,17.75-58.8,30.04-90.27,39.24-33.48,9.79-68.18,15.96-102.93,18.87-32.36,2.7-64.95,2.79-97.35.73-1.95-.12-3.9-.26-5.86-.4Z"/>
        <path class="cls-5" d="M668.7,810.57c-20.28-1.86-39.16-10.92-53.46-25.34-27.29-27.49-28.67-72.71-9.01-104.82,13.61-22.25,34.86-39.3,59.48-47.16,19.28-9.58,41.21-13.23,62.69-8.77,17.72,3.68,34.46,14.3,44.97,29.09,11.91,16.77,16.97,37.5,14.85,57.93-3.97,38.3-30.02,73.17-64.9,89.21-16.33,7.51-33.94,11.21-51.86,10.07-.92-.06-1.83-.13-2.75-.21ZM676.17,782.65c5.23-.18,10.4-.77,15.55-1.7,5.36-1.17,10.58-2.68,15.75-4.5,5.42-2.16,10.64-4.62,15.73-7.47,4.48-2.71,8.76-5.68,12.89-8.91,4.03-3.39,7.83-6.99,11.41-10.85,2.7-3.14,5.26-6.38,7.64-9.71l.54-.81c2.04-3.19,3.95-6.43,5.7-9.79,1.49-3.13,2.83-6.3,4.03-9.55.96-2.94,1.79-5.9,2.51-8.91.56-2.92,1-5.83,1.33-8.79.18-2.93.24-5.85.18-8.79-.19-2.56-.46-5.09-.83-7.63-.48-2.42-1.05-4.81-1.69-7.19-.82-2.44-1.7-4.83-2.69-7.21-1.04-2.16-2.15-4.27-3.33-6.36-1.33-2.07-2.71-4.09-4.19-6.06-1.84-2.24-3.77-4.35-5.82-6.41-2.07-1.91-4.21-3.71-6.44-5.42-2.88-2.03-5.85-3.88-8.95-5.57-3.73-1.85-7.53-3.43-11.46-4.8-4-1.23-8.02-2.2-11.67-2.88-5.32-.82-10.63-1.24-16.02-1.23-5.75.12-11.42.72-17.04,1.73-4.24.85-8.4,1.92-12.5,3.23-2.15,1.1-4.28,2.26-6.33,3.45-.02.01-.03.02-.05.03l-.03.02c-4.54,2.8-8.87,5.83-13.06,9.13-4.35,3.62-8.41,7.47-12.27,11.61-3.27,3.71-6.3,7.56-9.15,11.6-2.77,4.2-5.25,8.51-7.53,12.99-1.64,3.56-3.09,7.14-4.41,10.82-1.06,3.4-2,6.8-2.77,10.27-.58,3.17-1.03,6.34-1.34,9.55-.16,2.77-.21,5.51-.14,8.28.15,2.49.4,4.96.73,7.44.51,2.74,1.11,5.44,1.84,8.14.8,2.46,1.69,4.86,2.69,7.24.93,1.95,1.91,3.85,2.98,5.73,1.21,1.91,2.46,3.77,3.81,5.59,1.69,2.07,3.45,4.04,5.32,5.94,2.14,1.97,4.35,3.8,6.66,5.54,2.21,1.5,4.46,2.88,6.78,4.18,3.25,1.62,6.55,3.04,9.98,4.27,3.7,1.13,7.41,2.05,11.21,2.76,4.81.67,9.6,1.01,14.45,1.01Z"/>
        <path class="cls-2" d="M894.94,1012.59s.2-.16.17-.06c-.04.02-.17.15-.17.06Z"/>
        <path class="cls-2" d="M1733.33,856.09s-.03-.02-.01-.04.03-.02.05-.03h0s0,0,0,0h0c.32-.26.66-.51.99-.76,0-.02,0-.04.02-.05h0s.03-.03.04-.05c0,0,.01,0,.01,0,13.03-9.85,25.41-20.65,37.64-31.47,21.86-19.36,42.96-39.6,63.6-60.26,13.77-12.72,27.54-25.45,41.32-38.16,20.84-19.22,41.68-38.43,62.46-57.71.16-.15.34-.31.5-.47,0,.01-.02.03-.04.04.03-.03.06-.05.08-.08.1-.09.2-.18.31-.28.19-.18.38-.36.56-.53,1.45-1.33,2.88-2.66,4.32-3.98,3.95-3.65,7.91-7.31,11.86-10.96-17.28,27.17-37.69,52.51-59.58,76.06-23.12,24.86-48.45,47.73-74.97,68.9-23.36,18.65-47.83,36.03-73.62,51.17-4.7,2.77-9.45,5.47-14.27,8.03h0s-.01,0-.02,0c-.02.01-.04.02-.06.02-.01,0-.02,0-.03,0-.37.2-.74.39-1.11.6h-.01s-.04.02-.05.02h-.01Z"/>
        <path class="cls-6" d="M1350.03,801.52c-18.51-2.01-36.99-4.36-55.43-6.92-38.7-5.36-77.16-11.8-115.16-20.96-36.49-8.8-73.94-17.22-108.06-33.25-3.65-1.71-7.41-3.39-10.97-5.27-.02-.02,0-.05.02-.04,18.48,5.74,37.4,9.78,55.9,13.05,38.56,6.4,77.03,12.84,115.22,21.19,36.84,8.06,73.56,16.59,110.1,25.92,9.74,2.49,19.51,5.47,29.39,7.39-.45-.17-.91-.32-1.36-.48-.03,0,0-.05.02-.04.47.09,3.37.3,3.44.95.06.62-1.03.53-1.6.47-.13-.02-.22-.03-.28-.02-1.03-.04-2.05-.09-3.08-.16-6.07-.39-12.13-1.17-18.15-1.83Z"/>
        <path class="cls-6" d="M1221.53,782.37h0,0-.02c-7.02-.91-14.02-1.97-20.97-3.01-15.77-2.35-31.52-4.93-47.21-7.76-31.95-5.76-63.46-13-94.71-21.81-16.78-4.72-33.49-9.73-50.08-15.13-.02,0-.01-.04,0-.04,31.69,4.28,63.28,9.18,94.6,15.67,25.78,5.34,51.27,12.17,76.58,19.42,13.35,3.83,26.66,7.83,39.92,11.98.62.19,1.27.38,1.89.59,0,0,0,0,0,0,.04.02.02.07-.01.07,0,0,0,0,0,0Z"/>
        <path class="cls-3" d="M1703.36,512.1c89.37-44.52,122.74-93.09,179.24-170.27.02-.02.05,0,.03.02-45.35,87.84-79.8,140.68-179.27,170.25Z"/>
      </g>
    </g>
  </g>
</svg>